<svg width="27" height="24" viewBox="0 0 27 24" fill="none" xmlns="http://www.w3.org/2000/svg">
<path d="M19.6094 0C14.833 0 13.078 4.8811 13.078 4.8811C13.078 4.8811 11.3471 0 6.53793 0C2.92344 0 -1.19683 2.86456 0.324836 9.37633C1.8465 15.8881 13.0911 24 13.0911 24C13.0911 24 24.2943 15.8881 25.8182 9.37633C27.3398 2.86456 23.516 0 19.6094 0V0Z" fill="#F44336"/>
<path d="M5.80113 0.486148C9.55079 0.486148 11.4125 4.51703 12.0142 6.14988C12.0993 6.38314 12.4241 6.38968 12.5222 6.16296L13.0715 4.87892C12.2976 2.40676 10.1699 0 6.53798 0C5.03376 0 3.44451 0.497048 2.20844 1.54564C3.30063 0.828413 4.58031 0.486148 5.80113 0.486148V0.486148Z" fill="#CC3333"/>
<path d="M19.6094 0C18.4561 0 17.4054 0.250704 16.5857 0.756472C17.1612 0.534108 17.8741 0.486148 18.5804 0.486148C22.1142 0.486148 25.2775 3.16541 23.8495 9.35889C22.6244 14.676 15.4651 21.1267 13.2785 23.588C13.139 23.7449 13.0911 23.9978 13.0911 23.9978C13.0911 23.9978 24.2943 15.8859 25.8181 9.37415C27.3398 2.86457 23.5225 0 19.6094 0V0Z" fill="#CC3333"/>
<path d="M2.83414 3.45545C3.65165 2.43519 5.11228 1.59152 6.35054 2.56382C7.01981 3.0892 6.72768 4.16614 6.12817 4.61959C5.25616 5.28232 4.49751 5.68127 3.96558 6.71896C3.64729 7.34245 3.45545 8.0248 3.35735 8.72023C3.31811 8.99492 2.9584 9.0625 2.82324 8.82051C1.90327 7.18985 1.64166 4.94441 2.83414 3.45545Z" fill="#FF8A80"/>
<path d="M15.9404 5.60029C15.5567 5.60029 15.2864 5.22968 15.4259 4.87216C15.6853 4.21379 16.0211 3.57722 16.4244 3.01041C17.0217 2.17327 18.1575 1.68495 18.8769 2.19289C19.6138 2.71174 19.5178 3.74944 19.0012 4.25085C17.8915 5.3256 16.4919 5.60029 15.9404 5.60029Z" fill="#FF8A80"/>
</svg>
