<svg width="708" height="496" viewBox="0 0 708 496" fill="none" xmlns="http://www.w3.org/2000/svg">
<g clip-path="url(#clip0_24_989)">
<path d="M597.785 344.449C597.052 343.638 596.505 342.675 596.184 341.628C595.862 340.582 595.774 339.478 595.924 338.393C596.074 337.309 596.46 336.271 597.055 335.352C597.649 334.433 598.437 333.656 599.363 333.075L593.437 307.133L606.365 311.979L610.01 335.871C610.881 337.495 611.126 339.382 610.701 341.176C610.275 342.969 609.207 344.543 607.701 345.601C606.194 346.658 604.352 347.125 602.525 346.913C600.697 346.7 599.011 345.824 597.785 344.449V344.449Z" fill="#FFB8B8"/>
<path d="M596.891 323.86L585.526 301.846L587.063 246.413L587.793 247.955C588.644 249.751 608.584 292.046 607.162 306.205L609.441 319.144L596.891 323.86Z" fill="#3F3D56"/>
<path d="M589.481 486.552H598.594L602.929 451.334L589.479 451.335L589.481 486.552Z" fill="#FFB8B8"/>
<path d="M587.157 483.571L605.102 483.57H605.104C608.137 483.57 611.045 484.778 613.19 486.926C615.335 489.075 616.54 491.99 616.54 495.029V495.401L587.157 495.402L587.157 483.571Z" fill="#2F2E41"/>
<path d="M499.443 479.613L508.223 482.058L521.817 449.293L508.859 445.683L499.443 479.613Z" fill="#FFB8B8"/>
<path d="M498.001 476.117L515.29 480.934L515.292 480.934C518.214 481.749 520.693 483.692 522.185 486.338C523.677 488.984 524.058 492.116 523.246 495.044L523.146 495.402L494.837 487.516L498.001 476.117Z" fill="#2F2E41"/>
<path d="M580.395 472.822L562.004 340.887L522.283 472.076L491.051 461.391L535.814 285.724L536.109 285.703L583.003 282.435L616.883 462.159L580.395 472.822Z" fill="#2F2E41"/>
<path d="M575.532 223.554C575.532 223.554 558.436 214.617 535.394 218.341C535.394 218.341 523.13 247.986 535.394 259.788L538.739 289.463C538.739 289.463 569.957 308.082 580.363 286.484L578.876 261.908C578.876 261.908 586.309 250.121 580.363 241.492C576.799 236.221 575.098 229.906 575.532 223.554V223.554Z" fill="#63BEFF"/>
<path d="M577.697 358.531L580.698 296.146L572.206 221.932L572.596 221.873C583.735 220.19 587.308 239.419 587.455 240.238L606.844 350.078L577.697 358.531Z" fill="#3F3D56"/>
<path d="M539.894 359.182L505.617 355.366L505.626 354.99C505.747 349.906 508.698 230.36 516.964 221.894C525.28 213.377 540.973 217.062 541.637 217.224L541.968 217.304L539.147 267.888L539.894 359.182Z" fill="#3F3D56"/>
<path d="M546.208 287.732C545.17 288.074 544.069 288.183 542.984 288.052C541.9 287.921 540.856 287.554 539.929 286.975C539.001 286.397 538.211 285.622 537.615 284.704C537.018 283.787 536.63 282.75 536.477 281.666L510.411 276.549L520.083 266.683L543.353 273.054C545.188 272.918 547.009 273.46 548.471 274.578C549.933 275.697 550.935 277.314 551.287 279.123C551.639 280.932 551.316 282.808 550.38 284.395C549.444 285.981 547.96 287.169 546.208 287.732V287.732Z" fill="#FFB8B8"/>
<path d="M532.298 281.743L523.805 279.914C511.267 283.692 489.381 270.391 480.536 264.483C478.871 263.371 478.331 261.169 478.931 257.937C479.816 253.417 482.303 249.37 485.932 246.543L517.085 221.794L524.948 220.477L527.284 233.737L507.435 255.098L536.654 271.032L532.298 281.743Z" fill="#3F3D56"/>
<path d="M528.939 207.114V189.919C528.939 182.644 531.824 175.666 536.958 170.522C542.092 165.378 549.056 162.488 556.317 162.488C563.578 162.488 570.541 165.378 575.676 170.522C580.81 175.666 583.694 182.644 583.694 189.919V207.114C583.693 208.091 583.305 209.028 582.616 209.718C581.926 210.409 580.992 210.798 580.017 210.799H532.617C531.642 210.798 530.707 210.409 530.018 209.718C529.328 209.028 528.94 208.091 528.939 207.114V207.114Z" fill="#2F2E41"/>
<path d="M555.216 210.63C566.302 210.63 575.289 201.626 575.289 190.518C575.289 179.411 566.302 170.407 555.216 170.407C544.131 170.407 535.144 179.411 535.144 190.518C535.144 201.626 544.131 210.63 555.216 210.63Z" fill="#FFB8B8"/>
<path d="M534.593 190.441C534.401 190.219 534.259 189.959 534.177 189.677C534.094 189.395 534.073 189.099 534.115 188.809L536.493 172.22C536.54 171.882 536.67 171.562 536.872 171.287C537.074 171.013 537.341 170.793 537.649 170.648C549.785 164.957 562.092 164.95 574.228 170.627C574.55 170.78 574.827 171.014 575.032 171.306C575.236 171.598 575.362 171.938 575.396 172.294L576.983 188.905C577.01 189.189 576.978 189.475 576.888 189.746C576.798 190.017 576.653 190.266 576.461 190.477C576.27 190.688 576.036 190.857 575.776 190.972C575.516 191.088 575.234 191.147 574.949 191.147H570.924C570.535 191.146 570.155 191.035 569.827 190.825C569.499 190.616 569.238 190.318 569.072 189.966L567.335 186.236C567.223 185.995 567.035 185.797 566.8 185.671C566.566 185.546 566.296 185.501 566.034 185.542C565.771 185.584 565.529 185.71 565.344 185.901C565.159 186.093 565.041 186.339 565.008 186.603L564.665 189.353C564.603 189.848 564.362 190.304 563.989 190.634C563.616 190.964 563.135 191.146 562.638 191.147H536.137C535.844 191.147 535.555 191.084 535.289 190.962C535.022 190.84 534.785 190.663 534.593 190.441Z" fill="#2F2E41"/>
<path d="M450.299 33.0532H0V314.006H450.299V33.0532Z" fill="#E6E6E6"/>
<path d="M112.669 87.178H30.1961V140.89H112.669V87.178Z" fill="white"/>
<path d="M215.147 87.178H132.674V140.89H215.147V87.178Z" fill="white"/>
<path d="M317.625 87.178H235.152V140.89H317.625V87.178Z" fill="white"/>
<path d="M420.103 87.178H337.631V140.89H420.103V87.178Z" fill="white"/>
<path d="M112.669 163.2H30.1961V216.912H112.669V163.2Z" fill="white"/>
<path d="M215.147 163.2H132.674V216.912H215.147V163.2Z" fill="white"/>
<path d="M317.625 163.2H235.152V216.912H317.625V163.2Z" fill="white"/>
<path d="M420.103 163.2H337.631V216.912H420.103V163.2Z" fill="white"/>
<path d="M112.669 239.223H30.1961V292.935H112.669V239.223Z" fill="white"/>
<path d="M215.147 239.223H132.674V292.935H215.147V239.223Z" fill="white"/>
<path d="M317.625 239.223H235.152V292.935H317.625V239.223Z" fill="white"/>
<path d="M420.103 239.223H337.631V292.935H420.103V239.223Z" fill="white"/>
<path d="M117.935 66.1066C124.768 66.1066 130.306 60.5572 130.306 53.7116C130.306 46.8661 124.768 41.3167 117.935 41.3167C111.103 41.3167 105.565 46.8661 105.565 53.7116C105.565 60.5572 111.103 66.1066 117.935 66.1066Z" fill="white"/>
<path d="M322.467 66.1066C329.299 66.1066 334.838 60.5571 334.838 53.7116C334.838 46.8661 329.299 41.3167 322.467 41.3167C315.635 41.3167 310.096 46.8661 310.096 53.7116C310.096 60.5571 315.635 66.1066 322.467 66.1066Z" fill="white"/>
<path d="M122.884 0H112.987V57.0169H122.884V0Z" fill="#E6E6E6"/>
<path d="M327.415 0H317.519V57.0169H327.415V0Z" fill="#E6E6E6"/>
<path d="M397.517 114.034C397.513 118.521 395.892 122.856 392.954 126.243C390.015 129.629 385.955 131.839 381.521 132.467C377.086 133.094 372.574 132.098 368.814 129.659C365.055 127.221 362.299 123.505 361.054 119.195C359.81 114.884 360.159 110.268 362.039 106.195C363.919 102.122 367.202 98.8657 371.287 97.024C375.371 95.1823 379.981 94.8792 384.27 96.1703C388.559 97.4614 392.24 100.26 394.635 104.052C396.521 107.038 397.52 110.5 397.517 114.034V114.034Z" fill="#63BEFF"/>
<path d="M394.635 104.052L376.276 122.443C375.122 120.653 368.694 112.335 368.694 112.335C369.518 111.501 370.397 110.723 371.325 110.008L376.656 117.129L392.485 101.269C393.287 102.127 394.007 103.058 394.635 104.052V104.052Z" fill="white"/>
<path d="M192.56 190.056C192.556 194.544 190.936 198.879 187.997 202.265C185.059 205.652 180.999 207.862 176.564 208.489C172.13 209.117 167.618 208.12 163.858 205.682C160.098 203.244 157.343 199.528 156.098 195.217C154.853 190.907 155.203 186.291 157.083 182.218C158.962 178.145 162.246 174.888 166.33 173.046C170.414 171.205 175.024 170.902 179.314 172.193C183.603 173.484 187.283 176.282 189.678 180.074C191.564 183.061 192.564 186.522 192.56 190.056V190.056Z" fill="#63BEFF"/>
<path d="M189.678 180.074L171.32 198.465C170.166 196.675 163.738 188.357 163.738 188.357C164.562 187.523 165.441 186.746 166.369 186.03L171.7 193.151L187.528 177.292C188.331 178.149 189.051 179.081 189.678 180.074V180.074Z" fill="white"/>
<path d="M90.0824 190.056C90.0781 194.544 88.4578 198.879 85.5191 202.265C82.5804 205.652 78.5207 207.862 74.0861 208.489C69.6514 209.117 65.1396 208.12 61.3797 205.682C57.6198 203.244 54.8644 199.528 53.6197 195.217C52.375 190.907 52.7246 186.291 54.6044 182.218C56.4842 178.145 59.7678 174.888 63.8519 173.046C67.936 171.205 72.5463 170.902 76.8356 172.193C81.1249 173.484 84.8051 176.283 87.2001 180.074C89.0861 183.061 90.0857 186.523 90.0824 190.056V190.056Z" fill="#63BEFF"/>
<path d="M87.2001 180.074L68.8417 198.465C67.6879 196.675 61.2596 188.357 61.2596 188.357C62.0834 187.523 62.9625 186.746 63.891 186.03L69.2215 193.151L85.0503 177.292C85.853 178.149 86.5728 179.081 87.2001 180.074V180.074Z" fill="white"/>
<path d="M707.183 496H395.814C395.598 496 395.39 495.914 395.237 495.76C395.083 495.607 394.997 495.398 394.997 495.181C394.997 494.964 395.083 494.756 395.237 494.602C395.39 494.449 395.598 494.362 395.814 494.362H707.183C707.4 494.362 707.607 494.449 707.761 494.602C707.914 494.756 708 494.964 708 495.181C708 495.398 707.914 495.607 707.761 495.76C707.607 495.914 707.4 496 707.183 496Z" fill="#3F3D56"/>
</g>
<defs>
<clipPath id="clip0_24_989">
<rect width="708" height="496" fill="white"/>
</clipPath>
</defs>
</svg>
