<svg width="707" height="514" viewBox="0 0 707 514" fill="none" xmlns="http://www.w3.org/2000/svg">
<g clip-path="url(#clip0_23_592)">
<path d="M411.826 90.6123C425.077 90.6123 435.818 79.8749 435.818 66.6297C435.818 53.3846 425.077 42.6472 411.826 42.6472C398.576 42.6472 387.834 53.3846 387.834 66.6297C387.834 79.8749 398.576 90.6123 411.826 90.6123Z" fill="#F2F2F2"/>
<path d="M597.94 446.54C633.602 419.389 650.635 373.763 639.971 330.24C639.706 329.158 639.427 328.079 639.132 327.003C632.063 301.167 614.573 276.613 589.083 268.358C567.68 261.427 544.317 266.757 521.989 264.001C478.156 258.59 444.173 223.138 420.262 186.02C396.351 148.901 377.975 107.353 346.202 76.6876C293.83 26.1413 208.398 15.2586 143.464 48.1605C78.5307 81.0625 37.1685 154.058 38.9325 226.808C40.6966 299.557 83.9018 369.11 146.647 406.013C169.696 419.57 196.356 429.173 222.887 425.813C245.908 422.897 266.826 410.532 289.738 406.861C325.763 401.09 361.557 417.371 392.715 436.343C423.873 455.316 453.97 477.804 489.376 486.6C523.756 495.14 566.35 470.592 597.94 446.54Z" fill="#F2F2F2"/>
<path d="M546.703 49.6882C545.922 49.1673 545.131 48.6733 544.349 48.1703C521.751 33.7235 497.53 21.9871 472.186 13.2035L466.31 94.2388H429.056V1.37424C426.711 0.889214 424.347 0.431134 421.984 0V94.2388H377.712C353.34 94.2388 329.966 84.5609 312.733 67.3341C295.499 50.1073 285.817 26.7427 285.817 2.38033V2.38024C283.445 2.89222 281.091 3.44012 278.737 4.02394V94.2388H242.678L237.08 16.9669C211.035 26.9516 186.309 40.0818 163.452 56.0655C163.057 56.3349 162.662 56.6134 162.275 56.8828C160.289 58.275 158.33 59.6942 156.381 61.1313V370.282H262.653L260.775 344.279L250.441 201.51H458.537L448.204 344.279L446.326 370.282H551.421V52.814C549.857 51.7541 548.285 50.7122 546.703 49.6882ZM278.737 177.933H248.734L243.19 101.317H278.737V177.933ZM421.984 177.933H371.593V176.415C371.593 175.685 371.449 174.963 371.17 174.288C370.89 173.614 370.48 173.002 369.964 172.487C369.447 171.971 368.834 171.562 368.159 171.284C367.484 171.005 366.761 170.863 366.031 170.864H344.124C343.395 170.864 342.673 171.007 341.999 171.286C341.325 171.565 340.713 171.974 340.197 172.489C339.682 173.005 339.273 173.617 338.994 174.29C338.715 174.964 338.571 175.686 338.571 176.415V177.933H285.817V101.317H421.984V177.933ZM429.056 177.933V101.317H465.798L460.254 177.933H429.056Z" fill="#3F3D56"/>
<path d="M0 390.079C7.80596 399.324 16.249 408.013 25.2673 416.081L681.733 416.98C690.751 408.911 699.194 400.222 707 390.977L0 390.079Z" fill="#3F3D56"/>
<path d="M445.17 306.816V383.795C445.171 384.776 445.561 385.717 446.255 386.411C446.949 387.104 447.89 387.494 448.872 387.495H562.992C563.973 387.494 564.914 387.104 565.608 386.411C566.302 385.717 566.692 384.776 566.693 383.795V306.816C566.691 305.836 566.3 304.897 565.606 304.204C564.913 303.511 563.972 303.122 562.992 303.121H448.872C447.891 303.122 446.951 303.512 446.257 304.204C445.564 304.897 445.173 305.836 445.17 306.816V306.816Z" fill="#3F3D56"/>
<path d="M447.848 307.774V382.846C447.849 383.37 448.057 383.872 448.428 384.243C448.799 384.613 449.301 384.822 449.826 384.823H562.042C562.566 384.822 563.069 384.613 563.44 384.243C563.811 383.872 564.019 383.37 564.02 382.846V307.774C564.02 307.249 563.812 306.746 563.441 306.374C563.07 306.003 562.567 305.794 562.042 305.792H449.826C449.301 305.794 448.798 306.003 448.427 306.374C448.056 306.746 447.848 307.249 447.848 307.774V307.774Z" fill="#63BEFF"/>
<path d="M442.784 398.808C442.993 399.07 443.258 399.281 443.561 399.426C443.863 399.571 444.195 399.645 444.53 399.643H566.726C567.06 399.643 567.39 399.568 567.692 399.424C567.993 399.28 568.259 399.071 568.47 398.812C568.68 398.552 568.83 398.249 568.909 397.924C568.987 397.6 568.993 397.262 568.924 396.935L567.027 387.928C566.948 387.561 566.779 387.219 566.535 386.934C566.29 386.649 565.978 386.429 565.627 386.295C565.373 386.196 565.102 386.145 564.829 386.145H446.419C446.146 386.145 445.876 386.196 445.621 386.295C445.27 386.429 444.958 386.649 444.714 386.934C444.469 387.219 444.3 387.561 444.221 387.928L442.324 396.935C442.257 397.261 442.263 397.599 442.343 397.923C442.422 398.247 442.573 398.55 442.784 398.808V398.808Z" fill="#2F2E41"/>
<path d="M560.636 390.024H563.523C563.765 390.024 563.961 389.828 563.961 389.586V388.205C563.961 387.963 563.765 387.767 563.523 387.767H560.636C560.394 387.767 560.198 387.963 560.198 388.205V389.586C560.198 389.828 560.394 390.024 560.636 390.024Z" fill="#3F3D56"/>
<path d="M553.109 390.024H555.995C556.238 390.024 556.434 389.828 556.434 389.586V388.205C556.434 387.963 556.238 387.767 555.995 387.767H553.109C552.867 387.767 552.671 387.963 552.671 388.205V389.586C552.671 389.828 552.867 390.024 553.109 390.024Z" fill="#3F3D56"/>
<path d="M545.582 390.024H548.468C548.711 390.024 548.907 389.828 548.907 389.586V388.205C548.907 387.963 548.711 387.767 548.468 387.767H545.582C545.34 387.767 545.143 387.963 545.143 388.205V389.586C545.143 389.828 545.34 390.024 545.582 390.024Z" fill="#3F3D56"/>
<path d="M538.055 390.024H540.941C541.183 390.024 541.38 389.828 541.38 389.586V388.205C541.38 387.963 541.183 387.767 540.941 387.767H538.055C537.813 387.767 537.616 387.963 537.616 388.205V389.586C537.616 389.828 537.813 390.024 538.055 390.024Z" fill="#3F3D56"/>
<path d="M530.528 390.024H533.414C533.656 390.024 533.853 389.828 533.853 389.586V388.205C533.853 387.963 533.656 387.767 533.414 387.767H530.528C530.286 387.767 530.089 387.963 530.089 388.205V389.586C530.089 389.828 530.286 390.024 530.528 390.024Z" fill="#3F3D56"/>
<path d="M523.001 390.024H525.887C526.129 390.024 526.325 389.828 526.325 389.586V388.205C526.325 387.963 526.129 387.767 525.887 387.767H523.001C522.758 387.767 522.562 387.963 522.562 388.205V389.586C522.562 389.828 522.758 390.024 523.001 390.024Z" fill="#3F3D56"/>
<path d="M515.473 390.024H518.36C518.602 390.024 518.798 389.828 518.798 389.586V388.205C518.798 387.963 518.602 387.767 518.36 387.767H515.473C515.231 387.767 515.035 387.963 515.035 388.205V389.586C515.035 389.828 515.231 390.024 515.473 390.024Z" fill="#3F3D56"/>
<path d="M507.946 390.024H510.832C511.075 390.024 511.271 389.828 511.271 389.586V388.205C511.271 387.963 511.075 387.767 510.832 387.767H507.946C507.704 387.767 507.508 387.963 507.508 388.205V389.586C507.508 389.828 507.704 390.024 507.946 390.024Z" fill="#3F3D56"/>
<path d="M500.419 390.024H503.305C503.548 390.024 503.744 389.828 503.744 389.586V388.205C503.744 387.963 503.548 387.767 503.305 387.767H500.419C500.177 387.767 499.98 387.963 499.98 388.205V389.586C499.98 389.828 500.177 390.024 500.419 390.024Z" fill="#3F3D56"/>
<path d="M492.892 390.024H495.778C496.02 390.024 496.217 389.828 496.217 389.586V388.205C496.217 387.963 496.02 387.767 495.778 387.767H492.892C492.65 387.767 492.453 387.963 492.453 388.205V389.586C492.453 389.828 492.65 390.024 492.892 390.024Z" fill="#3F3D56"/>
<path d="M485.365 390.024H488.251C488.493 390.024 488.69 389.828 488.69 389.586V388.205C488.69 387.963 488.493 387.767 488.251 387.767H485.365C485.122 387.767 484.926 387.963 484.926 388.205V389.586C484.926 389.828 485.122 390.024 485.365 390.024Z" fill="#3F3D56"/>
<path d="M477.838 390.024H480.724C480.966 390.024 481.162 389.828 481.162 389.586V388.205C481.162 387.963 480.966 387.767 480.724 387.767H477.838C477.595 387.767 477.399 387.963 477.399 388.205V389.586C477.399 389.828 477.595 390.024 477.838 390.024Z" fill="#3F3D56"/>
<path d="M470.31 390.024H473.197C473.439 390.024 473.635 389.828 473.635 389.586V388.205C473.635 387.963 473.439 387.767 473.197 387.767H470.31C470.068 387.767 469.872 387.963 469.872 388.205V389.586C469.872 389.828 470.068 390.024 470.31 390.024Z" fill="#3F3D56"/>
<path d="M462.783 390.024H465.669C465.912 390.024 466.108 389.828 466.108 389.586V388.205C466.108 387.963 465.912 387.767 465.669 387.767H462.783C462.541 387.767 462.345 387.963 462.345 388.205V389.586C462.345 389.828 462.541 390.024 462.783 390.024Z" fill="#3F3D56"/>
<path d="M455.256 390.024H458.142C458.385 390.024 458.581 389.828 458.581 389.586V388.205C458.581 387.963 458.385 387.767 458.142 387.767H455.256C455.014 387.767 454.817 387.963 454.817 388.205V389.586C454.817 389.828 455.014 390.024 455.256 390.024Z" fill="#3F3D56"/>
<path d="M447.729 390.024H450.615C450.857 390.024 451.054 389.828 451.054 389.586V388.205C451.054 387.963 450.857 387.767 450.615 387.767H447.729C447.487 387.767 447.29 387.963 447.29 388.205V389.586C447.29 389.828 447.487 390.024 447.729 390.024Z" fill="#3F3D56"/>
<path d="M560.725 393.786H563.612C563.854 393.786 564.05 393.59 564.05 393.348V391.968C564.05 391.725 563.854 391.529 563.612 391.529H560.725C560.483 391.529 560.287 391.725 560.287 391.968V393.348C560.287 393.59 560.483 393.786 560.725 393.786Z" fill="#3F3D56"/>
<path d="M553.198 393.786H556.084C556.327 393.786 556.523 393.59 556.523 393.348V391.968C556.523 391.725 556.327 391.529 556.084 391.529H553.198C552.956 391.529 552.76 391.725 552.76 391.968V393.348C552.76 393.59 552.956 393.786 553.198 393.786Z" fill="#3F3D56"/>
<path d="M545.671 393.786H548.557C548.799 393.786 548.996 393.59 548.996 393.348V391.968C548.996 391.725 548.799 391.529 548.557 391.529H545.671C545.429 391.529 545.232 391.725 545.232 391.968V393.348C545.232 393.59 545.429 393.786 545.671 393.786Z" fill="#3F3D56"/>
<path d="M538.144 393.786H541.03C541.272 393.786 541.469 393.59 541.469 393.348V391.968C541.469 391.725 541.272 391.529 541.03 391.529H538.144C537.902 391.529 537.705 391.725 537.705 391.968V393.348C537.705 393.59 537.902 393.786 538.144 393.786Z" fill="#3F3D56"/>
<path d="M530.617 393.786H533.503C533.745 393.786 533.942 393.59 533.942 393.348V391.968C533.942 391.725 533.745 391.529 533.503 391.529H530.617C530.374 391.529 530.178 391.725 530.178 391.968V393.348C530.178 393.59 530.374 393.786 530.617 393.786Z" fill="#3F3D56"/>
<path d="M523.089 393.786H525.976C526.218 393.786 526.414 393.59 526.414 393.348V391.968C526.414 391.725 526.218 391.529 525.976 391.529H523.089C522.847 391.529 522.651 391.725 522.651 391.968V393.348C522.651 393.59 522.847 393.786 523.089 393.786Z" fill="#3F3D56"/>
<path d="M515.562 393.786H518.449C518.691 393.786 518.887 393.59 518.887 393.348V391.968C518.887 391.725 518.691 391.529 518.449 391.529H515.562C515.32 391.529 515.124 391.725 515.124 391.968V393.348C515.124 393.59 515.32 393.786 515.562 393.786Z" fill="#3F3D56"/>
<path d="M508.035 393.786H510.921C511.164 393.786 511.36 393.59 511.36 393.348V391.968C511.36 391.725 511.164 391.529 510.921 391.529H508.035C507.793 391.529 507.597 391.725 507.597 391.968V393.348C507.597 393.59 507.793 393.786 508.035 393.786Z" fill="#3F3D56"/>
<path d="M500.508 393.786H503.394C503.637 393.786 503.833 393.59 503.833 393.348V391.968C503.833 391.725 503.637 391.529 503.394 391.529H500.508C500.266 391.529 500.069 391.725 500.069 391.968V393.348C500.069 393.59 500.266 393.786 500.508 393.786Z" fill="#3F3D56"/>
<path d="M492.981 393.786H495.867C496.109 393.786 496.306 393.59 496.306 393.348V391.968C496.306 391.725 496.109 391.529 495.867 391.529H492.981C492.739 391.529 492.542 391.725 492.542 391.968V393.348C492.542 393.59 492.739 393.786 492.981 393.786Z" fill="#3F3D56"/>
<path d="M485.454 393.786H488.34C488.582 393.786 488.779 393.59 488.779 393.348V391.968C488.779 391.725 488.582 391.529 488.34 391.529H485.454C485.211 391.529 485.015 391.725 485.015 391.968V393.348C485.015 393.59 485.211 393.786 485.454 393.786Z" fill="#3F3D56"/>
<path d="M477.927 393.786H480.813C481.055 393.786 481.251 393.59 481.251 393.348V391.968C481.251 391.725 481.055 391.529 480.813 391.529H477.927C477.684 391.529 477.488 391.725 477.488 391.968V393.348C477.488 393.59 477.684 393.786 477.927 393.786Z" fill="#3F3D56"/>
<path d="M470.399 393.786H473.286C473.528 393.786 473.724 393.59 473.724 393.348V391.968C473.724 391.725 473.528 391.529 473.286 391.529H470.399C470.157 391.529 469.961 391.725 469.961 391.968V393.348C469.961 393.59 470.157 393.786 470.399 393.786Z" fill="#3F3D56"/>
<path d="M462.872 393.786H465.758C466.001 393.786 466.197 393.59 466.197 393.348V391.968C466.197 391.725 466.001 391.529 465.758 391.529H462.872C462.63 391.529 462.433 391.725 462.433 391.968V393.348C462.433 393.59 462.63 393.786 462.872 393.786Z" fill="#3F3D56"/>
<path d="M455.345 393.786H458.231C458.474 393.786 458.67 393.59 458.67 393.348V391.968C458.67 391.725 458.474 391.529 458.231 391.529H455.345C455.103 391.529 454.906 391.725 454.906 391.968V393.348C454.906 393.59 455.103 393.786 455.345 393.786Z" fill="#3F3D56"/>
<path d="M447.818 393.786H450.704C450.946 393.786 451.143 393.59 451.143 393.348V391.968C451.143 391.725 450.946 391.529 450.704 391.529H447.818C447.576 391.529 447.379 391.725 447.379 391.968V393.348C447.379 393.59 447.576 393.786 447.818 393.786Z" fill="#3F3D56"/>
<path d="M498.25 398.301H527.481C527.724 398.301 527.92 398.104 527.92 397.862V396.482C527.92 396.24 527.724 396.044 527.481 396.044H498.25C498.008 396.044 497.811 396.24 497.811 396.482V397.862C497.811 398.104 498.008 398.301 498.25 398.301Z" fill="#3F3D56"/>
<path d="M467.28 322.216H464.725C463.95 322.216 463.322 322.844 463.322 323.618C463.322 324.393 463.95 325.021 464.725 325.021H467.28C468.055 325.021 468.683 324.393 468.683 323.618C468.683 322.844 468.055 322.216 467.28 322.216Z" fill="white"/>
<path d="M496.504 322.216H493.949C493.174 322.216 492.546 322.844 492.546 323.618C492.546 324.393 493.174 325.021 493.949 325.021H496.504C497.279 325.021 497.907 324.393 497.907 323.618C497.907 322.844 497.279 322.216 496.504 322.216Z" fill="white"/>
<path d="M504.784 322.216H502.229C501.454 322.216 500.826 322.844 500.826 323.618C500.826 324.393 501.454 325.021 502.229 325.021H504.784C505.559 325.021 506.187 324.393 506.187 323.618C506.187 322.844 505.559 322.216 504.784 322.216Z" fill="white"/>
<path d="M488.555 321.983H472.674C471.899 321.983 471.271 322.61 471.271 323.385C471.271 324.159 471.899 324.787 472.674 324.787H488.555C489.33 324.787 489.958 324.159 489.958 323.385C489.958 322.61 489.33 321.983 488.555 321.983Z" fill="white"/>
<path d="M527.52 321.983H511.639C510.864 321.983 510.236 322.61 510.236 323.385C510.236 324.159 510.864 324.787 511.639 324.787H527.52C528.295 324.787 528.923 324.159 528.923 323.385C528.923 322.61 528.295 321.983 527.52 321.983Z" fill="white"/>
<path d="M475.073 328.546H472.518C471.743 328.546 471.115 329.173 471.115 329.948C471.115 330.722 471.743 331.35 472.518 331.35H475.073C475.848 331.35 476.476 330.722 476.476 329.948C476.476 329.173 475.848 328.546 475.073 328.546Z" fill="white"/>
<path d="M504.297 328.546H501.742C500.967 328.546 500.339 329.173 500.339 329.948C500.339 330.722 500.967 331.35 501.742 331.35H504.297C505.072 331.35 505.7 330.722 505.7 329.948C505.7 329.173 505.072 328.546 504.297 328.546Z" fill="white"/>
<path d="M512.577 328.546H510.022C509.247 328.546 508.619 329.173 508.619 329.948C508.619 330.722 509.247 331.35 510.022 331.35H512.577C513.351 331.35 513.98 330.722 513.98 329.948C513.98 329.173 513.351 328.546 512.577 328.546Z" fill="white"/>
<path d="M496.348 328.312H480.467C479.692 328.312 479.064 328.94 479.064 329.714C479.064 330.489 479.692 331.116 480.467 331.116H496.348C497.123 331.116 497.751 330.489 497.751 329.714C497.751 328.94 497.123 328.312 496.348 328.312Z" fill="white"/>
<path d="M535.313 328.312H519.432C518.657 328.312 518.029 328.94 518.029 329.714C518.029 330.489 518.657 331.116 519.432 331.116H535.313C536.087 331.116 536.716 330.489 536.716 329.714C536.716 328.94 536.087 328.312 535.313 328.312Z" fill="white"/>
<path d="M482.866 334.875H480.311C479.536 334.875 478.908 335.503 478.908 336.277C478.908 337.052 479.536 337.679 480.311 337.679H482.866C483.641 337.679 484.269 337.052 484.269 336.277C484.269 335.503 483.641 334.875 482.866 334.875Z" fill="white"/>
<path d="M512.09 334.875H509.535C508.76 334.875 508.132 335.503 508.132 336.277C508.132 337.052 508.76 337.679 509.535 337.679H512.09C512.864 337.679 513.492 337.052 513.492 336.277C513.492 335.503 512.864 334.875 512.09 334.875Z" fill="white"/>
<path d="M520.37 334.875H517.815C517.04 334.875 516.412 335.503 516.412 336.277C516.412 337.052 517.04 337.679 517.815 337.679H520.37C521.144 337.679 521.772 337.052 521.772 336.277C521.772 335.503 521.144 334.875 520.37 334.875Z" fill="white"/>
<path d="M504.141 334.641H488.26C487.485 334.641 486.857 335.269 486.857 336.043C486.857 336.818 487.485 337.445 488.26 337.445H504.141C504.916 337.445 505.544 336.818 505.544 336.043C505.544 335.269 504.916 334.641 504.141 334.641Z" fill="white"/>
<path d="M543.106 334.641H527.225C526.45 334.641 525.822 335.269 525.822 336.043C525.822 336.818 526.45 337.445 527.225 337.445H543.106C543.88 337.445 544.508 336.818 544.508 336.043C544.508 335.269 543.88 334.641 543.106 334.641Z" fill="white"/>
<path d="M490.659 341.204H488.104C487.329 341.204 486.701 341.832 486.701 342.606C486.701 343.381 487.329 344.009 488.104 344.009H490.659C491.434 344.009 492.062 343.381 492.062 342.606C492.062 341.832 491.434 341.204 490.659 341.204Z" fill="white"/>
<path d="M519.883 341.204H517.328C516.553 341.204 515.925 341.832 515.925 342.606C515.925 343.381 516.553 344.009 517.328 344.009H519.883C520.657 344.009 521.285 343.381 521.285 342.606C521.285 341.832 520.657 341.204 519.883 341.204Z" fill="white"/>
<path d="M528.163 341.204H525.608C524.833 341.204 524.205 341.832 524.205 342.606C524.205 343.381 524.833 344.009 525.608 344.009H528.163C528.937 344.009 529.565 343.381 529.565 342.606C529.565 341.832 528.937 341.204 528.163 341.204Z" fill="white"/>
<path d="M511.934 340.97H496.053C495.278 340.97 494.65 341.598 494.65 342.373C494.65 343.147 495.278 343.775 496.053 343.775H511.934C512.709 343.775 513.337 343.147 513.337 342.373C513.337 341.598 512.709 340.97 511.934 340.97Z" fill="white"/>
<path d="M496.504 366.372H493.949C493.174 366.372 492.546 367 492.546 367.774C492.546 368.549 493.174 369.176 493.949 369.176H496.504C497.279 369.176 497.907 368.549 497.907 367.774C497.907 367 497.279 366.372 496.504 366.372Z" fill="white"/>
<path d="M504.784 366.372H502.229C501.454 366.372 500.826 367 500.826 367.774C500.826 368.549 501.454 369.176 502.229 369.176H504.784C505.559 369.176 506.187 368.549 506.187 367.774C506.187 367 505.559 366.372 504.784 366.372Z" fill="white"/>
<path d="M527.52 366.606H511.639C510.864 366.606 510.236 367.234 510.236 368.008C510.236 368.783 510.864 369.41 511.639 369.41H527.52C528.295 369.41 528.923 368.783 528.923 368.008C528.923 367.234 528.295 366.606 527.52 366.606Z" fill="white"/>
<path d="M467.28 366.372H464.725C463.95 366.372 463.322 367 463.322 367.774C463.322 368.549 463.95 369.176 464.725 369.176H467.28C468.055 369.176 468.683 368.549 468.683 367.774C468.683 367 468.055 366.372 467.28 366.372Z" fill="white"/>
<path d="M488.555 366.606H472.674C471.899 366.606 471.271 367.234 471.271 368.008C471.271 368.783 471.899 369.41 472.674 369.41H488.555C489.33 369.41 489.958 368.783 489.958 368.008C489.958 367.234 489.33 366.606 488.555 366.606Z" fill="white"/>
<path d="M475.073 360.043H472.518C471.743 360.043 471.115 360.671 471.115 361.445C471.115 362.22 471.743 362.847 472.518 362.847H475.073C475.848 362.847 476.476 362.22 476.476 361.445C476.476 360.671 475.848 360.043 475.073 360.043Z" fill="white"/>
<path d="M504.297 360.043H501.742C500.967 360.043 500.339 360.671 500.339 361.445C500.339 362.22 500.967 362.847 501.742 362.847H504.297C505.072 362.847 505.7 362.22 505.7 361.445C505.7 360.671 505.072 360.043 504.297 360.043Z" fill="white"/>
<path d="M512.577 360.043H510.022C509.247 360.043 508.619 360.671 508.619 361.445C508.619 362.22 509.247 362.847 510.022 362.847H512.577C513.351 362.847 513.98 362.22 513.98 361.445C513.98 360.671 513.351 360.043 512.577 360.043Z" fill="white"/>
<path d="M496.348 360.277H480.467C479.692 360.277 479.064 360.904 479.064 361.679C479.064 362.453 479.692 363.081 480.467 363.081H496.348C497.123 363.081 497.751 362.453 497.751 361.679C497.751 360.904 497.123 360.277 496.348 360.277Z" fill="white"/>
<path d="M482.866 353.714H480.311C479.536 353.714 478.908 354.341 478.908 355.116C478.908 355.89 479.536 356.518 480.311 356.518H482.866C483.641 356.518 484.269 355.89 484.269 355.116C484.269 354.341 483.641 353.714 482.866 353.714Z" fill="white"/>
<path d="M512.09 353.714H509.535C508.76 353.714 508.132 354.341 508.132 355.116C508.132 355.89 508.76 356.518 509.535 356.518H512.09C512.864 356.518 513.492 355.89 513.492 355.116C513.492 354.341 512.864 353.714 512.09 353.714Z" fill="white"/>
<path d="M520.37 353.714H517.815C517.04 353.714 516.412 354.341 516.412 355.116C516.412 355.89 517.04 356.518 517.815 356.518H520.37C521.144 356.518 521.772 355.89 521.772 355.116C521.772 354.341 521.144 353.714 520.37 353.714Z" fill="white"/>
<path d="M504.141 353.947H488.26C487.485 353.947 486.857 354.575 486.857 355.349C486.857 356.124 487.485 356.752 488.26 356.752H504.141C504.916 356.752 505.544 356.124 505.544 355.349C505.544 354.575 504.916 353.947 504.141 353.947Z" fill="white"/>
<path d="M490.659 347.384H488.104C487.329 347.384 486.701 348.012 486.701 348.786C486.701 349.561 487.329 350.189 488.104 350.189H490.659C491.434 350.189 492.062 349.561 492.062 348.786C492.062 348.012 491.434 347.384 490.659 347.384Z" fill="white"/>
<path d="M519.883 347.384H517.328C516.553 347.384 515.925 348.012 515.925 348.786C515.925 349.561 516.553 350.189 517.328 350.189H519.883C520.657 350.189 521.285 349.561 521.285 348.786C521.285 348.012 520.657 347.384 519.883 347.384Z" fill="white"/>
<path d="M528.163 347.384H525.608C524.833 347.384 524.205 348.012 524.205 348.786C524.205 349.561 524.833 350.189 525.608 350.189H528.163C528.937 350.189 529.565 349.561 529.565 348.786C529.565 348.012 528.937 347.384 528.163 347.384Z" fill="white"/>
<path d="M511.934 347.618H496.053C495.278 347.618 494.65 348.246 494.65 349.02C494.65 349.795 495.278 350.422 496.053 350.422H511.934C512.709 350.422 513.337 349.795 513.337 349.02C513.337 348.246 512.709 347.618 511.934 347.618Z" fill="white"/>
<path d="M453.695 440.549L441.7 421.596L479.351 391.593L494.892 374.383C496.911 372.147 499.482 370.48 502.347 369.548C505.213 368.616 508.273 368.453 511.221 369.074C514.17 369.694 516.904 371.078 519.15 373.086C521.396 375.094 523.076 377.656 524.021 380.516C525.422 384.754 525.121 389.37 523.181 393.391C521.241 397.411 517.815 400.521 513.625 402.064L489.051 411.114L453.695 440.549Z" fill="#FFB6B6"/>
<path d="M172.244 303.124V395.243H236.805V303.124C236.806 302.461 236.594 301.816 236.201 301.283C235.808 300.749 235.255 300.356 234.621 300.16C234.323 300.061 234.01 300.013 233.696 300.016H175.362C174.953 300.015 174.548 300.095 174.17 300.251C173.792 300.407 173.448 300.636 173.158 300.924C172.869 301.213 172.639 301.556 172.482 301.933C172.325 302.311 172.244 302.715 172.244 303.124V303.124ZM197.439 334.776C197.456 332.96 198.19 331.224 199.48 329.946C200.771 328.668 202.514 327.951 204.331 327.951C206.148 327.951 207.891 328.668 209.182 329.946C210.473 331.224 211.206 332.96 211.223 334.776V345.465C211.214 347.286 210.484 349.029 209.192 350.314C207.901 351.598 206.153 352.319 204.331 352.319C202.509 352.319 200.762 351.598 199.47 350.314C198.179 349.029 197.449 347.286 197.439 345.465V334.776Z" fill="#2F2E41"/>
<path d="M172.046 392.297V401.18C172.048 401.64 172.23 402.081 172.555 402.408C172.88 402.734 173.32 402.919 173.78 402.923H235.268C235.729 402.92 236.17 402.736 236.495 402.409C236.82 402.083 237.003 401.641 237.003 401.18V392.297H172.046Z" fill="#3F3D56"/>
<path d="M70.6802 164.335V332.531C70.6819 334.674 71.5345 336.73 73.0507 338.245C74.567 339.761 76.6229 340.613 78.7672 340.615H328.116C330.26 340.613 332.316 339.761 333.832 338.245C335.349 336.73 336.201 334.674 336.203 332.531V164.335C336.198 162.193 335.344 160.141 333.828 158.628C332.312 157.114 330.258 156.263 328.116 156.26H78.7672C76.6248 156.263 74.5708 157.114 73.055 158.628C71.5393 160.141 70.6853 162.193 70.6802 164.335Z" fill="#3F3D56"/>
<path d="M76.5298 166.427V330.456C76.5318 331.601 76.9877 332.699 77.7978 333.509C78.608 334.319 79.7062 334.774 80.8518 334.776H326.04C327.186 334.774 328.284 334.319 329.094 333.509C329.904 332.699 330.36 331.601 330.362 330.456V166.427C330.362 165.281 329.907 164.181 329.097 163.369C328.287 162.558 327.187 162.101 326.04 162.098H80.8518C79.7048 162.101 78.6055 162.558 77.7953 163.369C76.985 164.181 76.5299 165.281 76.5298 166.427Z" fill="white"/>
<path d="M122.033 402.321C122.282 402.634 122.599 402.886 122.96 403.059C123.321 403.231 123.717 403.32 124.117 403.318H269.988C270.387 403.317 270.781 403.228 271.141 403.056C271.501 402.885 271.818 402.635 272.07 402.325C272.321 402.015 272.5 401.654 272.594 401.266C272.688 400.878 272.694 400.475 272.612 400.084L270.348 389.333C270.254 388.895 270.052 388.487 269.76 388.146C269.468 387.806 269.096 387.544 268.677 387.384C268.373 387.265 268.05 387.204 267.724 387.204H126.373C126.047 387.204 125.724 387.265 125.42 387.384C125.001 387.544 124.629 387.806 124.337 388.146C124.045 388.487 123.843 388.895 123.749 389.333L121.484 400.084C121.404 400.475 121.411 400.878 121.506 401.264C121.601 401.651 121.781 402.012 122.033 402.321Z" fill="#2F2E41"/>
<path d="M318.083 184.694H88.6613C88.4228 184.689 88.1959 184.59 88.0291 184.42C87.8624 184.249 87.769 184.021 87.769 183.782C87.769 183.544 87.8624 183.315 88.0291 183.144C88.1959 182.974 88.4228 182.875 88.6613 182.87H318.083C318.322 182.875 318.548 182.974 318.715 183.144C318.882 183.315 318.975 183.544 318.975 183.782C318.975 184.021 318.882 184.249 318.715 184.42C318.548 184.59 318.322 184.689 318.083 184.694V184.694Z" fill="#3F3D56"/>
<path d="M104.278 178.214C107.231 178.214 109.625 175.767 109.625 172.75C109.625 169.732 107.231 167.286 104.278 167.286C101.325 167.286 98.9316 169.732 98.9316 172.75C98.9316 175.767 101.325 178.214 104.278 178.214Z" fill="#3F3D56"/>
<path d="M122.749 178.214C125.702 178.214 128.096 175.767 128.096 172.75C128.096 169.732 125.702 167.286 122.749 167.286C119.796 167.286 117.402 169.732 117.402 172.75C117.402 175.767 119.796 178.214 122.749 178.214Z" fill="#3F3D56"/>
<path d="M141.22 178.214C144.173 178.214 146.566 175.767 146.566 172.75C146.566 169.732 144.173 167.286 141.22 167.286C138.267 167.286 135.873 169.732 135.873 172.75C135.873 175.767 138.267 178.214 141.22 178.214Z" fill="#3F3D56"/>
<path d="M306.961 168.637H293.842C293.582 168.643 293.336 168.75 293.154 168.936C292.973 169.121 292.872 169.37 292.872 169.63C292.872 169.889 292.973 170.138 293.154 170.323C293.336 170.509 293.582 170.616 293.842 170.622H306.961C307.222 170.619 307.471 170.512 307.654 170.327C307.837 170.141 307.94 169.891 307.94 169.63C307.94 169.369 307.837 169.119 307.654 168.933C307.471 168.747 307.222 168.641 306.961 168.637Z" fill="#3F3D56"/>
<path d="M306.961 172.365H293.842C293.582 172.37 293.335 172.478 293.154 172.663C292.972 172.849 292.871 173.098 292.871 173.357C292.871 173.617 292.972 173.866 293.154 174.051C293.335 174.237 293.582 174.344 293.842 174.35H306.961C307.222 174.347 307.471 174.241 307.655 174.055C307.839 173.869 307.942 173.618 307.942 173.357C307.942 173.096 307.839 172.845 307.655 172.66C307.471 172.474 307.222 172.368 306.961 172.365V172.365Z" fill="#3F3D56"/>
<path d="M306.961 176.092H293.842C293.582 176.098 293.336 176.206 293.154 176.391C292.973 176.577 292.872 176.826 292.872 177.085C292.872 177.344 292.973 177.593 293.154 177.779C293.336 177.964 293.582 178.071 293.842 178.077H306.961C307.222 178.074 307.471 177.967 307.654 177.782C307.837 177.596 307.94 177.346 307.94 177.085C307.94 176.824 307.837 176.574 307.654 176.388C307.471 176.202 307.222 176.096 306.961 176.092V176.092Z" fill="#3F3D56"/>
<path d="M623.233 396.196C623.629 397.348 624.38 398.345 625.378 399.044C626.376 399.743 627.57 400.108 628.789 400.086L652.593 399.473C653.821 399.449 655.007 399.029 655.976 398.275C656.945 397.521 657.643 396.474 657.967 395.29L661.336 359.284C662.531 359.825 663.832 360.093 665.144 360.066C666.284 360.038 667.406 359.785 668.448 359.323C669.49 358.86 670.431 358.197 671.217 357.372C672.002 356.546 672.618 355.573 673.027 354.51C673.437 353.446 673.633 352.313 673.605 351.174C673.576 350.034 673.323 348.912 672.861 347.87C672.398 346.829 671.735 345.888 670.909 345.103C670.082 344.318 669.11 343.703 668.046 343.293C666.982 342.884 665.848 342.688 664.708 342.716C664.184 342.715 663.661 342.769 663.148 342.878C662.59 342.275 661.913 341.796 661.158 341.47C660.404 341.145 659.59 340.981 658.769 340.99L622.152 341.935C621.848 341.946 621.546 341.983 621.249 342.047C620.446 342.196 619.684 342.516 619.015 342.985C618.346 343.453 617.785 344.06 617.371 344.763C616.956 345.466 616.696 346.25 616.61 347.062C616.524 347.874 616.612 348.695 616.87 349.47L623.233 396.196ZM662.027 356.839L664.424 348.259C664.696 347.268 664.703 346.223 664.442 345.228C664.558 345.228 664.661 345.173 664.777 345.172C666.421 345.139 668.011 345.757 669.198 346.894C670.386 348.03 671.075 349.59 671.113 351.233C671.152 352.876 670.537 354.467 669.404 355.657C668.27 356.847 666.711 357.54 665.068 357.583C664.005 357.616 662.954 357.359 662.027 356.839Z" fill="#2F2E41"/>
<path d="M621.249 342.047C622.029 346.506 630.8 349.64 641.346 349.095C651.044 348.649 658.973 345.245 660.426 341.21C659.888 341.052 659.329 340.977 658.768 340.99L622.152 341.935C621.848 341.946 621.546 341.984 621.249 342.047V342.047Z" fill="#3F3D56"/>
<path d="M643.278 376.41C643.327 376.398 643.373 376.378 643.414 376.35L648.584 372.968C648.646 372.927 648.697 372.872 648.733 372.806C648.769 372.741 648.787 372.667 648.787 372.593C648.787 372.518 648.769 372.445 648.733 372.379C648.698 372.313 648.646 372.258 648.584 372.217L643.211 368.699C643.161 368.666 643.106 368.644 643.048 368.633C642.99 368.621 642.93 368.622 642.872 368.634C642.815 368.646 642.76 368.669 642.711 368.702C642.662 368.735 642.62 368.778 642.587 368.827C642.555 368.877 642.533 368.932 642.522 368.99C642.511 369.048 642.511 369.108 642.524 369.166C642.536 369.224 642.559 369.278 642.593 369.327C642.626 369.376 642.669 369.418 642.718 369.45L647.518 372.592L642.922 375.599C642.833 375.657 642.768 375.745 642.738 375.847C642.707 375.949 642.714 376.058 642.757 376.155C642.8 376.253 642.875 376.332 642.971 376.378C643.066 376.425 643.175 376.436 643.278 376.41H643.278Z" fill="#63BEFF"/>
<path d="M635.114 376.786C635.2 376.764 635.279 376.717 635.338 376.65C635.398 376.584 635.436 376.501 635.448 376.412C635.461 376.323 635.446 376.233 635.407 376.153C635.367 376.073 635.305 376.006 635.227 375.961L630.462 373.231L635.067 369.811C635.115 369.776 635.155 369.732 635.185 369.681C635.215 369.631 635.235 369.575 635.244 369.516C635.252 369.458 635.249 369.398 635.235 369.341C635.221 369.284 635.195 369.23 635.16 369.183C635.125 369.136 635.081 369.096 635.03 369.066C634.98 369.035 634.923 369.015 634.865 369.007C634.807 368.998 634.747 369.001 634.69 369.016C634.633 369.03 634.579 369.055 634.532 369.091L629.375 372.919C629.316 372.964 629.268 373.022 629.236 373.09C629.205 373.157 629.19 373.232 629.195 373.306C629.199 373.38 629.222 373.453 629.261 373.516C629.3 373.579 629.355 373.632 629.42 373.669L634.78 376.741C634.881 376.799 635.001 376.815 635.114 376.786V376.786Z" fill="#63BEFF"/>
<path d="M642.764 379.374C642.808 379.363 642.849 379.346 642.887 379.322C642.938 379.292 642.982 379.251 643.017 379.204C643.052 379.156 643.077 379.102 643.091 379.045C643.105 378.987 643.107 378.928 643.098 378.87C643.089 378.811 643.069 378.755 643.038 378.705L635.71 366.662C635.648 366.56 635.548 366.487 635.432 366.459C635.316 366.431 635.194 366.45 635.092 366.512C634.991 366.574 634.918 366.674 634.89 366.79C634.861 366.905 634.88 367.027 634.942 367.129L642.27 379.173C642.32 379.254 642.395 379.318 642.484 379.355C642.573 379.391 642.671 379.398 642.764 379.374Z" fill="#63BEFF"/>
<path d="M230.784 234.274H191.076C189.456 234.274 188.143 235.587 188.143 237.206V241.084C188.143 242.703 189.456 244.016 191.076 244.016H230.784C232.404 244.016 233.717 242.703 233.717 241.084V237.206C233.717 235.587 232.404 234.274 230.784 234.274Z" fill="#63BEFF"/>
<path d="M253.93 253.757H167.931C166.311 253.757 164.998 255.07 164.998 256.689V260.567C164.998 262.186 166.311 263.499 167.931 263.499H253.93C255.549 263.499 256.863 262.186 256.863 260.567V256.689C256.863 255.07 255.549 253.757 253.93 253.757Z" fill="#E6E6E6"/>
<path d="M253.93 273.24H167.931C166.311 273.24 164.998 274.553 164.998 276.172V280.05C164.998 281.669 166.311 282.982 167.931 282.982H253.93C255.549 282.982 256.863 281.669 256.863 280.05V276.172C256.863 274.553 255.549 273.24 253.93 273.24Z" fill="#E6E6E6"/>
<path d="M261.22 338.482L261.414 339.096L261.425 339.117L267.288 356.935L274.033 377.469L286.723 416.057L286.846 422.051V422.071L287.789 470.291L285.175 476.828L288.117 487.545C288.117 487.545 286.764 471.345 279.506 480.648C275.396 485.935 270.588 491.345 266.642 496.417C272.393 498.743 278.235 500.847 284.17 502.729C285.452 503.139 286.743 503.528 288.035 503.918C288.311 504 288.588 504.082 288.865 504.164C308.539 509.979 328.877 513.247 349.383 513.887C350.449 513.918 351.495 513.939 352.51 513.959C352.869 513.969 353.217 513.98 353.565 513.98C354.714 513.99 355.851 514 356.999 514C359.316 514 361.622 513.966 363.918 513.898C380.913 513.419 397.808 511.135 414.32 507.084C414.207 500.27 413.899 492.309 413.459 483.804C413.254 479.634 408.651 475.115 408.374 470.75C408.18 467.471 412.311 464.387 412.095 461.057C410.701 440.554 408.959 448.425 407.667 433.906C407.534 432.482 407.411 431.119 407.298 429.818C406.468 420.493 405.894 414.663 405.894 414.663L411.409 379.918L420.07 325.366L419.404 324.27L418.656 323.901L372.969 301.298L370.489 294.945C369.766 293.115 368.512 291.543 366.888 290.431C365.264 289.319 363.345 288.718 361.376 288.705L331.281 288.582C329.719 288.575 328.178 288.94 326.786 289.648C325.394 290.355 324.19 291.385 323.276 292.65L315.126 303.931L261.22 338.482Z" fill="#3F3D56"/>
<path d="M293.662 407.47L286.846 422.051L282.192 432.01L274.186 473.907L270.179 478.16L266.745 463.106L230.805 471.083C229.626 464.536 230.489 471.305 229.761 464.122C229.966 463.917 230.181 463.712 230.397 463.507C230.971 462.974 231.452 462.472 231.442 461.991C231.032 437.215 232.262 395.052 242.533 369.508C244.142 365.337 246.263 361.382 248.847 357.734C249.052 357.458 249.247 357.181 249.442 356.905C254.178 350.275 257.171 343.748 261.414 339.107V339.096C261.441 339.075 261.465 339.051 261.486 339.025C261.502 339.017 261.515 339.007 261.527 338.994L290.679 323.542L291.93 358.667L292.822 383.914L293.662 407.47Z" fill="#3F3D56"/>
<path d="M398.779 411.612L407.294 429.822L410.266 436.165L418.269 478.058L422.264 482.3L425.706 467.25L427.323 466.919L456.489 460.881L464.99 487.868C466.906 484.677 467.66 480.922 467.126 477.239C466.592 473.556 464.803 470.17 462.059 467.654C461.479 467.129 460.995 466.617 461.009 466.134C461.492 436.994 459.709 383.784 443.606 361.884C438.492 354.934 435.423 348.011 430.958 343.175C430.945 343.162 430.945 343.148 430.931 343.148L420.066 325.365L419.403 324.274L418.656 323.901L398.779 411.612Z" fill="#3F3D56"/>
<path d="M347.198 280.021C369.31 280.021 387.236 262.102 387.236 239.999C387.236 217.895 369.31 199.977 347.198 199.977C325.086 199.977 307.16 217.895 307.16 239.999C307.16 262.102 325.086 280.021 347.198 280.021Z" fill="#FFB6B6"/>
<path d="M401.314 212.043C401.004 211.712 400.63 211.446 400.214 211.263C399.799 211.079 399.351 210.981 398.897 210.974L399.499 209.304C399.696 208.778 399.749 208.209 399.653 207.655C399.557 207.102 399.315 206.584 398.953 206.154C398.591 205.725 398.122 205.399 397.592 205.211C397.063 205.022 396.493 204.978 395.941 205.082L393.748 205.504L393.955 204.04C394.034 203.495 393.97 202.939 393.769 202.426C393.568 201.913 393.236 201.461 392.808 201.115C392.379 200.768 391.867 200.54 391.323 200.451C390.779 200.363 390.221 200.417 389.705 200.609C389.235 200.794 388.729 200.872 388.226 200.836C387.722 200.8 387.233 200.652 386.793 200.403C386.353 200.161 385.97 199.826 385.672 199.421C385.374 199.016 385.168 198.551 385.068 198.058L384.304 194.376L384.224 194.178C380.504 187.981 373.351 183.472 364.599 181.819C356.809 180.337 348.821 181.091 341.12 181.801C338.065 182.088 334.614 182.412 331.739 184.172C329.295 185.681 327.228 188.699 327.651 191.744C320.058 189.418 311.917 194.061 307.883 199.918C303.102 206.888 302.32 215.618 302.195 222.444C301.853 238.594 305.187 251.806 312.079 261.722C312.582 262.441 312.708 263.941 313.705 264.444L313.498 264.112C314.613 264.669 315.745 265.567 315.322 266.528C314.109 269.294 322.169 275.411 327.848 277.432C338.209 281.124 351.984 280.809 361.67 279.48L362.011 277.189C365.507 276.713 367.969 275.806 368.661 274.387C369.883 273.345 370.925 272.411 371.833 271.549L371.842 271.54C371.86 271.522 371.895 271.495 371.913 271.477C376.289 267.282 377.305 264.893 377.763 261.255C378.203 257.69 377.422 254.07 376.622 250.809C393.461 253.414 369.99 232.881 385.679 228.911C385.859 228.856 386.042 228.811 386.227 228.777C386.686 228.669 387.144 228.561 387.584 228.435C389.707 227.859 391.739 226.992 393.622 225.858C398.007 223.19 399.454 219.651 401.718 215.663C402.045 215.095 402.182 214.438 402.109 213.787C402.037 213.136 401.758 212.525 401.314 212.043V212.043Z" fill="#2F2E41"/>
<path d="M488.806 414.461C488.797 416.033 488.779 418.233 488.707 420.955C488.698 421.332 488.689 421.718 488.68 422.114C488.564 427.117 488.447 431.311 488.258 435.973C488.249 436.296 488.24 436.611 488.222 436.934C487.971 443.437 487.575 451.009 486.892 463C485.625 485.149 483.415 466.044 481.196 473.814C481.088 474.2 480.971 474.658 480.863 475.197C480.527 477.152 479.96 479.061 479.174 480.883C477.997 481.583 476.784 482.257 475.589 482.931C472.183 484.826 468.724 486.649 465.237 488.383C463.278 489.353 461.311 490.305 459.334 491.221C459.019 491.365 458.714 491.508 458.408 491.643C448.285 496.324 437.852 500.303 427.184 503.553C425.099 504.182 423.023 504.793 420.921 505.359C418.728 505.969 416.536 506.544 414.316 507.083C397.805 511.135 380.911 513.42 363.916 513.9C361.625 513.972 359.316 513.999 356.997 513.999C355.847 513.999 354.715 513.99 353.565 513.981C353.215 513.981 352.864 513.972 352.514 513.963C351.498 513.936 350.447 513.918 349.387 513.891C328.881 513.252 308.542 509.983 288.869 504.164L288.033 503.921C286.74 503.526 285.455 503.14 284.17 502.727C278.239 500.85 272.396 498.748 266.639 496.422C262.245 494.652 257.902 492.754 253.61 490.727C253.571 490.716 253.534 490.698 253.502 490.673C252.603 490.26 251.696 489.829 250.797 489.389C250.681 489.326 250.555 489.263 250.429 489.2C247.077 487.565 243.762 485.853 240.482 484.062C237.723 477.73 233.842 476.517 231.434 470.949C230.733 469.294 230.226 467.564 229.924 465.793C229.924 465.775 229.915 465.757 229.915 465.73C230.167 469.071 228.846 459.802 229.906 465.694C229.897 465.586 229.888 465.47 229.879 465.335C229.852 465.012 229.816 464.616 229.762 464.122C226.68 434.042 226.878 399.641 225.539 371.294C225.449 369.461 225.356 367.707 225.261 366.03C225.234 365.473 225.198 364.926 225.162 364.387C225.225 364.225 225.296 364.054 225.377 363.893C225.395 363.846 225.416 363.801 225.44 363.758C225.467 363.702 225.497 363.648 225.53 363.596C225.548 363.569 225.575 363.533 225.593 363.506C225.606 363.475 225.621 363.446 225.638 363.417C225.719 363.291 225.809 363.156 225.907 363.03C225.952 362.976 225.988 362.931 226.033 362.887C226.064 362.841 226.1 362.799 226.141 362.761C226.169 362.718 226.202 362.678 226.24 362.644C226.276 362.608 226.312 362.563 226.357 362.518C226.376 362.49 226.4 362.466 226.429 362.447C226.5 362.365 226.578 362.29 226.662 362.222C226.983 361.927 227.325 361.657 227.687 361.414C227.812 361.333 227.947 361.252 228.073 361.162C228.979 360.621 229.932 360.164 230.921 359.797C231.263 359.671 231.604 359.554 231.973 359.429C232.107 359.393 232.233 359.348 232.368 359.303C232.566 359.24 232.763 359.177 232.97 359.132C233.994 358.827 235.1 358.566 236.295 358.324C236.439 358.297 236.591 358.27 236.744 358.234C236.96 358.189 237.184 358.153 237.409 358.117C237.714 358.063 238.029 358.009 238.343 357.956C241.012 357.533 244.04 357.219 247.383 357.012C247.697 356.994 248.012 356.977 248.326 356.959C248.695 356.941 249.063 356.923 249.441 356.905C249.755 356.887 250.079 356.878 250.402 356.869C250.717 356.851 251.04 356.842 251.372 356.833C252.28 356.806 253.215 356.779 254.167 356.761C256.881 356.707 259.738 356.725 262.739 356.788C264.132 356.824 265.552 356.86 267.007 356.923C267.106 356.923 267.196 356.932 267.286 356.932C268.553 356.976 269.829 357.03 271.141 357.102C272.057 357.147 272.983 357.192 273.908 357.246C274.78 357.3 275.66 357.354 276.55 357.417C277.242 357.453 277.934 357.506 278.635 357.551C279.228 357.596 279.821 357.641 280.414 357.677L281.222 357.731C281.663 357.767 282.103 357.794 282.552 357.839C283.541 357.92 284.529 358 285.535 358.081C286.533 358.171 287.548 358.261 288.564 358.351C289.579 358.441 290.603 358.539 291.628 358.638C291.735 358.647 291.834 358.656 291.933 358.665C292.868 358.764 293.802 358.854 294.746 358.953C294.961 358.97 295.186 358.988 295.402 359.015C296.301 359.106 297.218 359.211 298.126 359.308C298.405 359.338 298.682 359.367 298.961 359.398C299.672 359.475 300.373 359.542 301.089 359.626C302.033 359.734 302.994 359.833 303.929 359.958C304.657 360.039 305.384 360.12 306.112 360.21C307.253 360.345 308.413 360.488 309.572 360.641C310.012 360.695 310.452 360.749 310.893 360.812C314.199 361.225 317.542 361.683 320.938 362.159C326.087 362.887 331.317 363.677 336.582 364.53C341.857 365.384 347.161 366.285 352.496 367.234C353.843 367.476 355.191 367.719 356.548 367.97C357.159 368.087 357.77 368.204 358.381 368.321C359.423 368.509 360.466 368.707 361.508 368.904C362.55 369.102 363.593 369.3 364.635 369.506C365.875 369.749 367.124 369.991 368.364 370.234C376.532 371.851 384.655 373.575 392.58 375.381C393.883 375.677 395.186 375.982 396.48 376.279C399.068 376.88 401.632 377.491 404.171 378.111C404.872 378.273 405.564 378.443 406.256 378.614C407.981 379.045 409.707 379.476 411.405 379.916L411.701 379.997C412.95 380.303 414.172 380.617 415.394 380.94C418.279 381.695 421.115 382.458 423.904 383.231C425.755 383.743 427.585 384.261 429.394 384.785C432.099 385.566 434.749 386.356 437.328 387.156C437.966 387.353 438.604 387.551 439.233 387.74C441.12 388.323 442.98 388.916 444.786 389.509C446.224 389.976 447.625 390.452 449.009 390.928C450.393 391.404 451.75 391.88 453.08 392.356C453.933 392.662 454.778 392.985 455.623 393.291C456.836 393.74 458.031 394.189 459.199 394.638C459.558 394.773 459.909 394.916 460.259 395.051C460.484 395.15 460.699 395.231 460.915 395.32C461.337 395.491 461.769 395.653 462.182 395.823C462.604 395.985 463.018 396.156 463.431 396.335C463.835 396.497 464.249 396.668 464.644 396.838C465.048 397 465.444 397.171 465.839 397.35C466.172 397.485 466.495 397.629 466.81 397.773C467.448 398.051 468.086 398.329 468.706 398.617C469.011 398.761 469.317 398.895 469.622 399.039L470.323 399.362C470.422 399.416 470.521 399.461 470.619 399.506C470.844 399.614 471.078 399.731 471.302 399.838C471.823 400.081 472.336 400.341 472.839 400.584C473.513 400.925 474.169 401.267 474.798 401.599C475.436 401.94 476.056 402.281 476.649 402.614C476.748 402.668 476.837 402.722 476.936 402.776C477.071 402.847 477.206 402.928 477.341 403C477.799 403.261 478.239 403.53 478.68 403.79C479.542 404.32 480.36 404.841 481.124 405.362C481.294 405.479 481.456 405.596 481.627 405.704C482.193 406.108 482.732 406.503 483.235 406.907C483.235 406.916 483.235 406.916 483.244 406.916C483.415 407.042 483.577 407.177 483.738 407.302C483.873 407.428 484.017 407.536 484.152 407.662C484.619 408.066 485.05 408.452 485.446 408.847C485.578 408.969 485.704 409.098 485.823 409.233C485.875 409.277 485.923 409.325 485.967 409.377C486.146 409.557 486.308 409.736 486.461 409.916C486.485 409.941 486.506 409.968 486.524 409.997C486.74 410.248 486.937 410.5 487.126 410.751C487.216 410.877 487.315 411.003 487.395 411.129C487.503 411.281 487.611 411.443 487.701 411.596C487.782 411.721 487.854 411.856 487.926 411.982C488.116 412.306 488.279 412.645 488.411 412.997C488.512 413.235 488.593 413.482 488.653 413.733C488.722 413.972 488.773 414.215 488.806 414.461V414.461Z" fill="#2F2E41"/>
<path opacity="0.2" d="M488.806 414.461C488.797 416.033 488.779 418.233 488.707 420.955C488.698 421.332 488.68 421.718 488.671 422.114C488.582 425.931 488.447 430.646 488.258 435.973C488.249 436.296 488.24 436.61 488.222 436.934C487.971 443.437 487.575 451.009 486.892 463C485.625 485.149 483.415 466.044 481.195 473.814C475.031 470.023 468.274 466.053 461.05 461.976C459.747 461.239 458.432 460.5 457.105 459.757C442.657 451.7 426.518 443.257 409.671 434.895C409.006 434.563 408.332 434.23 407.667 433.907C369.074 414.838 326.95 396.29 292.823 383.913C286.236 381.524 279.946 379.368 274.034 377.473C261.58 373.494 250.815 370.71 242.531 369.506C233.904 368.249 227.947 368.698 225.539 371.294C225.449 369.461 225.356 367.707 225.26 366.03C225.224 365.473 225.188 364.925 225.153 364.386C225.208 364.239 225.28 364.098 225.35 363.955C225.36 363.934 225.367 363.913 225.377 363.892C225.394 363.846 225.415 363.801 225.44 363.758C225.467 363.702 225.497 363.648 225.53 363.596C225.559 363.532 225.595 363.472 225.638 363.416C225.719 363.291 225.809 363.156 225.907 363.03C225.98 362.936 226.058 362.846 226.141 362.761C226.169 362.718 226.202 362.678 226.24 362.644C226.276 362.608 226.312 362.563 226.357 362.518C226.376 362.49 226.4 362.466 226.429 362.446C226.5 362.365 226.578 362.29 226.662 362.222C226.983 361.927 227.325 361.657 227.687 361.413C227.812 361.333 227.947 361.252 228.073 361.162C228.978 360.62 229.932 360.163 230.921 359.797C231.263 359.671 231.604 359.554 231.973 359.428C232.107 359.392 232.233 359.348 232.368 359.303C232.566 359.24 232.763 359.177 232.97 359.132C233.994 358.827 235.1 358.566 236.295 358.324C236.654 358.252 237.031 358.18 237.409 358.117C237.714 358.063 238.029 358.009 238.343 357.955C241.012 357.533 244.04 357.219 247.383 357.012C247.697 356.994 248.012 356.976 248.326 356.958C248.695 356.94 249.063 356.922 249.44 356.904C249.755 356.887 250.078 356.878 250.402 356.869C250.716 356.851 251.04 356.842 251.372 356.833C252.28 356.806 253.214 356.779 254.167 356.761C256.881 356.716 259.738 356.734 262.739 356.797C264.132 356.824 265.552 356.869 267.007 356.931C267.097 356.931 267.196 356.94 267.286 356.94C268.553 356.976 269.838 357.039 271.141 357.102C272.057 357.147 272.983 357.192 273.908 357.246C274.78 357.3 275.66 357.354 276.55 357.416C277.242 357.452 277.934 357.506 278.634 357.551C279.227 357.596 279.821 357.641 280.414 357.677C281.123 357.731 281.833 357.785 282.552 357.839C283.541 357.919 284.529 358 285.535 358.081C286.533 358.171 287.548 358.261 288.564 358.351C289.579 358.44 290.603 358.539 291.628 358.638C291.735 358.647 291.834 358.656 291.933 358.665C292.868 358.764 293.802 358.854 294.746 358.952C299.975 359.482 305.357 360.102 310.893 360.812C314.199 361.234 317.548 361.686 320.938 362.168C326.087 362.895 331.317 363.686 336.582 364.53C341.857 365.383 347.161 366.285 352.496 367.234C353.843 367.476 355.191 367.719 356.548 367.97C358.201 368.276 359.855 368.587 361.508 368.904C362.55 369.102 363.593 369.3 364.635 369.506C365.875 369.749 367.124 369.991 368.364 370.234C376.532 371.85 384.655 373.575 392.58 375.38C393.883 375.677 395.186 375.982 396.48 376.279C399.068 376.88 401.632 377.491 404.171 378.111C404.872 378.282 405.564 378.452 406.256 378.623C407.99 379.054 409.706 379.485 411.405 379.916V379.925C411.504 379.943 411.602 379.97 411.701 379.997C412.941 380.312 414.172 380.626 415.394 380.949C418.279 381.704 421.115 382.464 423.904 383.231C425.755 383.752 427.588 384.264 429.394 384.785C432.098 385.575 434.749 386.365 437.328 387.156C437.966 387.353 438.604 387.551 439.233 387.74C441.12 388.332 442.971 388.922 444.786 389.509C446.224 389.976 447.625 390.452 449.009 390.928C450.393 391.404 451.75 391.88 453.08 392.356C453.942 392.662 454.787 392.976 455.623 393.281C456.845 393.731 458.031 394.18 459.199 394.638C459.558 394.772 459.909 394.916 460.259 395.051C460.915 395.302 461.553 395.563 462.182 395.823C462.604 395.985 463.018 396.156 463.431 396.335C463.835 396.497 464.249 396.668 464.644 396.838C465.048 397 465.444 397.171 465.839 397.35C466.172 397.485 466.495 397.629 466.81 397.772C467.448 398.051 468.086 398.329 468.706 398.617C469.011 398.76 469.317 398.895 469.622 399.039L470.323 399.362C470.422 399.416 470.521 399.461 470.619 399.506C471.383 399.865 472.12 400.225 472.839 400.584C473.513 400.925 474.169 401.266 474.798 401.599C475.544 401.994 476.253 402.38 476.936 402.775C477.071 402.847 477.206 402.928 477.341 403C477.799 403.26 478.239 403.53 478.679 403.79C479.542 404.32 480.36 404.841 481.124 405.362C481.878 405.883 482.579 406.395 483.235 406.907C483.235 406.916 483.235 406.916 483.244 406.916C483.559 407.168 483.864 407.419 484.152 407.662C484.619 408.066 485.05 408.452 485.446 408.847C485.578 408.969 485.704 409.098 485.823 409.233C485.875 409.277 485.923 409.325 485.967 409.377C486.155 409.584 486.344 409.79 486.524 409.997C486.74 410.248 486.937 410.5 487.126 410.751C487.216 410.877 487.315 411.003 487.396 411.129C487.503 411.281 487.611 411.443 487.701 411.596C487.782 411.721 487.854 411.856 487.926 411.982C488.116 412.306 488.279 412.645 488.411 412.997C488.509 413.236 488.59 413.482 488.654 413.733C488.722 413.972 488.773 414.215 488.806 414.461V414.461Z" fill="black"/>
</g>
<defs>
<clipPath id="clip0_23_592">
<rect width="707" height="514" fill="white"/>
</clipPath>
</defs>
</svg>
