<svg width="708" height="364" viewBox="0 0 708 364" fill="none" xmlns="http://www.w3.org/2000/svg">
<g clip-path="url(#clip0_23_697)">
<path d="M707.06 363.919H0.940142C0.691272 363.918 0.452847 363.819 0.277123 363.643C0.1014 363.467 0.00271606 363.229 0.00271606 362.981C0.00271606 362.733 0.1014 362.495 0.277123 362.319C0.452847 362.144 0.691272 362.044 0.940142 362.044H707.06C707.309 362.044 707.547 362.144 707.723 362.319C707.899 362.495 707.997 362.733 707.997 362.981C707.997 363.229 707.899 363.467 707.723 363.643C707.547 363.819 707.309 363.918 707.06 363.919Z" fill="#3F3D56"/>
<path d="M221.362 45.2348C224.182 45.2348 226.468 42.955 226.468 40.1427C226.468 37.3304 224.182 35.0505 221.362 35.0505C218.542 35.0505 216.256 37.3304 216.256 40.1427C216.256 42.955 218.542 45.2348 221.362 45.2348Z" fill="#F2F2F2"/>
<path d="M201.012 45.2348C203.832 45.2348 206.118 42.955 206.118 40.1427C206.118 37.3304 203.832 35.0505 201.012 35.0505C198.192 35.0505 195.906 37.3304 195.906 40.1427C195.906 42.955 198.192 45.2348 201.012 45.2348Z" fill="#F2F2F2"/>
<path d="M180.662 45.2348C183.482 45.2348 185.768 42.955 185.768 40.1427C185.768 37.3304 183.482 35.0505 180.662 35.0505C177.842 35.0505 175.556 37.3304 175.556 40.1427C175.556 42.955 177.842 45.2348 180.662 45.2348Z" fill="#F2F2F2"/>
<path d="M160.312 45.2348C163.132 45.2348 165.418 42.955 165.418 40.1427C165.418 37.3304 163.132 35.0505 160.312 35.0505C157.492 35.0505 155.206 37.3304 155.206 40.1427C155.206 42.955 157.492 45.2348 160.312 45.2348Z" fill="#F2F2F2"/>
<path d="M221.362 66.4951C224.182 66.4951 226.468 64.2152 226.468 61.4029C226.468 58.5906 224.182 56.3108 221.362 56.3108C218.542 56.3108 216.256 58.5906 216.256 61.4029C216.256 64.2152 218.542 66.4951 221.362 66.4951Z" fill="#F2F2F2"/>
<path d="M201.012 66.4951C203.832 66.4951 206.118 64.2152 206.118 61.4029C206.118 58.5906 203.832 56.3108 201.012 56.3108C198.192 56.3108 195.906 58.5906 195.906 61.4029C195.906 64.2152 198.192 66.4951 201.012 66.4951Z" fill="#F2F2F2"/>
<path d="M180.662 66.4951C183.482 66.4951 185.768 64.2152 185.768 61.4029C185.768 58.5906 183.482 56.3108 180.662 56.3108C177.842 56.3108 175.556 58.5906 175.556 61.4029C175.556 64.2152 177.842 66.4951 180.662 66.4951Z" fill="#F2F2F2"/>
<path d="M160.312 66.4951C163.132 66.4951 165.418 64.2152 165.418 61.4029C165.418 58.5906 163.132 56.3108 160.312 56.3108C157.492 56.3108 155.206 58.5906 155.206 61.4029C155.206 64.2152 157.492 66.4951 160.312 66.4951Z" fill="#F2F2F2"/>
<path d="M221.362 87.7553C224.182 87.7553 226.468 85.4755 226.468 82.6632C226.468 79.8509 224.182 77.571 221.362 77.571C218.542 77.571 216.256 79.8509 216.256 82.6632C216.256 85.4755 218.542 87.7553 221.362 87.7553Z" fill="#F2F2F2"/>
<path d="M201.012 87.7553C203.832 87.7553 206.118 85.4755 206.118 82.6632C206.118 79.8509 203.832 77.571 201.012 77.571C198.192 77.571 195.906 79.8509 195.906 82.6632C195.906 85.4755 198.192 87.7553 201.012 87.7553Z" fill="#F2F2F2"/>
<path d="M180.662 87.7553C183.482 87.7553 185.768 85.4755 185.768 82.6632C185.768 79.8509 183.482 77.571 180.662 77.571C177.842 77.571 175.556 79.8509 175.556 82.6632C175.556 85.4755 177.842 87.7553 180.662 87.7553Z" fill="#F2F2F2"/>
<path d="M160.312 87.7553C163.132 87.7553 165.418 85.4755 165.418 82.6632C165.418 79.8509 163.132 77.571 160.312 77.571C157.492 77.571 155.206 79.8509 155.206 82.6632C155.206 85.4755 157.492 87.7553 160.312 87.7553Z" fill="#F2F2F2"/>
<path d="M221.362 109.015C224.182 109.015 226.468 106.735 226.468 103.923C226.468 101.111 224.182 98.8311 221.362 98.8311C218.542 98.8311 216.256 101.111 216.256 103.923C216.256 106.735 218.542 109.015 221.362 109.015Z" fill="#F2F2F2"/>
<path d="M201.012 109.015C203.832 109.015 206.118 106.735 206.118 103.923C206.118 101.111 203.832 98.8311 201.012 98.8311C198.192 98.8311 195.906 101.111 195.906 103.923C195.906 106.735 198.192 109.015 201.012 109.015Z" fill="#F2F2F2"/>
<path d="M180.662 109.015C183.482 109.015 185.768 106.735 185.768 103.923C185.768 101.111 183.482 98.8311 180.662 98.8311C177.842 98.8311 175.556 101.111 175.556 103.923C175.556 106.735 177.842 109.015 180.662 109.015Z" fill="#F2F2F2"/>
<path d="M160.312 109.015C163.132 109.015 165.418 106.735 165.418 103.923C165.418 101.111 163.132 98.8311 160.312 98.8311C157.492 98.8311 155.206 101.111 155.206 103.923C155.206 106.735 157.492 109.015 160.312 109.015Z" fill="#F2F2F2"/>
<path d="M221.362 130.276C224.182 130.276 226.468 127.996 226.468 125.183C226.468 122.371 224.182 120.091 221.362 120.091C218.542 120.091 216.256 122.371 216.256 125.183C216.256 127.996 218.542 130.276 221.362 130.276Z" fill="#F2F2F2"/>
<path d="M201.012 130.276C203.832 130.276 206.118 127.996 206.118 125.183C206.118 122.371 203.832 120.091 201.012 120.091C198.192 120.091 195.906 122.371 195.906 125.183C195.906 127.996 198.192 130.276 201.012 130.276Z" fill="#F2F2F2"/>
<path d="M180.662 130.276C183.482 130.276 185.768 127.996 185.768 125.183C185.768 122.371 183.482 120.091 180.662 120.091C177.842 120.091 175.556 122.371 175.556 125.183C175.556 127.996 177.842 130.276 180.662 130.276Z" fill="#F2F2F2"/>
<path d="M160.312 130.276C163.132 130.276 165.418 127.996 165.418 125.183C165.418 122.371 163.132 120.091 160.312 120.091C157.492 120.091 155.206 122.371 155.206 125.183C155.206 127.996 157.492 130.276 160.312 130.276Z" fill="#F2F2F2"/>
<path d="M221.362 151.536C224.182 151.536 226.468 149.256 226.468 146.444C226.468 143.631 224.182 141.352 221.362 141.352C218.542 141.352 216.256 143.631 216.256 146.444C216.256 149.256 218.542 151.536 221.362 151.536Z" fill="#F2F2F2"/>
<path d="M201.012 151.536C203.832 151.536 206.118 149.256 206.118 146.444C206.118 143.631 203.832 141.352 201.012 141.352C198.192 141.352 195.906 143.631 195.906 146.444C195.906 149.256 198.192 151.536 201.012 151.536Z" fill="#F2F2F2"/>
<path d="M180.662 151.536C183.482 151.536 185.768 149.256 185.768 146.444C185.768 143.631 183.482 141.352 180.662 141.352C177.842 141.352 175.556 143.631 175.556 146.444C175.556 149.256 177.842 151.536 180.662 151.536Z" fill="#F2F2F2"/>
<path d="M160.312 151.536C163.132 151.536 165.418 149.256 165.418 146.444C165.418 143.631 163.132 141.352 160.312 141.352C157.492 141.352 155.206 143.631 155.206 146.444C155.206 149.256 157.492 151.536 160.312 151.536Z" fill="#F2F2F2"/>
<path d="M176.494 285.359V286.934C176.496 289.544 177.537 292.046 179.387 293.891C181.238 295.737 183.747 296.775 186.364 296.777H257.426C260.044 296.776 262.554 295.739 264.404 293.893C266.255 292.047 267.295 289.544 267.296 286.934V285.359C267.301 283.056 266.49 280.825 265.006 279.06C264.512 278.474 263.953 277.946 263.34 277.485C263.34 277.485 224.272 276.603 224.272 275.517H186.364C183.747 275.52 181.239 276.558 179.389 278.403C177.539 280.249 176.498 282.75 176.494 285.359V285.359Z" fill="#CCCCCC"/>
<path d="M227.599 296.386H217.334V362.529H227.599V296.386Z" fill="#CCCCCC"/>
<path d="M256.813 362.169C256.813 363.275 241.259 362.597 222.072 362.597C202.884 362.597 187.33 363.275 187.33 362.169C187.33 361.063 202.884 352.292 222.072 352.292C241.259 352.292 256.813 361.063 256.813 362.169Z" fill="#CCCCCC"/>
<path d="M242.701 284.024C243.442 283.032 243.956 281.891 244.207 280.679C244.458 279.468 244.439 278.217 244.152 277.014C243.866 275.811 243.318 274.685 242.548 273.716C241.778 272.746 240.804 271.957 239.695 271.404L217.94 197.477L201.374 205.569L227.967 275.692C227.159 277.611 227.084 279.76 227.758 281.731C228.432 283.701 229.807 285.357 231.623 286.384C233.439 287.411 235.57 287.738 237.612 287.303C239.654 286.868 241.464 285.701 242.701 284.024L242.701 284.024Z" fill="#A0616A"/>
<path d="M222.868 209.823L204.327 214.828C203.799 214.971 203.247 214.998 202.708 214.909C202.169 214.819 201.656 214.615 201.203 214.309C200.75 214.004 200.369 213.605 200.084 213.139C199.8 212.674 199.62 212.153 199.556 211.611L197.315 192.645C196.6 189.949 196.986 187.08 198.388 184.668C199.79 182.255 202.095 180.495 204.796 179.775C207.497 179.054 210.375 179.431 212.798 180.823C215.221 182.214 216.992 184.508 217.722 187.199L225.361 204.645C225.579 205.145 225.687 205.685 225.677 206.23C225.667 206.775 225.54 207.312 225.303 207.803C225.067 208.295 224.727 208.729 224.307 209.078C223.887 209.426 223.396 209.681 222.868 209.823H222.868Z" fill="#63BEFF"/>
<path d="M247.547 354.417L257.227 354.416L261.833 329.379H247.545L247.547 354.417Z" fill="#A0616A"/>
<path d="M245.078 351.265L264.141 351.264H264.142C265.737 351.264 267.317 351.577 268.791 352.186C270.265 352.795 271.605 353.687 272.733 354.812C273.861 355.937 274.756 357.273 275.366 358.743C275.977 360.213 276.291 361.788 276.291 363.379V363.773L245.078 363.774L245.078 351.265Z" fill="#2F2E41"/>
<path d="M258.783 340.99C258.67 340.99 258.557 340.985 258.443 340.974L245.047 340.002C244.505 339.951 243.982 339.778 243.518 339.494C243.054 339.211 242.662 338.825 242.371 338.366C242.081 337.907 241.9 337.388 241.842 336.849C241.784 336.309 241.852 335.763 242.039 335.254L259.968 295.084C260.096 294.726 260.148 294.345 260.122 293.966C260.095 293.587 259.99 293.217 259.813 292.88C259.636 292.54 259.39 292.24 259.089 292.001C258.788 291.762 258.44 291.59 258.067 291.495C249.636 289.297 228.006 283.445 209.281 276.598C201.259 273.665 196.207 269.426 194.265 263.998C191.704 256.843 195.492 250.318 195.655 250.044L195.782 249.829L213.401 251.426L232.502 253.047L274.36 275.431C277.868 277.323 280.532 280.462 281.822 284.225C283.113 287.987 282.935 292.097 281.323 295.734L262.025 338.89C261.746 339.515 261.291 340.046 260.716 340.419C260.141 340.792 259.469 340.99 258.783 340.99V340.99Z" fill="#2F2E41"/>
<path d="M216.465 171.953C227.175 171.953 235.858 163.295 235.858 152.614C235.858 141.933 227.175 133.274 216.465 133.274C205.754 133.274 197.072 141.933 197.072 152.614C197.072 163.295 205.754 171.953 216.465 171.953Z" fill="#A0616A"/>
<path d="M242.02 353.629L251.7 353.628L256.306 328.592H242.018L242.02 353.629Z" fill="#A0616A"/>
<path d="M239.551 350.477L258.614 350.477H258.615C260.21 350.477 261.79 350.79 263.264 351.399C264.738 352.008 266.077 352.9 267.206 354.025C268.334 355.15 269.229 356.486 269.839 357.955C270.45 359.425 270.764 361.001 270.764 362.592V362.986L239.551 362.987L239.551 350.477Z" fill="#2F2E41"/>
<path d="M253.256 343.353C253.143 343.353 253.03 343.347 252.916 343.337L239.52 342.364C238.978 342.314 238.455 342.14 237.991 341.857C237.527 341.573 237.135 341.187 236.844 340.728C236.554 340.27 236.373 339.75 236.315 339.211C236.257 338.671 236.325 338.126 236.512 337.616L254.441 297.447C254.569 297.088 254.621 296.708 254.595 296.328C254.568 295.949 254.463 295.58 254.286 295.243C254.109 294.902 253.862 294.602 253.562 294.363C253.261 294.125 252.912 293.952 252.54 293.857C244.109 291.659 222.479 285.808 203.754 278.961C195.732 276.027 190.68 271.788 188.737 266.361C186.177 259.205 189.965 252.68 190.127 252.406L190.255 252.192L207.874 253.789L226.975 255.409L268.833 277.793C272.341 279.685 275.005 282.825 276.295 286.587C277.586 290.35 277.408 294.459 275.796 298.096L256.498 341.253C256.219 341.878 255.764 342.409 255.189 342.781C254.613 343.154 253.942 343.353 253.256 343.353V343.353Z" fill="#2F2E41"/>
<path d="M222.445 182.92L201.916 175.833C201.916 175.833 189.029 185.707 195.22 210.203C198.452 222.843 197.511 236.186 192.535 248.251C191.936 249.744 191.246 251.198 190.467 252.606C190.467 252.606 213.365 280.166 234.684 259.693L226.393 219.929C226.393 219.929 239.422 193.55 222.445 182.92Z" fill="#2F2E41"/>
<path d="M218.872 172.611C216.112 168.491 213.934 162.778 216.973 158.858C219.973 154.989 225.889 155.559 230.483 153.847C236.882 151.462 240.593 143.965 239.436 137.251C238.278 130.538 232.874 124.972 226.436 122.695C219.998 120.418 212.738 121.158 206.433 123.781C198.672 127.009 192.015 133.253 189.223 141.164C186.431 149.074 187.923 158.572 193.715 164.652C199.924 171.171 209.669 172.908 218.684 172.802" fill="#2F2E41"/>
<path d="M200.833 137.467C197.355 140.29 192.048 139.036 188.315 136.558C184.582 134.08 181.552 130.551 177.513 128.609C170.391 125.183 161.781 127.46 154.85 131.254C147.919 135.048 141.776 140.29 134.454 143.267C127.133 146.245 117.791 146.392 112.248 140.77C110.883 144.712 110.772 148.977 111.928 152.984C113.085 156.991 115.453 160.545 118.709 163.161C121.966 165.776 125.952 167.326 130.124 167.599C134.297 167.872 138.452 166.854 142.023 164.685C150.045 159.812 154.475 149.595 163.473 146.906C168.451 145.417 173.797 146.616 178.829 147.914C183.861 149.213 189.108 150.616 194.186 149.51C199.264 148.405 204.014 143.854 203.368 138.711L200.833 137.467Z" fill="#2F2E41"/>
<path d="M263.963 319.696C261.91 306.395 261.91 292.858 263.963 279.557C264.093 278.766 264.501 278.046 265.114 277.526C265.726 277.006 266.504 276.72 267.308 276.718H298.791C299.301 276.716 299.805 276.831 300.264 277.053C300.723 277.275 301.126 277.598 301.44 277.999C301.762 278.404 301.987 278.878 302.097 279.384C302.208 279.889 302.201 280.413 302.078 280.916C299.133 293.217 299.133 306.036 302.078 318.338C302.201 318.84 302.208 319.364 302.097 319.87C301.987 320.375 301.762 320.849 301.44 321.255C301.126 321.655 300.723 321.978 300.264 322.2C299.805 322.422 299.301 322.537 298.791 322.535H267.308C266.504 322.534 265.726 322.247 265.114 321.727C264.501 321.208 264.093 320.488 263.963 319.696V319.696Z" fill="#63BEFF"/>
<path d="M289.103 296.149H272.582C271.954 296.148 271.352 295.899 270.908 295.456C270.464 295.013 270.214 294.413 270.213 293.786V292.864C270.214 292.237 270.464 291.637 270.908 291.194C271.352 290.751 271.954 290.502 272.582 290.501H289.103C289.731 290.502 290.333 290.751 290.777 291.194C291.221 291.637 291.471 292.237 291.472 292.864V293.786C291.471 294.413 291.221 295.013 290.777 295.456C290.333 295.899 289.731 296.148 289.103 296.149Z" fill="white"/>
<path d="M289.103 305.869H272.582C271.954 305.868 271.352 305.619 270.908 305.176C270.464 304.734 270.214 304.133 270.213 303.507V302.584C270.214 301.957 270.464 301.357 270.908 300.914C271.352 300.471 271.954 300.222 272.582 300.221H289.103C289.731 300.222 290.333 300.471 290.777 300.914C291.221 301.357 291.471 301.957 291.472 302.584V303.507C291.471 304.133 291.221 304.734 290.777 305.176C290.333 305.619 289.731 305.868 289.103 305.869Z" fill="white"/>
<path d="M272.242 280.481C272.711 279.336 272.923 278.103 272.862 276.867C272.801 275.632 272.47 274.425 271.891 273.332C271.312 272.238 270.5 271.284 269.511 270.538C268.523 269.791 267.382 269.27 266.17 269.01L226.584 202.848L212.57 214.811L255.888 276.084C255.586 278.144 256.052 280.243 257.198 281.984C258.345 283.724 260.091 284.984 262.107 285.526C264.123 286.068 266.268 285.854 268.136 284.924C270.004 283.994 271.465 282.413 272.242 280.481L272.242 280.481Z" fill="#A0616A"/>
<path d="M234.449 213.575L217.749 223.041C217.274 223.31 216.746 223.474 216.202 223.522C215.657 223.57 215.109 223.5 214.594 223.317C214.079 223.134 213.61 222.843 213.218 222.463C212.826 222.083 212.521 221.623 212.324 221.115L205.402 203.308C204.034 200.876 203.689 198.002 204.443 195.317C205.196 192.631 206.987 190.353 209.422 188.982C211.857 187.612 214.737 187.259 217.432 188.003C220.127 188.747 222.416 190.526 223.798 192.951L235.565 207.94C235.901 208.369 236.142 208.866 236.269 209.396C236.395 209.926 236.406 210.478 236.3 211.012C236.195 211.547 235.974 212.053 235.655 212.495C235.335 212.937 234.924 213.305 234.449 213.575V213.575Z" fill="#2F2E41"/>
<path d="M412.137 236.815H91.5658C90.2046 236.815 88.8992 237.354 87.9367 238.314C86.9742 239.274 86.4335 240.576 86.4335 241.933C86.4335 243.291 86.9742 244.592 87.9367 245.552C88.8992 246.512 90.2046 247.051 91.5658 247.051H100.646V358.471C100.646 359.828 101.187 361.13 102.149 362.09C103.112 363.05 104.417 363.589 105.778 363.589C107.139 363.589 108.445 363.05 109.407 362.09C110.37 361.13 110.911 359.828 110.911 358.471V256.886L168.448 360.886C169.13 362.059 170.251 362.914 171.565 363.264C172.878 363.613 174.277 363.429 175.454 362.751C176.631 362.073 177.491 360.957 177.844 359.648C178.197 358.339 178.015 356.944 177.338 355.768L117.191 247.051H392.002V247.118L331.892 355.768C331.212 356.944 331.027 358.341 331.379 359.652C331.732 360.963 332.592 362.081 333.771 362.76C334.949 363.438 336.35 363.622 337.665 363.271C338.98 362.92 340.101 362.062 340.781 360.886L392.002 268.304V358.471C392.002 359.828 392.543 361.13 393.506 362.09C394.468 363.05 395.773 363.589 397.135 363.589C398.496 363.589 399.801 363.05 400.764 362.09C401.726 361.13 402.267 359.828 402.267 358.471V249.75L403.76 247.051H412.137C413.498 247.051 414.803 246.512 415.766 245.552C416.728 244.592 417.269 243.291 417.269 241.933C417.269 240.576 416.728 239.274 415.766 238.314C414.803 237.354 413.498 236.815 412.137 236.815V236.815Z" fill="#3F3D56"/>
<path d="M279.487 233.665H217.11C215.583 233.665 214.346 234.899 214.346 236.421C214.346 237.943 215.583 239.177 217.11 239.177H279.487C281.013 239.177 282.25 237.943 282.25 236.421C282.25 234.899 281.013 233.665 279.487 233.665Z" fill="#CCCCCC"/>
<path d="M321.335 239.177H251.062C249.701 239.176 248.396 238.636 247.434 237.676C246.472 236.717 245.931 235.416 245.929 234.059V195.476C245.931 194.119 246.472 192.818 247.434 191.858C248.396 190.899 249.701 190.359 251.062 190.357H321.335C322.695 190.359 324 190.899 324.962 191.858C325.924 192.818 326.465 194.119 326.467 195.476V234.059C326.465 235.416 325.924 236.717 324.962 237.676C324 238.636 322.695 239.176 321.335 239.177V239.177Z" fill="#CCCCCC"/>
<path d="M286.198 219.492C288.815 219.492 290.936 217.376 290.936 214.767C290.936 212.158 288.815 210.043 286.198 210.043C283.582 210.043 281.461 212.158 281.461 214.767C281.461 217.376 283.582 219.492 286.198 219.492Z" fill="white"/>
<path d="M374.964 144.114V5.92249C374.965 4.35229 375.592 2.84692 376.705 1.73663C377.818 0.62633 379.328 0.00178605 380.902 0H490.44C492.015 0.00178605 493.524 0.62633 494.638 1.73663C495.751 2.84692 496.377 4.35229 496.379 5.92249V144.114C496.377 145.684 495.751 147.19 494.638 148.3C493.524 149.41 492.015 150.035 490.44 150.036H380.902C379.328 150.035 377.818 149.41 376.705 148.3C375.592 147.19 374.965 145.684 374.964 144.114V144.114ZM380.902 1.31611C379.678 1.31748 378.504 1.80324 377.638 2.6668C376.772 3.53037 376.285 4.70122 376.283 5.92249V144.114C376.285 145.335 376.772 146.506 377.638 147.37C378.504 148.233 379.678 148.719 380.902 148.72H490.44C491.665 148.719 492.839 148.233 493.705 147.37C494.571 146.506 495.058 145.335 495.059 144.114V5.92249C495.058 4.70122 494.571 3.53037 493.705 2.6668C492.839 1.80324 491.665 1.31748 490.44 1.31611H380.902Z" fill="#E6E6E6"/>
<path d="M441.814 63.464V35.0889C441.815 34.3038 442.128 33.5511 442.685 32.996C443.241 32.4408 443.996 32.1286 444.783 32.1277H468.895C469.682 32.1286 470.437 32.4408 470.994 32.996C471.55 33.5511 471.863 34.3038 471.864 35.0889V63.464C471.863 64.2491 471.55 65.0018 470.994 65.557C470.437 66.1121 469.682 66.4244 468.895 66.4252H444.783C443.996 66.4244 443.241 66.1121 442.685 65.557C442.128 65.0018 441.815 64.2491 441.814 63.464V63.464Z" fill="#63BEFF"/>
<path d="M394.963 76.6249V48.2498C394.964 47.4647 395.277 46.712 395.834 46.1569C396.391 45.6017 397.146 45.2894 397.933 45.2886H422.044C422.832 45.2894 423.586 45.6017 424.143 46.1569C424.7 46.712 425.013 47.4647 425.014 48.2498V76.6249C425.013 77.41 424.7 78.1627 424.143 78.7179C423.586 79.273 422.832 79.5853 422.044 79.5861H397.933C397.146 79.5853 396.391 79.273 395.834 78.7179C395.277 78.1627 394.964 77.41 394.963 76.6249V76.6249Z" fill="#CCCCCC"/>
<path d="M432.576 116.766V88.3912C432.577 87.6061 432.89 86.8534 433.446 86.2982C434.003 85.7431 434.758 85.4308 435.545 85.4299H459.657C460.444 85.4308 461.199 85.7431 461.755 86.2982C462.312 86.8534 462.625 87.6061 462.626 88.3912V116.766C462.625 117.551 462.312 118.304 461.755 118.859C461.199 119.414 460.444 119.727 459.657 119.728H435.545C434.758 119.727 434.003 119.414 433.446 118.859C432.89 118.304 432.577 117.551 432.576 116.766Z" fill="#FF6584"/>
<path d="M616.46 14.3996C619.28 14.3996 621.566 12.1198 621.566 9.30746C621.566 6.49516 619.28 4.21533 616.46 4.21533C613.64 4.21533 611.354 6.49516 611.354 9.30746C611.354 12.1198 613.64 14.3996 616.46 14.3996Z" fill="#F2F2F2"/>
<path d="M616.46 34.694C619.28 34.694 621.566 32.4142 621.566 29.6019C621.566 26.7896 619.28 24.5098 616.46 24.5098C613.64 24.5098 611.354 26.7896 611.354 29.6019C611.354 32.4142 613.64 34.694 616.46 34.694Z" fill="#F2F2F2"/>
<path d="M616.46 54.9882C619.28 54.9882 621.566 52.7084 621.566 49.8961C621.566 47.0838 619.28 44.804 616.46 44.804C613.64 44.804 611.354 47.0838 611.354 49.8961C611.354 52.7084 613.64 54.9882 616.46 54.9882Z" fill="#F2F2F2"/>
<path d="M616.46 75.2824C619.28 75.2824 621.566 73.0026 621.566 70.1903C621.566 67.378 619.28 65.0981 616.46 65.0981C613.64 65.0981 611.354 67.378 611.354 70.1903C611.354 73.0026 613.64 75.2824 616.46 75.2824Z" fill="#F2F2F2"/>
<path d="M595.142 14.3996C597.962 14.3996 600.248 12.1198 600.248 9.30746C600.248 6.49516 597.962 4.21533 595.142 4.21533C592.322 4.21533 590.035 6.49516 590.035 9.30746C590.035 12.1198 592.322 14.3996 595.142 14.3996Z" fill="#F2F2F2"/>
<path d="M595.142 34.694C597.962 34.694 600.248 32.4142 600.248 29.6019C600.248 26.7896 597.962 24.5098 595.142 24.5098C592.322 24.5098 590.035 26.7896 590.035 29.6019C590.035 32.4142 592.322 34.694 595.142 34.694Z" fill="#F2F2F2"/>
<path d="M595.142 54.9882C597.962 54.9882 600.248 52.7084 600.248 49.8961C600.248 47.0838 597.962 44.804 595.142 44.804C592.322 44.804 590.035 47.0838 590.035 49.8961C590.035 52.7084 592.322 54.9882 595.142 54.9882Z" fill="#F2F2F2"/>
<path d="M595.142 75.2824C597.962 75.2824 600.248 73.0026 600.248 70.1903C600.248 67.378 597.962 65.0981 595.142 65.0981C592.322 65.0981 590.035 67.378 590.035 70.1903C590.035 73.0026 592.322 75.2824 595.142 75.2824Z" fill="#F2F2F2"/>
<path d="M573.823 14.3996C576.643 14.3996 578.929 12.1198 578.929 9.30746C578.929 6.49516 576.643 4.21533 573.823 4.21533C571.003 4.21533 568.717 6.49516 568.717 9.30746C568.717 12.1198 571.003 14.3996 573.823 14.3996Z" fill="#F2F2F2"/>
<path d="M573.823 34.694C576.643 34.694 578.929 32.4142 578.929 29.6019C578.929 26.7896 576.643 24.5098 573.823 24.5098C571.003 24.5098 568.717 26.7896 568.717 29.6019C568.717 32.4142 571.003 34.694 573.823 34.694Z" fill="#F2F2F2"/>
<path d="M573.823 54.9882C576.643 54.9882 578.929 52.7084 578.929 49.8961C578.929 47.0838 576.643 44.804 573.823 44.804C571.003 44.804 568.717 47.0838 568.717 49.8961C568.717 52.7084 571.003 54.9882 573.823 54.9882Z" fill="#F2F2F2"/>
<path d="M573.823 75.2824C576.643 75.2824 578.929 73.0026 578.929 70.1903C578.929 67.378 576.643 65.0981 573.823 65.0981C571.003 65.0981 568.717 67.378 568.717 70.1903C568.717 73.0026 571.003 75.2824 573.823 75.2824Z" fill="#F2F2F2"/>
<path d="M552.504 14.3996C555.324 14.3996 557.61 12.1198 557.61 9.30746C557.61 6.49516 555.324 4.21533 552.504 4.21533C549.684 4.21533 547.398 6.49516 547.398 9.30746C547.398 12.1198 549.684 14.3996 552.504 14.3996Z" fill="#F2F2F2"/>
<path d="M552.504 34.694C555.324 34.694 557.61 32.4142 557.61 29.6019C557.61 26.7896 555.324 24.5098 552.504 24.5098C549.684 24.5098 547.398 26.7896 547.398 29.6019C547.398 32.4142 549.684 34.694 552.504 34.694Z" fill="#F2F2F2"/>
<path d="M552.504 54.9882C555.324 54.9882 557.61 52.7084 557.61 49.8961C557.61 47.0838 555.324 44.804 552.504 44.804C549.684 44.804 547.398 47.0838 547.398 49.8961C547.398 52.7084 549.684 54.9882 552.504 54.9882Z" fill="#F2F2F2"/>
<path d="M552.504 75.2824C555.324 75.2824 557.61 73.0026 557.61 70.1903C557.61 67.378 555.324 65.0981 552.504 65.0981C549.684 65.0981 547.398 67.378 547.398 70.1903C547.398 73.0026 549.684 75.2824 552.504 75.2824Z" fill="#F2F2F2"/>
<path d="M531.185 14.3996C534.005 14.3996 536.291 12.1198 536.291 9.30746C536.291 6.49516 534.005 4.21533 531.185 4.21533C528.365 4.21533 526.079 6.49516 526.079 9.30746C526.079 12.1198 528.365 14.3996 531.185 14.3996Z" fill="#F2F2F2"/>
<path d="M531.185 34.694C534.005 34.694 536.291 32.4142 536.291 29.6019C536.291 26.7896 534.005 24.5098 531.185 24.5098C528.365 24.5098 526.079 26.7896 526.079 29.6019C526.079 32.4142 528.365 34.694 531.185 34.694Z" fill="#F2F2F2"/>
<path d="M531.185 54.9882C534.005 54.9882 536.291 52.7084 536.291 49.8961C536.291 47.0838 534.005 44.804 531.185 44.804C528.365 44.804 526.079 47.0838 526.079 49.8961C526.079 52.7084 528.365 54.9882 531.185 54.9882Z" fill="#F2F2F2"/>
<path d="M531.185 75.2824C534.005 75.2824 536.291 73.0026 536.291 70.1903C536.291 67.378 534.005 65.0981 531.185 65.0981C528.365 65.0981 526.079 67.378 526.079 70.1903C526.079 73.0026 528.365 75.2824 531.185 75.2824Z" fill="#F2F2F2"/>
<path d="M509.867 14.3996C512.687 14.3996 514.973 12.1198 514.973 9.30746C514.973 6.49516 512.687 4.21533 509.867 4.21533C507.047 4.21533 504.76 6.49516 504.76 9.30746C504.76 12.1198 507.047 14.3996 509.867 14.3996Z" fill="#F2F2F2"/>
<path d="M509.867 34.694C512.687 34.694 514.973 32.4142 514.973 29.6019C514.973 26.7896 512.687 24.5098 509.867 24.5098C507.047 24.5098 504.76 26.7896 504.76 29.6019C504.76 32.4142 507.047 34.694 509.867 34.694Z" fill="#F2F2F2"/>
<path d="M509.867 54.9882C512.687 54.9882 514.973 52.7084 514.973 49.8961C514.973 47.0838 512.687 44.804 509.867 44.804C507.047 44.804 504.76 47.0838 504.76 49.8961C504.76 52.7084 507.047 54.9882 509.867 54.9882Z" fill="#F2F2F2"/>
<path d="M509.867 75.2824C512.687 75.2824 514.973 73.0026 514.973 70.1903C514.973 67.378 512.687 65.0981 509.867 65.0981C507.047 65.0981 504.76 67.378 504.76 70.1903C504.76 73.0026 507.047 75.2824 509.867 75.2824Z" fill="#F2F2F2"/>
<path d="M530.438 189.966C530.019 188.819 529.848 187.597 529.936 186.38C530.024 185.162 530.368 183.977 530.947 182.902C531.526 181.826 532.327 180.885 533.296 180.14C534.265 179.395 535.381 178.862 536.571 178.577C536.948 178.488 537.331 178.426 537.717 178.391L556.906 144.848L552.061 136.547L564.122 127.267L573.35 140.048C574.45 141.585 575.024 143.434 574.987 145.322C574.95 147.21 574.304 149.035 573.144 150.528L546.8 184.161C546.896 184.429 546.977 184.7 547.045 184.976C547.331 186.163 547.362 187.397 547.136 188.596C546.91 189.796 546.433 190.935 545.735 191.938C545.037 192.94 544.135 193.785 543.087 194.416C542.039 195.047 540.87 195.45 539.655 195.598C539.302 195.643 538.947 195.665 538.591 195.665C536.811 195.659 535.076 195.11 533.618 194.091C532.161 193.072 531.051 191.632 530.438 189.966V189.966Z" fill="#FFB8B8"/>
<path d="M493 355.036L483.32 355.036L478.715 317.8L493.002 317.801L493 355.036Z" fill="#FFB8B8"/>
<path d="M476.406 352.277H495.074V363.999H464.651C464.651 362.46 464.955 360.936 465.546 359.513C466.137 358.091 467.002 356.799 468.094 355.71C469.185 354.622 470.481 353.758 471.907 353.169C473.333 352.58 474.862 352.277 476.406 352.277V352.277Z" fill="#2F2E41"/>
<path d="M572.748 355.036L563.068 355.036L558.463 317.8L572.75 317.801L572.748 355.036Z" fill="#FFB8B8"/>
<path d="M556.153 352.277H574.822V363.999H544.399C544.399 362.46 544.703 360.936 545.294 359.513C545.885 358.091 546.75 356.799 547.842 355.71C548.933 354.622 550.229 353.758 551.655 353.169C553.081 352.58 554.61 352.277 556.153 352.277V352.277Z" fill="#2F2E41"/>
<path d="M566.807 129.08L545.074 137.316L539.768 122.618C539.063 120.666 539.073 118.529 539.796 116.584C540.519 114.638 541.907 113.011 543.717 111.988V111.988C545.548 110.953 547.689 110.606 549.754 111.008C551.82 111.41 553.673 112.535 554.979 114.181L566.807 129.08Z" fill="#63BEFF"/>
<path d="M493.836 324.879L475.609 320.733C474.639 320.511 473.79 319.931 473.232 319.11C472.674 318.289 472.447 317.288 472.599 316.308C479.912 270.079 486.949 243.007 505.082 208.627C505.336 207.986 508.167 194.975 510.015 186.355C509.994 185.405 510.32 184.48 510.932 183.752C511.544 183.025 512.401 182.543 513.342 182.399L547.329 177.183C547.842 177.005 548.383 176.924 548.925 176.943L549.265 177.007L549.261 177.341C549.257 177.685 548.913 177.738 548.784 177.758L548.332 177.827C548.847 178.066 549.32 178.387 549.733 178.777C564.625 196.639 572.368 255.188 582.203 319.87C582.258 320.395 582.194 320.925 582.016 321.422C581.837 321.919 581.55 322.37 581.174 322.742C580.818 323.13 580.387 323.441 579.907 323.658C579.427 323.874 578.907 323.991 578.381 324.002L556.666 324.53C555.712 324.551 554.783 324.226 554.051 323.615C553.32 323.004 552.836 322.149 552.69 321.209L538.064 236.917C537.963 236.258 537.654 235.649 537.182 235.178C536.711 234.706 536.1 234.397 535.44 234.296C534.78 234.194 534.105 234.306 533.512 234.613C532.92 234.921 532.441 235.409 532.146 236.007C520.347 259.971 509.343 280.696 498.505 322.044C498.29 322.883 497.802 323.626 497.117 324.157C496.432 324.689 495.589 324.977 494.721 324.978C494.423 324.978 494.126 324.945 493.836 324.879V324.879Z" fill="#2F2E41"/>
<path d="M511.528 187.318C511.071 186.995 510.688 186.579 510.404 186.097C510.12 185.615 509.943 185.079 509.883 184.523C507.1 158.61 509.038 138.33 515.81 122.526C517.002 119.8 518.799 117.38 521.065 115.446C523.33 113.512 526.006 112.115 528.891 111.361L546.458 110.477L546.549 110.52C550.514 112.457 553.747 115.616 555.769 119.529C557.791 123.442 558.495 127.9 557.777 132.244C552.126 147.097 547.395 162.562 551.003 175.037C551.154 175.559 551.199 176.105 551.133 176.644C551.067 177.183 550.893 177.703 550.621 178.174C550.357 178.628 550.003 179.024 549.58 179.337C549.157 179.649 548.674 179.872 548.161 179.992L514.7 187.93C514.158 188.058 513.595 188.07 513.048 187.965C512.501 187.859 511.983 187.639 511.528 187.318V187.318Z" fill="#63BEFF"/>
<path d="M503.966 150.13L470.271 123.621C470.002 123.715 469.729 123.795 469.453 123.861C468.263 124.139 467.029 124.164 465.829 123.934C464.63 123.705 463.492 123.226 462.49 122.53C461.482 121.833 460.634 120.929 460.004 119.878C459.374 118.828 458.976 117.656 458.837 116.44C458.611 114.496 459.051 112.534 460.084 110.87C461.117 109.207 462.684 107.94 464.529 107.276C465.681 106.864 466.908 106.699 468.128 106.793C469.348 106.886 470.535 107.236 471.61 107.818C472.686 108.401 473.626 109.204 474.368 110.174C475.111 111.144 475.64 112.259 475.92 113.447C476.007 113.824 476.067 114.206 476.101 114.591L509.644 133.888L517.991 129.096L527.238 141.168L514.277 150.381C512.76 151.45 510.938 152.003 509.08 151.958C507.223 151.913 505.429 151.272 503.966 150.13H503.966Z" fill="#FFB8B8"/>
<path d="M531.349 144.928L512.124 131.891L521.159 119.129C522.359 117.435 524.121 116.217 526.133 115.693C528.146 115.168 530.279 115.37 532.157 116.263V116.263C534.056 117.166 535.569 118.716 536.423 120.634C537.276 122.552 537.414 124.711 536.811 126.722L531.349 144.928Z" fill="#63BEFF"/>
<path d="M540.595 103.933C551.306 103.933 559.988 95.2742 559.988 84.5932C559.988 73.9121 551.306 65.2534 540.595 65.2534C529.885 65.2534 521.202 73.9121 521.202 84.5932C521.202 95.2742 529.885 103.933 540.595 103.933Z" fill="#FFB8B8"/>
<path d="M533.485 81.7126C528.501 85.1147 521.956 88.6118 516.865 84.9889C513.523 82.61 512.47 78.2049 513.825 74.3392C516.263 67.3874 522.96 64.3269 529.364 61.981C537.69 58.9313 546.756 56.5051 555.351 58.6892C563.945 60.8732 571.541 69.172 569.99 77.8808C568.742 84.8843 562.118 90.7117 563.058 97.7627C564.005 104.859 572.007 108.594 579.072 109.863C586.137 111.131 594.043 111.538 599.12 116.599C605.597 123.055 603.98 134.594 597.885 141.41C591.791 148.226 582.593 151.316 573.681 153.416C561.874 156.199 549.102 157.662 537.888 153.043C526.673 148.425 517.946 135.992 521.195 124.334C522.567 119.41 525.8 115.248 528.924 111.197C532.048 107.145 535.212 102.908 536.403 97.9375C537.396 93.7951 536.661 88.9856 533.907 85.8784C533.406 85.3345 533.09 84.6463 533.006 83.9125C532.922 83.1788 533.073 82.4373 533.437 81.7945L533.485 81.7126Z" fill="#2F2E41"/>
</g>
<defs>
<clipPath id="clip0_23_697">
<rect width="708" height="364" fill="white"/>
</clipPath>
</defs>
</svg>
