<svg width="708" height="526" viewBox="0 0 708 526" fill="none" xmlns="http://www.w3.org/2000/svg">
<g clip-path="url(#clip0_23_307)">
<path d="M358.024 499.905C357.327 499.937 356.636 499.754 356.046 499.38C355.456 499.007 354.995 498.461 354.726 497.817C354.456 497.173 354.392 496.461 354.54 495.779C354.689 495.097 355.043 494.476 355.556 494.002C355.642 493.661 355.704 493.416 355.789 493.075C355.122 491.379 353.963 489.921 352.461 488.888C350.96 487.855 349.184 487.294 347.362 487.277C345.539 487.26 343.753 487.787 342.232 488.792C340.711 489.796 339.525 491.232 338.826 492.915C334.79 502.362 329.566 512.142 332.164 522.548C315.003 486.18 320.839 440.942 346.2 409.841C353.21 405.979 358.892 399.119 360.371 391.153C356.902 392.329 352.576 389.507 355.185 385.852C356.315 384.456 357.457 383.07 358.587 381.673C345.409 367.639 329.706 389.696 344.212 408.639C339.467 414.588 335.356 421.017 331.948 427.821C332.735 420.596 331.796 413.288 329.207 406.497C326.583 400.168 321.666 394.838 317.335 389.366C312.07 382.7 301.233 385.775 300.525 394.235C305.384 395.832 306.015 402.851 300.457 403.812C301.913 419.55 312.195 434.013 326.357 440.916C321.127 455.589 319.085 471.208 320.367 486.733C317.867 468.589 298.39 464.186 284.776 456.975C283.91 456.42 282.901 456.128 281.871 456.136C280.842 456.145 279.837 456.452 278.98 457.022C278.122 457.591 277.449 458.398 277.042 459.343C276.636 460.289 276.513 461.332 276.689 462.346C278.568 463.11 280.366 464.059 282.058 465.178C282.85 465.711 283.459 466.476 283.799 467.368C284.14 468.26 284.197 469.236 283.961 470.162C283.726 471.087 283.21 471.917 282.484 472.538C281.758 473.158 280.858 473.539 279.907 473.629C286.769 490.611 304.511 502.015 322.732 501.951C324.483 509.56 327.02 516.966 330.302 524.05H357.347C357.444 523.75 357.531 523.439 357.618 523.139C355.115 523.296 352.602 523.147 350.135 522.693C356.758 514.852 361.88 510.852 358.025 499.906L358.024 499.905Z" fill="#F2F2F2"/>
<path d="M500.423 15.2231H266.863C264.844 15.2231 262.908 14.4212 261.48 12.9937C260.053 11.5663 259.251 9.63026 259.251 7.61155C259.251 5.59284 260.053 3.65681 261.48 2.22937C262.908 0.801926 264.844 0 266.863 0H500.423C502.442 0 504.378 0.801926 505.805 2.22937C507.233 3.65681 508.035 5.59284 508.035 7.61155C508.035 9.63026 507.233 11.5663 505.805 12.9937C504.378 14.4212 502.442 15.2231 500.423 15.2231Z" fill="#E6E6E6"/>
<path d="M500.423 55.7518H266.863C264.844 55.7518 262.908 54.9499 261.48 53.5224C260.053 52.095 259.251 50.1589 259.251 48.1402C259.251 46.1215 260.053 44.1855 261.48 42.7581C262.908 41.3306 264.844 40.5287 266.863 40.5287H500.423C502.442 40.5287 504.378 41.3306 505.805 42.7581C507.233 44.1855 508.035 46.1215 508.035 48.1402C508.035 50.1589 507.233 52.095 505.805 53.5224C504.378 54.9499 502.442 55.7518 500.423 55.7518V55.7518Z" fill="#E6E6E6"/>
<path d="M510.627 300.6L408.813 303.228C406.689 303.28 404.632 302.488 403.092 301.026C401.551 299.563 400.654 297.549 400.597 295.426L399.289 244.754C399.236 242.63 400.028 240.573 401.491 239.033C402.954 237.492 404.968 236.595 407.091 236.538L508.905 233.91C511.029 233.858 513.086 234.65 514.627 236.112C516.167 237.575 517.064 239.589 517.121 241.712L518.429 292.384C518.482 294.508 517.69 296.565 516.227 298.105C514.764 299.646 512.75 300.543 510.627 300.6V300.6Z" fill="white"/>
<path d="M510.651 301.542L408.837 304.17C406.464 304.229 404.164 303.343 402.443 301.709C400.721 300.074 399.719 297.823 399.655 295.45L398.347 244.778C398.288 242.405 399.173 240.105 400.808 238.384C402.443 236.662 404.694 235.66 407.067 235.596L508.881 232.968C511.254 232.909 513.554 233.794 515.275 235.429C516.997 237.064 518 239.315 518.064 241.688L519.372 292.36C519.43 294.733 518.545 297.033 516.91 298.754C515.275 300.475 513.024 301.478 510.651 301.542V301.542ZM407.116 237.48C405.242 237.531 403.465 238.322 402.174 239.681C400.884 241.04 400.185 242.856 400.231 244.729L401.539 295.401C401.59 297.275 402.381 299.052 403.74 300.342C405.099 301.633 406.915 302.332 408.789 302.286L510.603 299.657C512.476 299.607 514.253 298.816 515.544 297.457C516.835 296.098 517.533 294.282 517.487 292.409L516.179 241.737C516.129 239.863 515.337 238.086 513.978 236.795C512.619 235.505 510.803 234.806 508.93 234.852L407.116 237.48Z" fill="#CCCCCC"/>
<path d="M448.376 286.884C447.798 286.898 447.226 286.764 446.714 286.497C446.166 286.219 445.704 285.797 445.377 285.277C445.051 284.756 444.872 284.157 444.861 283.542L444.131 255.263C444.115 254.65 444.265 254.044 444.563 253.508C444.862 252.972 445.299 252.526 445.829 252.217C446.359 251.908 446.962 251.747 447.575 251.75C448.188 251.754 448.79 251.922 449.316 252.238L476.508 265.685C477.003 265.981 477.414 266.398 477.705 266.896C477.995 267.394 478.155 267.957 478.17 268.533C478.185 269.11 478.054 269.681 477.79 270.193C477.525 270.705 477.136 271.142 476.657 271.464L450.195 286.296C449.657 286.662 449.026 286.866 448.376 286.884V286.884Z" fill="#63BEFF"/>
<path d="M383.643 181.913C408.11 181.913 427.944 162.08 427.944 137.614C427.944 113.149 408.11 93.3153 383.643 93.3153C359.176 93.3153 339.342 113.149 339.342 137.614C339.342 162.08 359.176 181.913 383.643 181.913Z" fill="#E6E6E6"/>
<path d="M383.643 161.445C383.143 161.445 382.664 161.246 382.31 160.892C381.956 160.539 381.758 160.06 381.758 159.56V115.936C381.758 115.436 381.956 114.957 382.31 114.603C382.664 114.25 383.143 114.051 383.643 114.051C384.143 114.051 384.622 114.25 384.976 114.603C385.33 114.957 385.528 115.436 385.528 115.936V159.56C385.528 160.06 385.329 160.539 384.976 160.892C384.622 161.246 384.143 161.445 383.643 161.445V161.445Z" fill="white"/>
<path d="M405.456 139.633H361.83C361.33 139.633 360.851 139.434 360.497 139.081C360.144 138.727 359.945 138.248 359.945 137.748C359.945 137.248 360.144 136.768 360.497 136.415C360.851 136.061 361.33 135.863 361.83 135.863H405.456C405.956 135.863 406.435 136.061 406.789 136.415C407.142 136.768 407.341 137.248 407.341 137.748C407.341 138.248 407.142 138.727 406.789 139.081C406.435 139.434 405.956 139.633 405.456 139.633Z" fill="white"/>
<path d="M220.577 280.878H145.171V196.051H220.577C212.341 207.123 216.417 243.912 220.577 280.878Z" fill="#FFB6B6"/>
<path d="M221.014 497.333H234.587L241.045 444.98L221.011 444.981L221.014 497.333Z" fill="#FFB6B6"/>
<path d="M239.104 498.555V489.354L235.536 489.571L221.01 490.432L217.648 490.639L215.078 521.455L214.941 523.107H224.578L224.888 521.466L226.288 514.009L229.902 521.466L230.694 523.107H256.246C257.766 523.097 259.221 522.488 260.295 521.412C261.37 520.336 261.976 518.88 261.982 517.359C263.061 512.322 241.812 501.435 239.104 498.555Z" fill="#2F2E41"/>
<path d="M61.9943 482.56L73.8001 489.257L105.253 446.91L87.8294 437.025L61.9943 482.56Z" fill="#FFB6B6"/>
<path d="M77.131 492.543L81.6631 484.546L78.4735 482.974L65.4051 476.561L62.376 475.07L47.4948 496.857L43.9953 501.974L47.9537 504.222L52.3711 506.735L58.3602 499.668L57.6947 509.752L78.5652 521.604H78.5767L79.9192 522.361C81.2447 523.11 82.8132 523.302 84.2803 522.896C85.7474 522.489 86.9932 521.517 87.7441 520.193C91.1633 516.338 78.0604 496.398 77.131 492.543Z" fill="#2F2E41"/>
<path d="M142.343 240.35C124.154 252.402 117.459 368.194 122.185 366.304L79.3132 446.197L140.335 473.549L180.457 334.241L187.144 385.507L178.228 466.862L217.671 476.4L244.953 474.451C237.864 377.477 231.475 275.2 216.807 235.637L142.343 240.35Z" fill="#2F2E41"/>
<path d="M198.851 102.892C198.851 102.892 178.658 100.28 172.505 102.741C170.316 103.616 168.127 111.656 164.022 114.051C156.59 118.387 150.524 117.656 150.524 117.656C153.428 154.621 153.27 183.296 135.9 236.842C135.884 238.197 136.216 239.533 136.864 240.723C137.512 241.913 138.455 242.917 139.602 243.638C140.75 244.359 142.063 244.774 143.417 244.842C144.77 244.911 146.118 244.63 147.332 244.028L218.692 238.464L227.151 193.94L238.225 170.563L223.878 141.033L222.647 123.808L204.553 114.993L198.851 102.892Z" fill="#63BEFF"/>
<path d="M207.766 94.7199L207.788 94.7219C208.948 94.8221 210.102 94.4571 210.994 93.7071C211.885 92.9572 212.443 91.8837 212.543 90.7228L214.668 66.2969C215.053 61.9212 214.554 57.5126 213.201 53.3335C210.55 45.1771 204.852 38.3586 197.297 34.2989C193.396 32.2084 189.112 30.9293 184.703 30.5387C166.666 28.9411 160.104 32.7388 149.151 60.3027C138.199 87.8667 147.023 84.7658 147.023 84.7658C146.971 85.3545 147.038 85.9476 147.221 86.5097C147.578 87.6064 148.346 88.5225 149.363 89.0666C149.885 89.3452 150.458 89.516 151.047 89.5689C172.393 94.844 193.934 100.403 207.769 94.7202L207.766 94.7199Z" fill="#2F2E41"/>
<path d="M167.829 53.7817C165.18 57.7571 163.769 62.4283 163.774 67.2052C163.778 71.9821 165.198 76.6505 167.855 80.6209C170.511 84.5912 174.284 87.6853 178.698 89.5124C183.112 91.3396 187.969 91.8178 192.654 90.8867C195.756 90.2804 198.707 89.0647 201.335 87.3099C203.964 85.5552 206.218 83.2964 207.967 80.6643C210.61 76.6902 212.017 72.0226 212.011 67.2499C212.005 62.4772 210.586 57.8132 207.933 53.8458C205.28 49.8785 201.511 46.7855 197.103 44.9568C192.694 43.1281 187.842 42.6456 183.16 43.5701C180.056 44.1729 177.102 45.3861 174.47 47.1392C171.839 48.8922 169.581 51.1504 167.829 53.7826L167.829 53.7817Z" fill="#FFB6B6"/>
<path d="M222.243 68.9588C222.547 65.4981 222.152 62.0115 221.082 58.7063C220.786 50.6056 218.386 43.2824 208.505 43.656C205.439 42.0145 202.075 41.0064 198.611 40.6918L193.724 40.2419C193.669 40.2368 193.614 40.2319 193.559 40.2272C186.722 39.6366 179.93 41.7862 174.677 46.2032C169.425 50.6202 166.142 56.9428 165.551 63.78L165.509 64.2692L175.848 65.2108L180.232 55.6656L180.078 65.598L185.418 66.0864L187.629 61.2706L187.553 66.2784C195.522 73.2039 207.54 73.49 222.196 69.4486L222.243 68.9588Z" fill="#2F2E41"/>
<path d="M189.346 92.3419C189.439 93.1456 189.305 93.9594 188.958 94.6906C188.784 95.0651 188.558 95.4134 188.287 95.7251C188.055 95.9906 187.792 96.2278 187.505 96.4317C186.653 97.0333 185.614 97.3116 184.575 97.2167C184.511 97.2105 184.446 97.203 184.382 97.1943C184.317 97.1857 184.253 97.1755 184.189 97.1639C184.124 97.1527 184.059 97.1398 183.995 97.1251C183.931 97.1104 183.867 97.0944 183.803 97.0773L180.19 96.0907L176.074 84.8494L175.213 94.7432L158.785 90.2868L162.438 48.3018L190.405 50.8701L189.643 51.6133C187.113 54.1089 185.32 57.2543 184.462 60.7032C183.611 64.198 183.366 67.8128 183.736 71.3906C184.083 75.0085 184.777 78.5848 185.808 82.07C186.706 85.1563 187.781 88.1883 189.028 91.1509C189.189 91.5311 189.296 91.932 189.346 92.3419V92.3419Z" fill="#2F2E41"/>
<path d="M141.642 379.212L121.099 255.682C120.686 253.181 121.282 250.619 122.756 248.557C124.23 246.495 126.462 245.102 128.962 244.683L222.26 229.17C224.761 228.757 227.323 229.353 229.385 230.827C231.447 232.301 232.84 234.532 233.259 237.032L253.802 360.563C254.215 363.063 253.619 365.626 252.145 367.688C250.671 369.75 248.439 371.143 245.939 371.561L152.641 387.075C150.14 387.488 147.578 386.892 145.515 385.418C143.453 383.944 142.06 381.712 141.642 379.212V379.212Z" fill="#E6E6E6"/>
<path d="M142.593 340.711L129.387 261.294C129 258.952 129.558 256.552 130.939 254.621C132.319 252.69 134.409 251.386 136.75 250.994L216.932 237.661C219.275 237.274 221.674 237.832 223.606 239.213C225.537 240.593 226.842 242.683 227.234 245.024L245.514 354.95C245.901 357.292 245.343 359.692 243.962 361.623C242.581 363.554 240.491 364.859 238.15 365.251L188.479 373.51C178.046 375.232 167.356 372.747 158.754 366.598C150.152 360.449 144.34 351.139 142.593 340.711V340.711Z" fill="white"/>
<path d="M146.054 281.294C145.676 279.006 146.221 276.661 147.57 274.774C148.919 272.887 150.962 271.612 153.25 271.229L208.872 261.98C211.16 261.602 213.504 262.147 215.39 263.497C217.276 264.846 218.549 266.889 218.93 269.177C219.31 271.464 218.767 273.809 217.419 275.696C216.071 277.583 214.03 278.858 211.742 279.241L156.12 288.49C153.832 288.868 151.486 288.322 149.599 286.973C147.712 285.625 146.437 283.582 146.054 281.294V281.294Z" fill="#63BEFF"/>
<path d="M150.519 308.145C150.141 305.856 150.687 303.511 152.036 301.624C153.385 299.737 155.427 298.462 157.715 298.079L213.337 288.83C215.625 288.452 217.97 288.998 219.856 290.347C221.742 291.696 223.015 293.739 223.396 296.027C223.776 298.315 223.233 300.66 221.885 302.547C220.537 304.434 218.495 305.709 216.207 306.091L160.586 315.34C158.297 315.718 155.952 315.173 154.064 313.824C152.177 312.475 150.902 310.433 150.519 308.145V308.145Z" fill="#63BEFF"/>
<path d="M154.984 334.995C154.606 332.707 155.152 330.362 156.501 328.474C157.85 326.587 159.892 325.313 162.18 324.93L217.802 315.681C220.09 315.303 222.435 315.848 224.321 317.198C226.206 318.547 227.479 320.59 227.86 322.878C228.24 325.165 227.697 327.51 226.349 329.397C225.002 331.284 222.96 332.559 220.673 332.942L165.051 342.191C162.762 342.569 160.417 342.023 158.53 340.674C156.642 339.325 155.367 337.283 154.984 334.995V334.995Z" fill="#63BEFF"/>
<path d="M130.546 268.575C131.54 267.534 132.297 266.289 132.763 264.926C133.229 263.564 133.394 262.116 133.246 260.684C133.097 259.252 132.64 257.869 131.904 256.631C131.169 255.393 130.173 254.329 128.987 253.514L138.778 204.935L126.006 198.923L114.799 256.706C113.575 258.806 113.163 261.282 113.643 263.665C114.122 266.047 115.459 268.172 117.4 269.635C119.341 271.098 121.751 271.798 124.174 271.603C126.597 271.407 128.864 270.33 130.546 268.575V268.575Z" fill="#FFB6B6"/>
<path d="M150.826 117.821C150.826 117.821 128.376 126.269 127.146 138.573C125.915 150.877 123.087 161.843 124.318 166.765C125.548 171.686 120.088 177.279 122.549 180.97C125.01 184.662 119.108 185.875 121.569 192.027C124.03 198.179 125.26 199.41 124.03 200.64C122.8 201.87 118.779 227.154 118.779 227.154L136.256 231.033L159.058 179.176L150.826 117.821Z" fill="#63BEFF"/>
<path d="M232.374 268.575C231.379 267.534 230.623 266.289 230.157 264.926C229.69 263.564 229.526 262.116 229.674 260.684C229.822 259.252 230.28 257.869 231.016 256.631C231.751 255.393 232.746 254.329 233.933 253.514L224.142 204.935L236.914 198.923L248.121 256.706C249.345 258.806 249.757 261.282 249.277 263.665C248.798 266.047 247.461 268.172 245.52 269.635C243.579 271.098 241.169 271.798 238.746 271.603C236.323 271.407 234.056 270.33 232.374 268.575V268.575Z" fill="#FFB6B6"/>
<path d="M217.726 122.578C220.062 122.708 222.322 123.461 224.269 124.76C226.216 126.058 227.781 127.853 228.8 129.96C232.491 137.342 246.314 183.877 245.084 187.568C243.854 191.259 249.43 203.18 246.969 205.641C244.508 208.101 242.256 222.442 242.256 222.442L224.324 226.557L218.538 171.793L217.726 122.578Z" fill="#63BEFF"/>
<path d="M641.396 291.093C641.04 289.891 640.952 288.625 641.138 287.385C641.324 286.146 641.78 284.962 642.473 283.917C643.167 282.872 644.08 281.992 645.151 281.339C646.221 280.686 647.421 280.275 648.667 280.136L655.399 250.412L666.369 261.835L658.294 288.31C658.389 290.419 657.708 292.489 656.378 294.129C655.049 295.769 653.164 296.864 651.081 297.207C648.998 297.55 646.862 297.117 645.077 295.99C643.292 294.863 641.982 293.121 641.396 291.093H641.396Z" fill="#A0616A"/>
<path d="M657.571 107.973L658.111 110.528L686.211 196.487L667.309 273.09L651.838 265.856L655.485 197.94C627.719 160.87 619.552 147.452 621.974 108.869L657.571 107.973Z" fill="#E6E6E6"/>
<path d="M633.625 510.413L619.802 510.412L613.225 457.095L633.627 457.097L633.625 510.413Z" fill="#A0616A"/>
<path d="M634.111 524.832L591.603 524.831V524.293C591.603 519.905 593.347 515.697 596.45 512.595C599.552 509.492 603.761 507.749 608.149 507.749H608.15L615.914 501.859L630.401 507.75L634.112 507.75L634.111 524.832Z" fill="#2F2E41"/>
<path d="M557.658 510.413L543.836 510.412L537.259 457.095L557.661 457.097L557.658 510.413Z" fill="#A0616A"/>
<path d="M558.145 524.832L515.637 524.831V524.293C515.637 519.905 517.381 515.697 520.483 512.595C523.586 509.492 527.794 507.749 532.182 507.749H532.183L539.948 501.859L554.435 507.75L558.146 507.75L558.145 524.832Z" fill="#2F2E41"/>
<path d="M650.435 265.853C650.435 265.853 655.888 278.802 650.435 299.93C644.983 321.059 643.62 374.22 643.62 374.22L634.879 493.597H611.759L610.903 407.616L599.316 314.925L576.142 402.845C576.142 402.845 567.281 468.275 563.873 471.001C560.465 473.727 558.913 492.772 558.913 492.772C551.908 493.821 541.253 491.082 534.967 487.817C537.557 486.697 548.538 269.076 548.878 265.853C550.209 253.245 650.435 265.853 650.435 265.853Z" fill="#2F2E41"/>
<path d="M461.021 242.961C462.27 243.065 463.527 242.893 464.703 242.458C465.879 242.024 466.946 241.336 467.827 240.445C468.709 239.554 469.385 238.48 469.806 237.299C470.228 236.118 470.386 234.859 470.268 233.611L498 220.967L484.581 212.555L460.304 225.851C458.22 226.187 456.332 227.276 454.997 228.912C453.662 230.547 452.974 232.615 453.062 234.724C453.151 236.833 454.01 238.837 455.476 240.355C456.943 241.873 458.916 242.8 461.021 242.961L461.021 242.961Z" fill="#A0616A"/>
<path d="M568.985 137.507L578.401 141.146L552.015 193.616L482.912 231.7L477.73 215.427L530.103 172.031C548.422 118.739 559.429 94.9285 572.648 95.2548L568.985 137.507Z" fill="#E6E6E6"/>
<path d="M560.58 107.395C561.779 103.12 564.408 99.386 568.027 96.8147C571.647 94.2433 576.038 92.9903 580.47 93.2646C580.54 93.2695 580.611 93.2745 580.681 93.2799C586.569 93.7273 594.104 79.4418 601.909 80.0496C607.4 80.4773 613.025 80.9204 618.302 81.3449C623.005 81.7231 627.432 96.9487 631.244 97.2731C638.443 97.8858 640.143 98.3594 640.658 98.5309C642.702 99.2125 650.568 99.7507 655.522 105.53C657.74 108.118 666.558 132.609 661.105 158.508C655.653 184.407 649.414 217.956 649.414 217.956C649.414 217.956 654.866 234.16 652.14 240.976C649.413 247.791 654.866 252.562 654.866 255.289C654.866 258.015 653.503 271.646 653.503 271.646C653.503 271.646 556.407 281.95 547.856 271.646C547.576 271.308 559.198 214.817 554.386 169.404C551.745 144.475 556.668 121.121 560.58 107.395Z" fill="#E6E6E6"/>
<path d="M609.687 77.0831C625.179 77.0831 637.737 64.5251 637.737 49.0339C637.737 33.5428 625.179 20.9847 609.687 20.9847C594.195 20.9847 581.636 33.5428 581.636 49.0339C581.636 64.5251 594.195 77.0831 609.687 77.0831Z" fill="#A0616A"/>
<path d="M590.452 16.649C592.462 16.5893 591.772 12.8 593.392 11.5912C593.4 11.6279 593.408 11.6645 593.416 11.701C593.629 12.5196 594.098 13.2483 594.756 13.7798C595.414 14.3114 596.225 14.6178 597.069 14.6539C597.914 14.6899 598.748 14.4537 599.449 13.9801C600.15 13.5064 600.68 12.8204 600.961 12.0229C601.229 11.1004 601.716 10.2559 602.379 9.56048C603.042 8.86503 603.862 8.33894 604.77 8.02649C604.871 11.5386 607.528 14.5869 610.698 16.1038C613.867 17.6208 617.481 17.8732 620.995 17.9252C624.508 17.9771 628.072 17.8594 631.479 18.7192C634.886 19.5789 638.2 21.6002 639.656 24.7982C641.111 27.9962 640.073 32.3991 636.89 33.8875C639.356 33.9006 641.448 35.9353 642.301 38.2489C643.153 40.5626 643.023 43.1083 642.835 45.5669C642.142 54.637 640.453 64.402 633.848 70.6571C628.814 75.4244 621.609 77.3449 614.676 77.3172C607.742 77.2894 608.962 76.6522 602.258 74.8827C602.258 74.8827 595.885 56.6131 597.49 54.8159C599.094 53.0187 600.427 50.7189 600.137 48.327C599.846 45.9351 597.276 43.7925 595.045 44.703C595.42 43.7441 595.703 43.5614 595.88 43.6101C595.767 43.3376 595.669 43.0594 595.585 42.7766C595.165 41.3356 594.409 40.0147 593.379 38.9227C592.349 37.8307 591.075 36.9987 589.661 36.495C588.233 36.0315 586.697 36.0162 585.259 36.4511C583.822 36.8861 582.552 37.7505 581.621 38.9282C574.28 32.0444 578.834 16.994 590.452 16.649Z" fill="#2F2E41"/>
<path d="M706.878 525.71L1.12231 526C0.825217 525.999 0.540593 525.881 0.330821 525.67C0.121048 525.46 0.00324249 525.175 0.00324249 524.878C0.00324249 524.581 0.121048 524.296 0.330821 524.085C0.540593 523.875 0.825217 523.756 1.12231 523.755L706.878 523.466C707.175 523.466 707.461 523.584 707.671 523.794C707.882 524.005 708 524.29 708 524.588C708 524.886 707.882 525.171 707.671 525.382C707.461 525.592 707.175 525.71 706.878 525.71V525.71Z" fill="#CACACA"/>
</g>
<defs>
<clipPath id="clip0_23_307">
<rect width="708" height="526" fill="white"/>
</clipPath>
</defs>
</svg>
