<svg width="602" height="389" viewBox="0 0 602 389" fill="none" xmlns="http://www.w3.org/2000/svg">
<g clip-path="url(#clip0_45_46)">
<path d="M602 182.634C602.001 198.11 596.132 213.017 585.566 224.374C575 235.73 560.516 242.7 545.01 243.89C544.487 243.929 543.957 243.969 543.427 243.992V185.682C543.427 185.099 543.297 184.524 543.045 183.998C542.793 183.472 542.426 183.008 541.971 182.642C541.918 182.588 541.86 182.541 541.796 182.5C541.739 182.454 541.678 182.411 541.614 182.374C541.058 182.018 540.421 181.806 539.762 181.758C539.102 181.71 538.441 181.827 537.839 182.098L537.182 180.665C537.9 180.339 538.68 180.17 539.469 180.169L494.384 141.518C494.732 141.125 495.096 140.739 495.46 140.353C503.96 131.437 514.951 125.262 527.014 122.626C539.077 119.991 551.656 121.015 563.128 125.568C574.599 130.121 584.435 137.992 591.365 148.165C598.294 158.337 601.999 170.344 602 182.634V182.634Z" fill="#F2F2F2"/>
<path d="M15.6546 224.526C15.4304 223.386 15.4601 222.211 15.7416 221.084C16.023 219.957 16.5495 218.905 17.2838 218.002C18.0181 217.099 18.9424 216.367 19.9916 215.858C21.0408 215.349 22.1895 215.075 23.3565 215.056L58.9454 172.898L67.8303 184.202L31.5603 223.437C31.4631 225.391 30.6494 227.24 29.2732 228.637C27.897 230.033 26.054 230.878 24.0935 231.012C22.1329 231.146 20.191 230.56 18.6356 229.365C17.0803 228.169 16.0196 226.448 15.6546 224.526H15.6546Z" fill="#FFB8B8"/>
<path d="M184.653 172.637C184.404 172.996 184.184 173.373 183.994 173.766L145.135 179.294L139.234 171.839L126.764 179.23L138.486 197.416L185.879 183.514C187.13 184.641 188.695 185.362 190.368 185.581C192.04 185.801 193.74 185.509 195.242 184.743C196.743 183.978 197.975 182.776 198.773 181.297C199.571 179.818 199.898 178.132 199.71 176.464C199.522 174.796 198.828 173.224 197.721 171.958C196.613 170.691 195.144 169.791 193.51 169.375C191.875 168.96 190.153 169.049 188.57 169.632C186.988 170.215 185.622 171.263 184.653 172.637Z" fill="#FFB8B8"/>
<path d="M118.275 313.494L125.152 320.307L154.834 297.157L144.685 287.101L118.275 313.494Z" fill="#FFB8B8"/>
<path d="M132.056 339.802L110.444 318.388L118.758 310.079L132.02 323.22C133.116 324.306 133.987 325.597 134.582 327.018C135.178 328.44 135.486 329.964 135.489 331.504C135.492 333.043 135.191 334.569 134.602 335.993C134.013 337.417 133.147 338.711 132.056 339.802L132.056 339.802Z" fill="#2F2E41"/>
<path d="M81.7222 378.847H91.4263L96.0425 341.6H81.7206L81.7222 378.847Z" fill="#FFB8B8"/>
<path d="M110.141 387.812L79.6429 387.814L79.6424 376.088L98.3571 376.087C99.9045 376.087 101.437 376.39 102.866 376.98C104.296 377.569 105.595 378.433 106.689 379.521C107.784 380.61 108.652 381.903 109.244 383.325C109.836 384.748 110.141 386.273 110.141 387.812V387.812Z" fill="#2F2E41"/>
<path d="M79.6126 350.079L68.5593 268.961C66.8295 256.702 67.3663 244.232 70.1434 232.165C72.4116 222.467 75.4758 215.75 79.2513 212.2C79.8471 211.644 80.6098 211.297 81.4226 211.213L117.917 207.43C118.62 207.359 119.329 207.488 119.961 207.802C120.593 208.116 121.122 208.603 121.487 209.206L122.687 211.195C122.832 211.436 122.95 211.694 123.037 211.962L130.753 235.765C130.868 236.124 131.054 236.458 131.299 236.745C131.545 237.033 131.846 237.269 132.184 237.44C144.333 243.612 183.794 264.446 181.536 273.436C179.414 281.882 159.548 295.576 153.51 299.572C152.895 299.981 152.171 300.197 151.431 300.191C150.692 300.186 149.971 299.959 149.362 299.541L139.339 292.717C138.85 292.383 138.447 291.938 138.166 291.419C137.885 290.899 137.733 290.32 137.723 289.73C137.712 289.14 137.844 288.557 138.107 288.028C138.37 287.499 138.756 287.04 139.233 286.69L146.145 281.622C146.568 281.312 146.898 280.892 147.1 280.409C147.301 279.926 147.366 279.398 147.288 278.881C147.211 278.364 146.992 277.877 146.657 277.474C146.323 277.071 145.884 276.767 145.388 276.594L108.266 263.632C107.849 263.487 107.405 263.438 106.966 263.49C106.527 263.543 106.107 263.694 105.736 263.934C105.366 264.173 105.055 264.494 104.829 264.871C104.603 265.249 104.466 265.673 104.43 266.111L97.5856 349.357C97.5101 350.249 97.1123 351.084 96.4658 351.707C95.8193 352.331 94.9678 352.7 94.0689 352.747L83.4788 353.274C83.4143 353.277 83.3504 353.278 83.2865 353.278C82.3877 353.282 81.5185 352.959 80.8421 352.37C80.1657 351.781 79.7285 350.966 79.6126 350.079V350.079Z" fill="#2F2E41"/>
<path d="M96.3499 140.269C107.087 140.269 115.791 131.608 115.791 120.924C115.791 110.239 107.087 101.578 96.3499 101.578C85.6131 101.578 76.9092 110.239 76.9092 120.924C76.9092 131.608 85.6131 140.269 96.3499 140.269Z" fill="#FFB8B8"/>
<path d="M78.1664 208.886L63.8563 156.929L64.1013 156.764C64.4087 156.558 95.2531 136.291 131.366 152.624L132.021 152.997L123.541 206.926C123.356 208.157 122.745 209.285 121.814 210.115C120.883 210.946 119.69 211.427 118.44 211.476L83.5473 212.811C83.4769 212.814 83.4068 212.815 83.3371 212.815C82.1608 212.818 81.0165 212.435 80.0817 211.724C79.1468 211.014 78.4736 210.016 78.1664 208.886V208.886Z" fill="#CCCCCC"/>
<path d="M63.3117 190.754L51.3934 177.116C50.8194 176.46 50.4962 175.624 50.4808 174.755C50.4654 173.886 50.7588 173.039 51.3092 172.364L63.7684 157.048L73.3327 159.644L78.4034 177.305L69.1579 190.448C68.8354 190.91 68.4109 191.291 67.9171 191.564C67.4232 191.836 66.8732 191.992 66.3093 192.02C66.2426 192.023 66.1763 192.025 66.1099 192.025C65.5791 192.026 65.0543 191.913 64.5714 191.693C64.0885 191.474 63.6588 191.154 63.3117 190.754V190.754Z" fill="#CCCCCC"/>
<path d="M129.218 187.913C128.654 187.885 128.104 187.729 127.61 187.457C127.117 187.184 126.692 186.803 126.37 186.342L117.124 173.198L121.571 154.607L130.377 152.217L132.021 152.998L144.218 168.257C144.769 168.932 145.062 169.779 145.047 170.648C145.031 171.517 144.708 172.353 144.134 173.009L132.216 186.647C131.869 187.047 131.439 187.367 130.956 187.587C130.473 187.806 129.948 187.919 129.418 187.918C129.351 187.918 129.285 187.916 129.218 187.913Z" fill="#CCCCCC"/>
<path d="M543.427 181.823C543.434 182.019 543.366 182.211 543.237 182.359C543.1 182.517 542.906 182.616 542.697 182.632C542.488 182.648 542.28 182.581 542.121 182.445L539.469 180.169L494.384 141.519L367.929 33.0977C367.208 32.4832 366.289 32.1461 365.34 32.1476C364.39 32.149 363.472 32.4889 362.753 33.1056L192.463 180.326L190.928 181.65C190.868 181.702 190.802 181.744 190.73 181.776C190.603 181.832 190.464 181.853 190.326 181.839C190.128 181.818 189.945 181.725 189.811 181.579C189.743 181.501 189.69 181.411 189.656 181.313C189.623 181.215 189.609 181.112 189.615 181.009C189.622 180.906 189.649 180.805 189.695 180.712C189.741 180.619 189.804 180.536 189.882 180.468L190.096 180.279L361.716 31.9162C362.724 31.0543 364.009 30.5791 365.338 30.5762C366.667 30.5733 367.954 31.0429 368.966 31.9004L495.46 140.353L543.15 181.248C543.233 181.32 543.301 181.408 543.348 181.507C543.396 181.606 543.423 181.713 543.427 181.823V181.823Z" fill="#3F3D56"/>
<path d="M447.28 205.082L445.198 199.38L438.027 179.688L422.576 137.289L405.305 89.8956L374.158 4.41126C373.547 2.74425 372.296 1.38634 370.681 0.63491C369.065 -0.116522 367.216 -0.200237 365.538 0.402096L185.458 65.3759C183.782 65.9838 182.417 67.2281 181.662 68.836C180.907 70.4439 180.823 72.2842 181.429 73.9535L225.589 195.142L226.34 197.214L272.692 218.118L285.721 223.994L287.834 224.947L342.996 249.829L345.133 249.057L381.314 236.006L435.89 216.314L443.243 213.66C444.92 213.053 446.286 211.809 447.042 210.201C447.799 208.593 447.885 206.753 447.28 205.082V205.082Z" fill="#E6E6E6"/>
<path d="M371.768 104.136C370.87 101.683 369.03 99.6841 366.653 98.5782C364.276 97.4723 361.556 97.3495 359.088 98.2368L287.834 123.954L253.427 136.367C252.204 136.807 251.081 137.482 250.12 138.354C249.16 139.226 248.382 140.278 247.831 141.449C247.279 142.621 246.965 143.889 246.907 145.181C246.848 146.474 247.046 147.765 247.489 148.981C247.932 150.197 248.612 151.314 249.489 152.269C250.366 153.224 251.424 153.997 252.602 154.544C253.779 155.092 255.054 155.403 256.353 155.46C257.652 155.517 258.949 155.319 260.171 154.877L287.834 144.898L365.84 116.755C368.305 115.861 370.314 114.03 371.425 111.665C372.536 109.3 372.66 106.592 371.768 104.136V104.136Z" fill="white"/>
<path d="M384.314 138.573C383.415 136.119 381.576 134.121 379.199 133.015C376.822 131.909 374.101 131.786 371.633 132.673L359.563 137.029L287.834 162.911L265.972 170.796C263.507 171.687 261.498 173.517 260.388 175.881C259.277 178.246 259.155 180.953 260.049 183.407C260.942 185.861 262.779 187.862 265.154 188.969C267.529 190.077 270.249 190.201 272.716 189.314L287.834 183.855L378.385 151.183C378.591 151.112 378.789 151.026 378.987 150.939C381.286 149.935 383.115 148.099 384.105 145.803C385.094 143.507 385.168 140.922 384.314 138.573V138.573Z" fill="white"/>
<path d="M396.994 173.371C396.098 170.918 394.26 168.919 391.884 167.813C389.508 166.707 386.789 166.584 384.322 167.471L350.468 179.688L324.26 189.148L287.834 202.286L278.653 205.602C276.531 206.371 274.736 207.838 273.566 209.76C272.396 211.682 271.92 213.944 272.217 216.172C272.308 216.835 272.467 217.487 272.692 218.118L285.721 223.994L287.834 223.23H287.85L353.951 199.379L391.065 185.989C393.532 185.097 395.542 183.267 396.654 180.901C397.766 178.535 397.888 175.827 396.994 173.371H396.994Z" fill="white"/>
<path d="M322.804 70.2827C321.906 67.8294 320.066 65.8306 317.689 64.7247C315.312 63.6188 312.592 63.496 310.124 64.3832L269.202 79.1439C266.736 80.0355 264.727 81.8647 263.617 84.2294C262.506 86.5941 262.384 89.301 263.278 91.7551C264.171 94.2092 266.008 96.2098 268.383 97.3174C270.758 98.4249 273.478 98.5488 275.945 97.6617L288.895 92.9909L297.467 89.8954L316.876 82.8931C319.341 82.001 321.349 80.1721 322.461 77.808C323.572 75.4438 323.696 72.7374 322.804 70.2827Z" fill="white"/>
<path d="M486.112 89.8955H294.562C293.432 89.8966 292.321 90.1808 291.331 90.7217C290.34 91.2627 289.503 92.0431 288.895 92.991C288.2 94.0642 287.832 95.3141 287.834 96.5906V224.947L342.996 249.829L350.769 253.334L363.045 258.871C363.764 259.195 364.544 259.362 365.333 259.362C366.122 259.362 366.902 259.195 367.62 258.871L379.897 253.334L418.318 236.006L454.127 219.851L492.84 202.396V96.5906C492.839 94.8153 492.13 93.113 490.868 91.8577C489.607 90.6024 487.896 89.8966 486.112 89.8955Z" fill="#63BEFF"/>
<path d="M446.536 179.688H334.139C331.583 179.69 329.127 180.676 327.285 182.439C325.444 184.203 324.36 186.607 324.26 189.148C324.247 189.276 324.242 189.405 324.244 189.534C324.248 192.144 325.292 194.646 327.146 196.492C329.001 198.338 331.516 199.376 334.139 199.38H446.536C449.16 199.38 451.676 198.343 453.532 196.496C455.387 194.65 456.43 192.145 456.43 189.534C456.43 186.923 455.387 184.419 453.532 182.572C451.676 180.726 449.16 179.688 446.536 179.688Z" fill="white"/>
<path d="M452.939 218.662C451.155 217.143 448.884 216.31 446.536 216.314H334.139C331.515 216.314 328.998 217.352 327.142 219.198C325.287 221.045 324.245 223.549 324.245 226.16C324.245 228.771 325.287 231.276 327.142 233.122C328.998 234.969 331.515 236.006 334.139 236.006H418.318L454.127 219.851C453.765 219.422 453.368 219.024 452.939 218.662Z" fill="white"/>
<path d="M350.769 253.334L363.045 258.871C363.764 259.194 364.544 259.362 365.333 259.362C366.122 259.362 366.902 259.194 367.62 258.871L379.897 253.334H350.769Z" fill="white"/>
<path d="M421.397 137.714C420.7 135.819 419.435 134.182 417.773 133.026C416.111 131.869 414.132 131.248 412.104 131.248H368.57C366.669 131.249 364.81 131.795 363.212 132.821C361.615 133.846 360.348 135.307 359.563 137.029C358.976 138.304 358.674 139.691 358.676 141.093C358.68 143.703 359.723 146.206 361.578 148.051C363.433 149.897 365.947 150.935 368.57 150.939H412.104C413.696 150.939 415.264 150.557 416.676 149.825C418.087 149.094 419.301 148.034 420.213 146.736C421.125 145.438 421.709 143.94 421.915 142.369C422.121 140.799 421.943 139.202 421.397 137.714Z" fill="white"/>
<path d="M414.479 236.005L376.058 253.334L366.963 257.438C366.451 257.667 365.895 257.786 365.333 257.786C364.771 257.786 364.215 257.667 363.702 257.438L354.608 253.334H350.769L363.045 258.871C363.764 259.194 364.544 259.361 365.333 259.361C366.122 259.361 366.902 259.194 367.621 258.871L379.897 253.334L418.318 236.005H414.479ZM414.479 236.005L376.058 253.334L366.963 257.438C366.451 257.667 365.895 257.786 365.333 257.786C364.771 257.786 364.215 257.667 363.702 257.438L354.608 253.334H350.769L363.045 258.871C363.764 259.194 364.544 259.361 365.333 259.361C366.122 259.361 366.902 259.194 367.621 258.871L379.897 253.334L418.318 236.005H414.479ZM414.479 236.005L376.058 253.334L366.963 257.438C366.451 257.667 365.895 257.786 365.333 257.786C364.771 257.786 364.215 257.667 363.702 257.438L354.608 253.334H350.769L363.045 258.871C363.764 259.194 364.544 259.361 365.333 259.361C366.122 259.361 366.902 259.194 367.621 258.871L379.897 253.334L418.318 236.005H414.479ZM543.427 181.823C543.135 181.534 542.814 181.275 542.469 181.051C541.691 180.549 540.799 180.251 539.875 180.183C538.951 180.116 538.024 180.281 537.182 180.665L452.939 218.661L414.479 236.005L376.058 253.334L366.963 257.438C366.451 257.667 365.895 257.786 365.333 257.786C364.771 257.786 364.215 257.667 363.702 257.438L354.608 253.334L345.133 249.057L287.85 223.23L287.834 223.222L272.217 216.172L225.589 195.142L193.484 180.665C193.158 180.514 192.815 180.401 192.463 180.326C191.688 180.133 190.879 180.117 190.096 180.279C188.844 180.534 187.719 181.21 186.91 182.195C186.102 183.179 185.659 184.411 185.656 185.682V383.486C185.658 384.948 186.242 386.35 187.281 387.383C188.319 388.417 189.728 388.998 191.197 389H539.469C540.938 388.998 542.347 388.417 543.385 387.383C544.424 386.35 545.008 384.948 545.01 383.486V185.682C545.013 184.239 544.444 182.852 543.427 181.823V181.823ZM543.427 383.486C543.426 384.531 543.009 385.532 542.267 386.271C541.525 387.009 540.519 387.424 539.469 387.424H191.197C190.147 387.424 189.141 387.009 188.399 386.271C187.656 385.532 187.239 384.531 187.239 383.486V185.682C187.239 185.024 187.405 184.376 187.722 183.798C188.039 183.22 188.496 182.731 189.052 182.374C189.443 182.125 189.874 181.944 190.326 181.838C190.459 181.81 190.594 181.789 190.73 181.775C190.884 181.753 191.04 181.743 191.197 181.744C191.759 181.745 192.315 181.865 192.827 182.098L226.34 197.213L272.692 218.118L285.721 223.994L287.834 224.947L342.996 249.829L350.769 253.334L363.045 258.871C363.764 259.194 364.544 259.361 365.333 259.361C366.122 259.361 366.902 259.194 367.62 258.871L379.897 253.334L418.318 236.005L454.127 219.851L537.839 182.098C538.441 181.827 539.102 181.71 539.762 181.758C540.421 181.806 541.058 182.018 541.614 182.374C541.678 182.411 541.739 182.453 541.796 182.5C541.86 182.54 541.918 182.588 541.97 182.642C542.426 183.008 542.793 183.472 543.045 183.998C543.297 184.524 543.427 185.099 543.427 185.682L543.427 383.486ZM414.479 236.005L376.058 253.334L366.963 257.438C366.451 257.667 365.895 257.786 365.333 257.786C364.771 257.786 364.215 257.667 363.702 257.438L354.608 253.334H350.769L363.045 258.871C363.764 259.194 364.544 259.361 365.333 259.361C366.122 259.361 366.902 259.194 367.621 258.871L379.897 253.334L418.318 236.005H414.479ZM414.479 236.005L376.058 253.334L366.963 257.438C366.451 257.667 365.895 257.786 365.333 257.786C364.771 257.786 364.215 257.667 363.702 257.438L354.608 253.334H350.769L363.045 258.871C363.764 259.194 364.544 259.361 365.333 259.361C366.122 259.361 366.902 259.194 367.621 258.871L379.897 253.334L418.318 236.005H414.479ZM285.721 223.994L287.834 224.947V223.23L285.721 223.994ZM414.479 236.005L376.058 253.334L366.963 257.438C366.451 257.667 365.895 257.786 365.333 257.786C364.771 257.786 364.215 257.667 363.702 257.438L354.608 253.334H350.769L363.045 258.871C363.764 259.194 364.544 259.361 365.333 259.361C366.122 259.361 366.902 259.194 367.621 258.871L379.897 253.334L418.318 236.005H414.479Z" fill="#3F3D56"/>
<path d="M138.934 389H49.4911C49.2812 389 49.0798 388.917 48.9314 388.769C48.783 388.622 48.6996 388.421 48.6996 388.212C48.6996 388.004 48.783 387.803 48.9314 387.656C49.0798 387.508 49.2812 387.425 49.4911 387.425H138.934C139.144 387.425 139.345 387.508 139.494 387.656C139.642 387.803 139.725 388.004 139.725 388.212C139.725 388.421 139.642 388.622 139.494 388.769C139.345 388.917 139.144 389 138.934 389Z" fill="#3F3D56"/>
<path d="M88.9581 135.072C87.4978 134.334 86.2837 133.192 85.4625 131.782C84.6413 130.372 84.2484 128.756 84.3313 127.128C84.4142 125.501 84.9694 123.932 85.9295 122.612C86.8897 121.292 88.2138 120.278 89.7415 119.691C95.6079 117.438 102.185 122.036 108.334 120.729C114.463 119.426 118.009 112.134 116.546 106.07C115.083 100.005 109.758 95.4375 103.886 93.2561C100.052 91.8349 95.9451 91.29 91.8702 91.6617C87.7953 92.0334 83.8566 93.3122 80.3455 95.4034C76.8706 97.5558 73.9765 100.52 71.915 104.039C69.8535 107.558 68.6868 111.524 68.5164 115.594C68.4366 119.667 69.4366 123.689 71.4159 127.256C73.3951 130.822 76.2836 133.806 79.7906 135.908C81.3535 136.805 83.1728 137.524 84.9305 137.121C86.3736 136.654 87.7331 135.963 88.9581 135.072V135.072Z" fill="#2F2E41"/>
<path d="M82.6581 94.9316C77.4851 88.1038 70.502 82.4947 62.3763 79.7138C54.2506 76.9329 44.9649 77.1561 37.3333 81.0861C29.7018 85.0161 24.0105 92.8212 23.4164 101.352C22.4277 115.549 34.6185 127.617 35.8696 141.794C36.2662 146.287 35.5332 150.809 33.7368 154.95C31.9404 159.092 29.1369 162.723 25.5789 165.518C22.0209 168.313 17.8201 170.184 13.3548 170.961C8.8896 171.738 4.3002 171.398 0 169.971C3.06285 172.48 6.61398 174.331 10.4303 175.409C14.2467 176.487 18.2457 176.767 22.1763 176.234C26.1005 175.648 29.8444 174.2 33.1366 171.995C36.4288 169.791 39.1867 166.885 41.2104 163.488C43.9541 158.745 45.0807 153.234 45.5183 147.779C46.2056 139.152 45.2748 130.473 42.7735 122.185C41.4061 117.663 39.5517 113.009 40.4188 108.367C40.9131 105.952 42.1095 103.735 43.8594 101.991C45.6094 100.247 47.8357 99.0528 50.2618 98.5574C54.1825 97.8264 58.1911 99.0171 61.9348 100.388C65.6785 101.758 69.4529 103.344 73.4408 103.434C77.4287 103.525 81.7723 101.709 83.3134 98.0475L82.6581 94.9316Z" fill="#2F2E41"/>
</g>
<defs>
<clipPath id="clip0_45_46">
<rect width="602" height="389" fill="white"/>
</clipPath>
</defs>
</svg>
