<svg width="709" height="361" viewBox="0 0 709 361" fill="none" xmlns="http://www.w3.org/2000/svg">
<g clip-path="url(#clip0_23_189)">
<path d="M677.074 199.581L674.856 217.198L669.352 260.954H558.773C559.636 251.147 560.817 237.031 562.078 221.792C562.202 220.27 562.333 218.739 562.457 217.198C565.619 178.891 569.079 135.544 569.079 135.544L583.617 138.245L611.822 143.477L623.316 145.608L654.093 151.325C669.439 154.169 679.994 176.333 677.074 199.581V199.581Z" fill="#F2F2F2"/>
<path d="M593.431 64.6586L607.029 88.3961L580.893 106.873L569.744 77.695L593.431 64.6586Z" fill="#FFB6B6"/>
<path d="M576.119 87.1152C594.724 87.1152 609.807 72.07 609.807 53.5107C609.807 34.9514 594.724 19.9061 576.119 19.9061C557.514 19.9061 542.432 34.9514 542.432 53.5107C542.432 72.07 557.514 87.1152 576.119 87.1152Z" fill="#FFB6B6"/>
<path d="M573.7 61.0233C571.025 56.9623 572.075 54.8382 569.836 53.3458C569.836 53.3457 568.935 52.7452 562.485 52.4028C561.041 42.0357 559.239 40.7785 559.239 40.7785C557.161 39.3295 554.078 39.8003 552.16 40.6865C548.104 42.5608 548.574 46.6095 545.843 47.3843C542.069 48.4545 535.205 42.421 534.528 35.5139C533.977 29.8796 537.616 24.4073 539.059 24.6968C540.49 24.9839 543.916 20.6205 545.766 20.6878C547.03 20.7338 552.192 18.4957 553.58 18.6706C555.097 18.8618 560.097 21.4647 560.305 20.87C561.753 16.7375 561.328 15.5908 562.556 14.4086C564.734 12.3137 568.295 13.7725 573.882 14.5557C585.378 16.1672 587.384 12.386 593.276 14.9489C596.252 16.2436 598.742 19.7351 603.601 26.6652C610.396 36.3569 613.793 41.2028 613.815 46.8548C613.837 52.6188 611.039 52.2529 609.81 60.7861C608.442 70.285 611.349 74.6284 608.173 77.7144C605.719 80.0994 600.73 80.6656 598.109 78.5723C593.621 74.9885 599.494 66.3407 594.528 60.0226C591.479 56.1443 585.349 54.4187 582.54 56.3358C579.365 58.5034 581.114 64.8659 578.881 65.4692C576.969 65.9859 574.167 61.7309 573.7 61.0233L573.7 61.0233Z" fill="#2F2E41"/>
<path d="M652.174 193.377C651.235 209.403 647.502 214.463 646.195 233.39C645.91 237.545 645.738 242.369 645.738 248.121C645.738 249.588 645.746 251.006 645.746 252.391C645.746 255.34 645.689 258.127 645.346 260.954C645.085 263.211 644.636 265.484 643.892 267.879H571.337C571.329 267.863 571.329 267.847 571.32 267.831C570.896 265.989 570.626 264.229 570.422 262.543C570.357 262.005 570.299 261.475 570.251 260.954C570.185 260.343 570.128 259.74 570.071 259.145C569.85 256.774 569.63 254.534 569.107 252.391C568.405 249.433 567.13 246.646 564.516 243.958C563.447 242.858 562.377 242.002 561.331 241.253C561.127 241.114 560.931 240.976 560.727 240.837C557.835 238.857 555.099 237.431 552.73 233.39C552.69 233.333 552.657 233.268 552.624 233.211C552.216 232.502 551.154 230.644 550.386 228.168C549.577 225.593 549.087 222.358 549.97 219.05C552.069 211.212 559.845 210.43 566.199 202.51C566.885 201.655 567.563 200.71 568.209 199.658C571.083 194.998 571.859 190.892 572.774 186.011C572.921 185.22 573.052 184.438 573.158 183.681C573.24 183.11 573.314 182.548 573.371 181.994C573.877 177.342 573.632 173.333 573.036 169.748C571.092 158.007 565.358 150.739 569.409 140.204C570.684 136.897 572.489 134.411 574.31 132.285C578.165 127.779 582.127 124.854 581.441 119.037C580.746 113.17 576.286 112.363 575.789 107.238C575.535 104.648 576.384 101.918 577.977 99.2375V99.2296C583.074 90.6009 595.8 82.6568 603.886 82.9094C605.38 82.9504 606.704 83.2842 607.806 83.9279C611.801 86.2744 610.134 91.3993 616.252 98.5859C620.801 103.922 625.947 106.057 627.9 107.067C635.634 111.093 641.924 122.964 646.195 138.143C646.228 138.257 646.261 138.371 646.293 138.494C648.932 148.002 650.794 158.798 651.717 169.748C652.109 174.384 652.338 179.045 652.386 183.656C652.428 187.339 652.346 190.533 652.174 193.377V193.377Z" fill="#63BEFF"/>
<path d="M597.842 248.284L596.363 252.391L595.432 254.965L593.276 260.954L590.776 267.879H574.71L577.406 260.954L578.655 257.727L580.73 252.391L584.209 243.428L597.842 248.284Z" fill="#FFB6B6"/>
<path d="M646.449 136.741C646.408 137.271 646.351 137.858 646.293 138.493C645.657 144.963 644.153 156.541 641.957 169.748C640.797 176.714 639.441 184.137 637.913 191.511C634.63 207.423 630.546 223.092 625.931 233.39C625.106 235.248 624.257 236.926 623.391 238.409C622.729 239.542 622.035 240.658 621.308 241.758C618.956 245.367 616.317 248.79 613.581 251.983C613.475 252.122 613.352 252.252 613.23 252.391C612.789 252.912 612.331 253.426 611.874 253.939C609.636 256.456 607.349 258.803 605.136 260.954C602.44 263.578 599.843 265.9 597.515 267.879H571.426L571.32 267.83L567.563 266.168C567.563 266.168 568.633 264.914 570.422 262.543C570.79 262.062 571.182 261.532 571.607 260.954C572.129 260.245 572.693 259.463 573.297 258.615C574.555 256.839 575.984 254.753 577.52 252.391C580.493 247.82 583.882 242.198 587.305 235.688C587.698 234.93 588.097 234.164 588.498 233.39C588.506 233.366 588.522 233.341 588.53 233.317C589.208 231.997 589.878 230.636 590.548 229.251C596.224 217.469 597.85 207.692 598.316 204.523C598.969 200.042 599.875 193.776 599.63 186.883C599.467 182.336 598.806 177.529 597.229 172.755V172.747C596.902 171.744 596.535 170.742 596.118 169.748C595.375 167.964 594.493 166.204 593.447 164.468C588.833 156.826 585.084 156.508 582.102 148.181C581.22 145.712 579.219 140.139 579.831 134.256V134.249C579.905 133.523 580.027 132.79 580.191 132.056V132.048C580.232 131.845 580.289 131.633 580.347 131.429C580.812 129.629 581.58 127.844 582.747 126.149C585.026 122.858 588.138 120.902 590.923 119.737L590.932 119.729C594.15 118.393 596.927 118.108 597.466 118.059C609.399 117 618.653 127.005 623.71 132.472C625.662 134.582 627.451 136.351 629.084 137.792C641.801 149.118 645.289 141.883 646.195 138.143C646.334 137.565 646.408 137.068 646.449 136.741V136.741Z" fill="#63BEFF"/>
<path d="M646.49 136.318C646.49 136.359 646.482 136.497 646.449 136.725C646.465 136.603 646.474 136.481 646.482 136.367C646.482 136.342 646.482 136.326 646.49 136.318V136.318Z" fill="#63BEFF"/>
<path d="M581.62 308.243H143.781C139.713 308.243 136.397 311.543 136.397 315.601C136.397 319.667 139.713 322.966 143.781 322.966H581.62C585.687 322.966 588.996 319.667 588.996 315.601C588.996 311.543 585.687 308.243 581.62 308.243Z" fill="#E6E6E6"/>
<path d="M484.455 346.277H240.938C236.87 346.277 233.563 349.577 233.563 353.634C233.563 357.692 236.87 361 240.938 361H484.455C488.523 361 491.839 357.692 491.839 353.634C491.839 349.577 488.523 346.277 484.455 346.277V346.277Z" fill="#E6E6E6"/>
<path d="M192.502 66.2206L220.096 54.6364L231.932 78.8396L202.934 90.646L192.502 66.2206Z" fill="#FFB6B6"/>
<path opacity="0.1" d="M192.502 66.2206L220.096 54.6364L231.932 78.8396L202.934 90.646L192.502 66.2206Z" fill="black"/>
<path d="M196.425 56.9976L223.647 88.2848C223.647 88.2848 204.71 147.907 185.773 153.22C166.836 158.533 131.92 184.507 131.92 184.507L88.1286 156.172L109.433 124.885C109.433 124.885 160.918 54.6364 174.529 54.6364C188.14 54.6364 196.425 56.9976 196.425 56.9976V56.9976Z" fill="#63BEFF"/>
<path d="M159.645 260.954H96.2775L92.2711 255.612L75.9142 233.799L72.1505 228.782C72.1505 228.782 57.9477 202.807 60.9066 179.194C63.8656 155.582 94.6382 150.269 94.6382 150.269H95.9046L133.577 183.291L131.329 214.023L143.259 233.799L159.645 260.954V260.954Z" fill="#2F2E41"/>
<path d="M109.255 260.954H92.2711V235.865L109.255 260.954Z" fill="#2F2E41"/>
<path d="M475.58 222.866L473.467 233.799L468.224 260.954H362.893C363.715 254.868 364.84 246.107 366.041 236.651C366.16 235.706 366.284 234.756 366.402 233.799C369.414 210.027 372.711 183.126 372.711 183.126L386.558 184.802L413.425 188.049L424.373 189.372L453.69 192.919C468.307 194.684 478.361 208.439 475.58 222.866H475.58Z" fill="#F2F2F2"/>
<path d="M624.644 260.954H567.513C568.383 259.933 568.874 259.343 568.874 259.343L586.001 256.521L621.289 250.712C621.289 250.712 622.898 254.862 624.644 260.954V260.954Z" fill="#2F2E41"/>
<path d="M382.312 78.0279L407.157 113.078L363.819 114.369L359.167 81.4302L382.312 78.0279Z" fill="#A0616A"/>
<path opacity="0.1" d="M382.312 78.0279L407.157 113.078L363.819 114.369L359.167 81.4302L382.312 78.0279Z" fill="black"/>
<path d="M259.786 150.649C256.598 141.475 249.269 135.68 243.417 137.705C237.565 139.73 235.406 148.806 238.596 157.983C239.82 161.666 241.911 165.003 244.693 167.715L258.692 206.414L276.757 199.474L261.038 162.06C261.54 158.211 261.111 154.298 259.786 150.649V150.649Z" fill="#A0616A"/>
<path d="M427.964 132.789L427.93 168.51L424.598 181.703L417.745 208.84L412.756 233.799L409.04 252.394L407.714 259.036C406.714 259.703 405.72 260.34 404.726 260.954H318.166C313.248 258.008 310.497 255.718 310.497 255.718C310.497 255.718 311.858 254.443 313.414 252.394C316.042 248.935 319.219 243.268 317.272 237.855C316.864 236.721 316.758 235.34 316.882 233.799C317.675 223.634 328.362 206.444 328.362 206.444L326.149 180.93L325.179 169.749L332.021 115.233L354.326 102.299L358.176 101.927L396.187 99.8787L411.897 100.782L412.613 100.977L427.964 132.789V132.789Z" fill="#CCCCCC"/>
<path d="M429.652 260.954H410.715L409.88 252.394L409.863 252.223L415.224 251.857L429.173 250.907L429.415 256.031L429.605 259.962L429.652 260.954Z" fill="#FFB6B6"/>
<path d="M434.314 141.426L442.269 187.984L435.777 233.799L434.765 240.93L432.978 253.522L432.427 257.394L432.445 257.814L432.581 260.954H410.093L409.265 252.394L409.194 251.627L407.501 234.094L407.472 233.799L403.88 196.621L410.922 169.749L411.443 167.772V167.766L414.507 121.756L412.134 100.847L412.11 100.652C412.157 100.682 412.199 100.711 412.246 100.741C412.37 100.817 412.495 100.894 412.613 100.977C426.437 109.725 434.675 125.074 434.314 141.426V141.426Z" fill="#CCCCCC"/>
<path d="M340.078 124.154L331.43 115.232C331.43 115.232 312.918 123.557 311.995 128.176C311.073 132.794 278.387 200.63 278.387 200.63L264.167 162.744L245.657 175.072C245.657 175.072 260.51 233.892 274.4 236.653C288.29 239.415 334.844 167.034 334.844 167.034L340.078 124.154H340.078Z" fill="#CCCCCC"/>
<path d="M691.209 233.39H17.7834C8.25151 233.39 0.5 241.13 0.5 250.639C0.5 260.147 8.25151 267.879 17.7834 267.879H691.209C700.741 267.879 708.5 260.147 708.5 250.639C708.5 241.13 700.741 233.39 691.209 233.39Z" fill="#E6E6E6"/>
<path d="M424.023 180.831L422.713 241.778C422.587 247.678 417.756 252.394 411.84 252.394H299.448C293.672 252.394 288.904 247.891 288.588 242.138L285.248 181.191C284.908 174.975 289.868 169.749 296.108 169.749H413.149C419.247 169.749 424.153 174.749 424.023 180.831V180.831Z" fill="#3F3D56"/>
<path d="M242.583 80.9326C257.435 80.9326 269.474 68.9231 269.474 54.1088C269.474 39.2944 257.435 27.2849 242.583 27.2849C227.732 27.2849 215.693 39.2944 215.693 54.1088C215.693 68.9231 227.732 80.9326 242.583 80.9326Z" fill="#FFB6B6"/>
<path d="M197.608 124.294L200.567 156.172L220.688 237.046L203.305 243.124L173.937 154.991L169.881 119.572L197.608 124.294Z" fill="#FFB6B6"/>
<path d="M189.605 180.831L188.295 241.778C188.169 247.678 183.338 252.394 177.422 252.394H65.0298C59.2539 252.394 54.4854 247.891 54.1701 242.138L50.83 181.191C50.4894 174.975 55.4498 169.749 61.6897 169.749H178.731C184.829 169.749 189.735 174.749 189.605 180.831V180.831Z" fill="#3F3D56"/>
<path d="M223.892 252.806C235.62 252.806 245.128 248.611 245.128 243.436C245.128 238.262 235.62 234.067 223.892 234.067C212.163 234.067 202.655 238.262 202.655 243.436C202.655 248.611 212.163 252.806 223.892 252.806Z" fill="#FFB6B6"/>
<path d="M155.888 129.168L168.019 64.6718C168.019 64.6718 201.751 59.9492 202.934 71.1654C204.118 82.3815 202.088 137.196 202.088 137.196L155.888 129.168V129.168Z" fill="#63BEFF"/>
<path d="M231.729 58.3264C231.729 58.3264 248.363 52.4043 255.38 49.2179C262.396 46.0316 276.336 68.2562 276.646 56.5186C276.956 44.781 272.139 39.8588 272.139 39.8588C272.139 39.8588 270.937 14.1812 245.003 17.3915C245.003 17.3915 250.707 4.54465 231.983 2.55812C213.258 0.571596 184.128 45.6768 186.737 52.4175C189.345 59.1582 192.473 64.731 185.071 71.9384C177.67 79.1457 163.81 119.822 174.355 130.768C184.9 141.713 185.592 146.463 178.367 153.273C171.142 160.082 154.064 174.889 172.529 177.459C190.994 180.03 170.84 178.11 184.606 166.031C198.372 153.952 218.46 154.446 210.959 135.066C203.459 115.686 216.49 87.9157 214.859 83.7027C213.229 79.4898 218.512 52.7372 218.512 52.7372C218.512 52.7372 230.809 50.9351 231.729 58.3264V58.3264Z" fill="#2F2E41"/>
<path d="M369.027 90.7141C385.194 90.7141 398.299 77.641 398.299 61.5144C398.299 45.3879 385.194 32.3148 369.027 32.3148C352.861 32.3148 339.756 45.3879 339.756 61.5144C339.756 77.641 352.861 90.7141 369.027 90.7141Z" fill="#A0616A"/>
<path d="M371.364 22.2575C370.517 22.7507 369.382 22.0045 369.11 21.0644C368.839 20.1244 369.155 19.1262 369.469 18.1993L371.048 13.533C372.168 10.2235 373.357 6.79837 375.783 4.27943C379.445 0.477501 385.264 -0.489693 390.502 0.211005C397.229 1.11084 403.866 4.74445 406.994 10.7531C410.122 16.7617 408.79 25.146 403.138 28.8947C411.193 38.1044 414.001 48.3683 413.558 60.5826C413.115 72.7968 399.771 84.0379 391.069 92.6423C389.126 91.4673 387.36 85.9604 388.428 83.9599C389.497 81.9594 387.966 79.6417 389.289 77.799C390.613 75.9563 391.72 78.8904 390.382 77.0582C389.538 75.902 392.833 73.2422 391.578 72.5502C385.508 69.2032 383.489 61.6558 379.677 55.8761C375.078 48.9048 367.208 44.1838 358.879 43.4006C354.291 42.9691 349.445 43.7506 345.684 46.4076C341.924 49.0646 339.489 53.8127 340.361 58.3267C338.103 56.0391 336.979 52.6868 337.403 49.5041C337.827 46.3214 339.79 43.3783 342.569 41.7586C340.879 36.1844 342.326 29.7725 346.248 25.4589C350.171 21.1454 366.08 21.8801 371.806 23.0153L371.364 22.2575V22.2575Z" fill="#2F2E41"/>
<path d="M372.253 43.5698C379.836 44.3865 385.312 50.9395 389.936 56.9912C392.601 60.4793 395.393 64.3313 395.326 68.7164C395.258 73.15 392.286 76.9527 390.866 81.1543C388.545 88.022 390.807 96.1929 396.333 100.899C390.873 101.932 384.971 97.8483 384.028 92.3848C382.931 86.0247 387.764 79.8862 387.191 73.4578C386.687 67.7944 382.213 63.4357 378.409 59.2011C374.606 54.9666 371.034 49.3474 372.783 43.9363L372.253 43.5698V43.5698Z" fill="#2F2E41"/>
<path d="M485.629 237.081C478.117 241.343 474.233 248.664 476.953 253.432C479.673 258.201 487.966 258.61 495.48 254.345C498.504 252.683 501.086 250.322 503.009 247.46L534.608 229.001L525.608 214.393L495.413 234.142C491.963 234.328 488.608 235.336 485.629 237.081Z" fill="#FFB6B6"/>
<path d="M592.618 101.717C591.674 101.344 583.388 98.2138 575.824 102.346C567.134 107.093 565.792 117.93 565.322 121.731C564.234 130.511 567.438 132.479 568.114 141.367C569.379 157.997 572.715 139.026 567.388 146.617C565.543 149.244 546.709 189.961 536.321 197.936C516.119 213.447 503.291 224.371 503.291 224.371L517.936 240.241C517.936 240.241 541.079 234.09 561.533 220.841C582.515 207.25 593.006 200.455 601.123 187.162C601.822 186.017 618.546 157.687 609.564 126.36C607.515 119.214 603.762 106.122 592.618 101.717V101.717Z" fill="#63BEFF"/>
<path d="M668.242 180.831L666.933 241.778C666.806 247.678 661.975 252.394 656.06 252.394H543.667C537.892 252.394 533.123 247.891 532.808 242.138L529.468 181.191C529.127 174.975 534.087 169.749 540.327 169.749H657.369C663.467 169.749 668.373 174.749 668.242 180.831V180.831Z" fill="#3F3D56"/>
</g>
<defs>
<clipPath id="clip0_23_189">
<rect width="708" height="361" fill="white" transform="translate(0.5)"/>
</clipPath>
</defs>
</svg>
