<svg width="855" height="367" viewBox="0 0 855 367" fill="none" xmlns="http://www.w3.org/2000/svg">
<g clip-path="url(#clip0_11_2)">
<path d="M187.947 204.683C187.955 203.559 187.732 202.447 187.29 201.414C186.849 200.381 186.199 199.45 185.382 198.679C184.565 197.909 183.598 197.315 182.542 196.935C181.485 196.555 180.362 196.397 179.241 196.471C178.121 196.545 177.028 196.85 176.03 197.365C175.033 197.881 174.152 198.597 173.444 199.468C172.735 200.34 172.214 201.348 171.912 202.43C171.61 203.512 171.535 204.645 171.69 205.757L148.223 236.505C147.222 238.509 146.834 240.764 147.107 242.988C147.381 245.211 148.304 247.305 149.761 249.006L151.602 251.154L160.048 249.464L169.621 241.013L168.495 231.435L180.32 212.842L180.305 212.829C182.375 212.697 184.317 211.781 185.736 210.268C187.156 208.755 187.947 206.758 187.947 204.683V204.683Z" fill="#FFB9B9"/>
<path d="M25.6647 355.006L21.834 340.771L74.8859 319.215L80.5393 340.224L25.6647 355.006Z" fill="#FFB8B8"/>
<path d="M12.8508 362.352L0.499996 316.453L1.08021 316.297C5.81558 315.022 10.8634 315.68 15.1134 318.128C19.3634 320.577 22.4674 324.613 23.7428 329.351L23.7431 329.352L31.2864 357.386L12.8508 362.352Z" fill="#2F2E41"/>
<path d="M98.7413 352.732L86.8261 344.062L114.579 293.95L132.165 306.746L98.7413 352.732Z" fill="#FFB8B8"/>
<path d="M93.3809 366.5L54.9598 338.544L55.3132 338.057C58.1976 334.089 62.5392 331.43 67.3831 330.664C72.2271 329.899 77.1765 331.09 81.1428 333.975L81.1438 333.976L104.61 351.051L93.3809 366.5Z" fill="#2F2E41"/>
<path d="M200.029 282.705L170.044 253.561C167.427 251.017 163.98 249.505 160.338 249.301C156.695 249.098 153.101 250.217 150.217 252.453L93.6019 315.383L98.67 323.271L152.728 286.649L189.33 334.539L224.242 317.074L200.029 282.705Z" fill="#2F2E41"/>
<path d="M187.077 288.903L165.116 287.213L149.212 283.355C148.314 281.953 147.009 280.858 145.472 280.219C143.935 279.579 142.239 279.424 140.612 279.776C138.984 280.127 137.503 280.967 136.366 282.184C135.23 283.4 134.491 284.935 134.251 286.584C134.01 288.232 134.278 289.914 135.019 291.405C135.76 292.897 136.939 294.126 138.398 294.928C139.857 295.731 141.526 296.069 143.181 295.896C144.837 295.723 146.4 295.048 147.662 293.962L147.66 293.974L157.233 297.917L198.339 312.003L203.407 308.059L187.077 288.903Z" fill="#FFB9B9"/>
<path d="M240.009 349.752L227.621 357.64H212.98L144.845 332.286L45.1751 350.315L42.3596 328.905L133.583 288.903L213.543 315.383L240.009 349.752Z" fill="#2F2E41"/>
<path d="M213.543 212.842C225.672 212.842 235.504 203.004 235.504 190.869C235.504 178.733 225.672 168.896 213.543 168.896C201.414 168.896 191.582 178.733 191.582 190.869C191.582 203.004 201.414 212.842 213.543 212.842Z" fill="#FFB9B9"/>
<path d="M270.366 278.598C270.366 291.859 268.277 305.037 264.178 317.648L262.533 322.708L254.65 358.766L246.203 361.02L240.009 353.132L227.621 344.118L218.611 329.469L210.885 316.589L208.475 312.566L200.029 270.31L167.932 252.281L157.233 250.591L159.485 244.393L169.058 231.435L178.631 230.308L181.446 228.054L183.699 229.181L196.115 233.967L236.371 216.949L242.262 217.913L262.533 234.815C267.716 248.83 270.368 263.655 270.366 278.598V278.598Z" fill="#CCCCCC"/>
<path opacity="0.1" d="M264.222 273.691L242.824 287.776L210.885 316.589L208.475 312.566L201.718 278.762H203.408L220.864 246.647L264.222 273.691Z" fill="black"/>
<path d="M220.864 243.266L203.408 275.381L193.272 286.649L184.262 288.903L208.475 315.383L242.824 284.396L264.222 270.31L220.864 243.266Z" fill="#CCCCCC"/>
<path d="M196.462 174.531L194.083 175.447C193.721 175.202 193.412 174.889 193.172 174.524C192.932 174.16 192.766 173.752 192.683 173.323C192.601 172.895 192.603 172.454 192.691 172.026C192.779 171.599 192.95 171.193 193.194 170.831C193.207 170.812 193.22 170.794 193.233 170.775L188.836 170.569C191.659 166.808 195.248 163.689 199.365 161.419C203.483 159.149 208.035 157.78 212.721 157.402C217.407 157.024 222.119 157.646 226.547 159.227C230.975 160.808 235.016 163.311 238.405 166.572C238.605 165.882 240.787 167.224 241.678 168.585C241.977 167.462 244.024 172.889 244.747 176.725C245.082 175.448 246.371 177.509 245.242 179.488C245.957 179.383 246.28 181.214 245.727 182.234C246.509 181.866 246.377 184.051 245.529 185.512C246.645 185.413 245.434 208.419 228.68 206.743C227.514 201.381 227.842 201.714 226.469 194.819C225.83 194.14 225.13 193.522 224.431 192.905L220.651 189.566C216.255 185.684 212.257 180.893 206.401 179.442C202.377 178.445 199.832 178.22 202.025 173.683C200.044 174.51 198.194 175.74 196.195 176.508C196.221 175.874 196.501 175.165 196.462 174.531Z" fill="#2F2E41"/>
<path d="M224.524 197.348C226.701 197.348 228.465 195.582 228.465 193.404C228.465 191.226 226.701 189.46 224.524 189.46C222.347 189.46 220.582 191.226 220.582 193.404C220.582 195.582 222.347 197.348 224.524 197.348Z" fill="#FFB9B9"/>
<path d="M40.7066 100.257L39.5037 118.33L57.566 119.533L58.7689 101.461L40.7066 100.257Z" fill="#E6E6E6"/>
<path d="M29.0528 109.854L50.9856 111.315L49.5249 133.26L27.5922 131.799L29.0528 109.854ZM49.9685 112.206L29.9429 110.871L28.6093 130.908L48.6348 132.242L49.9685 112.206Z" fill="#CCCCCC"/>
<path d="M142.78 46.6679L125.081 50.4728L128.884 68.1809L146.582 64.376L142.78 46.6679Z" fill="#E6E6E6"/>
<path d="M130.357 38.0907L134.975 59.5934L113.484 64.2137L108.867 42.711L130.357 38.0907ZM133.84 58.8594L129.624 39.2265L110.002 43.445L114.218 63.0779L133.84 58.8594Z" fill="#CCCCCC"/>
<path d="M124.183 131.708L110.971 144.09L123.346 157.309L136.558 144.928L124.183 131.708Z" fill="#E6E6E6"/>
<path d="M137.508 129.856L121.465 144.891L106.438 128.84L122.481 113.805L137.508 129.856ZM121.509 143.54L136.157 129.812L122.437 115.156L107.789 128.884L121.509 143.54Z" fill="#CCCCCC"/>
<path d="M807.417 0.5H271.819C269.883 0.499998 267.966 0.881516 266.178 1.62277C264.389 2.36403 262.764 3.4505 261.395 4.82016C260.026 6.18983 258.94 7.81586 258.2 9.60541C257.459 11.395 257.077 13.313 257.077 15.25V313.839C257.077 315.776 257.459 317.694 258.2 319.484C258.94 321.273 260.026 322.899 261.395 324.269C262.764 325.639 264.389 326.725 266.178 327.466C267.966 328.208 269.883 328.589 271.819 328.589H807.417C811.326 328.589 815.076 327.035 817.841 324.269C820.605 321.503 822.158 317.751 822.158 313.839V15.25C822.158 11.338 820.605 7.58634 817.841 4.82018C815.076 2.05402 811.326 0.500002 807.417 0.5V0.5Z" fill="#3F3D56"/>
<path d="M802.394 26.5674H276.842V323.196H802.394V26.5674Z" fill="white"/>
<path d="M539.169 18.4775C542.146 18.4775 544.559 16.0629 544.559 13.0842C544.559 10.1056 542.146 7.69101 539.169 7.69101C536.192 7.69101 533.778 10.1056 533.778 13.0842C533.778 16.0629 536.192 18.4775 539.169 18.4775Z" fill="white"/>
<path d="M652.095 323.196H276.842V26.5678L652.095 323.196Z" fill="#F2F2F2"/>
<path d="M359.075 300.999C386.975 300.999 409.593 278.369 409.593 250.454C409.593 222.538 386.975 199.908 359.075 199.908C331.175 199.908 308.557 222.538 308.557 250.454C308.557 278.369 331.175 300.999 359.075 300.999Z" fill="#63BEFF"/>
<path d="M370.321 288.444C357.892 288.444 345.743 284.756 335.409 277.847C325.075 270.939 317.021 261.119 312.265 249.63C307.509 238.142 306.264 225.5 308.689 213.304C311.114 201.107 317.099 189.904 325.887 181.111C334.675 172.318 345.872 166.33 358.061 163.904C370.251 161.478 382.886 162.723 394.368 167.482C405.851 172.241 415.665 180.3 422.57 190.639C429.474 200.979 433.16 213.135 433.16 225.57C433.16 233.826 431.535 242.002 428.377 249.631C425.219 257.259 420.59 264.19 414.755 270.028C408.92 275.867 401.992 280.498 394.368 283.658C386.744 286.817 378.573 288.444 370.321 288.444V288.444ZM370.321 163.518C358.055 163.518 346.064 167.157 335.866 173.976C325.667 180.794 317.718 190.485 313.024 201.824C308.33 213.162 307.102 225.639 309.495 237.675C311.888 249.712 317.794 260.769 326.468 269.447C335.141 278.125 346.191 284.035 358.222 286.429C370.252 288.824 382.722 287.595 394.054 282.898C405.386 278.202 415.072 270.248 421.887 260.044C428.701 249.84 432.338 237.843 432.338 225.57C432.338 217.421 430.734 209.352 427.618 201.824C424.501 194.295 419.933 187.455 414.174 181.693C408.415 175.93 401.578 171.36 394.054 168.241C386.53 165.123 378.465 163.518 370.321 163.518L370.321 163.518Z" fill="#3F3D56"/>
<path d="M680.73 180.675H631.638V190.938H680.73V180.675Z" fill="#3F3D56"/>
<path d="M727.176 125.07H585.192V129.469H727.176V125.07Z" fill="#3F3D56"/>
<path d="M727.176 142.352H585.192V146.751H727.176V142.352Z" fill="#3F3D56"/>
<path d="M727.176 159.634H585.192V164.033H727.176V159.634Z" fill="#3F3D56"/>
<path d="M765.211 44.3193H744.695V64.8468H765.211V44.3193Z" fill="#63BEFF"/>
<path d="M774.736 74.3774H749.824V49.4512H774.736V74.3774ZM750.907 73.2937H773.653V50.5349H750.907L750.907 73.2937Z" fill="#CCCCCC"/>
<path d="M836.915 317.803H785.624V314.105C785.624 314.009 785.605 313.914 785.568 313.825C785.532 313.736 785.478 313.655 785.41 313.587C785.342 313.519 785.261 313.465 785.172 313.428C785.083 313.391 784.988 313.372 784.891 313.372H767.306C767.21 313.372 767.115 313.391 767.026 313.428C766.937 313.465 766.856 313.519 766.788 313.587C766.72 313.655 766.666 313.736 766.629 313.825C766.592 313.914 766.573 314.009 766.573 314.105V317.803H755.583V314.105C755.583 314.009 755.564 313.914 755.527 313.825C755.49 313.736 755.436 313.655 755.368 313.587C755.3 313.519 755.219 313.465 755.13 313.428C755.041 313.391 754.946 313.372 754.85 313.372H737.265C737.168 313.372 737.073 313.391 736.984 313.428C736.895 313.465 736.815 313.519 736.747 313.587C736.678 313.655 736.624 313.736 736.588 313.825C736.551 313.914 736.532 314.009 736.532 314.105V314.105V317.803H725.541V314.105C725.541 314.009 725.522 313.914 725.485 313.825C725.449 313.736 725.395 313.655 725.326 313.587C725.258 313.519 725.178 313.465 725.089 313.428C725 313.391 724.905 313.372 724.808 313.372H707.223C707.127 313.372 707.032 313.391 706.943 313.428C706.854 313.465 706.773 313.519 706.705 313.587C706.637 313.655 706.583 313.736 706.546 313.825C706.509 313.914 706.49 314.009 706.49 314.105V314.105V317.803H695.5V314.105C695.5 314.009 695.481 313.914 695.444 313.825C695.407 313.736 695.353 313.655 695.285 313.587C695.217 313.519 695.136 313.465 695.047 313.428C694.958 313.391 694.863 313.372 694.767 313.372H677.182C677.085 313.372 676.99 313.391 676.901 313.428C676.812 313.465 676.731 313.519 676.663 313.587C676.595 313.655 676.541 313.736 676.505 313.825C676.468 313.914 676.449 314.009 676.449 314.105V317.803H665.458V314.105C665.458 314.009 665.439 313.914 665.402 313.825C665.365 313.736 665.311 313.655 665.243 313.587C665.175 313.519 665.095 313.465 665.006 313.428C664.917 313.391 664.822 313.372 664.725 313.372H647.14C647.044 313.372 646.948 313.391 646.86 313.428C646.771 313.465 646.69 313.519 646.622 313.587C646.554 313.655 646.5 313.736 646.463 313.825C646.426 313.914 646.407 314.009 646.407 314.105V314.105V317.803H635.416V314.105C635.416 314.009 635.397 313.914 635.361 313.825C635.324 313.736 635.27 313.655 635.202 313.587C635.134 313.519 635.053 313.465 634.964 313.428C634.875 313.391 634.78 313.372 634.684 313.372H617.098C617.002 313.372 616.907 313.391 616.818 313.428C616.729 313.465 616.648 313.519 616.58 313.587C616.512 313.655 616.458 313.736 616.421 313.825C616.385 313.914 616.366 314.009 616.366 314.105V314.105V317.803H605.375V314.105C605.375 314.009 605.356 313.914 605.319 313.825C605.282 313.736 605.228 313.655 605.16 313.587C605.092 313.519 605.011 313.465 604.923 313.428C604.834 313.391 604.738 313.372 604.642 313.372H466.891C466.794 313.372 466.699 313.391 466.61 313.428C466.521 313.465 466.44 313.519 466.372 313.587C466.304 313.655 466.25 313.736 466.214 313.825C466.177 313.914 466.158 314.009 466.158 314.105V314.105V317.803H455.167V314.105C455.167 314.009 455.148 313.914 455.111 313.825C455.074 313.736 455.02 313.655 454.952 313.587C454.884 313.519 454.804 313.465 454.715 313.428C454.626 313.391 454.531 313.372 454.434 313.372H436.849C436.753 313.372 436.657 313.391 436.569 313.428C436.48 313.465 436.399 313.519 436.331 313.587C436.263 313.655 436.209 313.736 436.172 313.825C436.135 313.914 436.116 314.009 436.116 314.105V314.105V317.803H425.125V314.105C425.125 314.009 425.106 313.914 425.07 313.825C425.033 313.736 424.979 313.655 424.911 313.587C424.843 313.519 424.762 313.465 424.673 313.428C424.584 313.391 424.489 313.372 424.393 313.372H406.807C406.711 313.372 406.616 313.391 406.527 313.428C406.438 313.465 406.357 313.519 406.289 313.587C406.221 313.655 406.167 313.736 406.13 313.825C406.094 313.914 406.075 314.009 406.075 314.105V314.105V317.803H395.084V314.105C395.084 314.009 395.065 313.914 395.028 313.825C394.991 313.736 394.937 313.655 394.869 313.587C394.801 313.519 394.72 313.465 394.632 313.428C394.543 313.391 394.447 313.372 394.351 313.372H376.766C376.67 313.372 376.574 313.391 376.485 313.428C376.397 313.465 376.316 313.519 376.248 313.587C376.18 313.655 376.126 313.736 376.089 313.825C376.052 313.914 376.033 314.009 376.033 314.105V314.105V317.803H365.042V314.105C365.042 314.009 365.023 313.914 364.987 313.825C364.95 313.736 364.896 313.655 364.828 313.587C364.76 313.519 364.679 313.465 364.59 313.428C364.501 313.391 364.406 313.372 364.31 313.372H346.724C346.628 313.372 346.533 313.391 346.444 313.428C346.355 313.465 346.274 313.519 346.206 313.587C346.138 313.655 346.084 313.736 346.047 313.825C346.011 313.914 345.992 314.009 345.992 314.105V314.105V317.803H335.001V314.105C335.001 314.009 334.982 313.914 334.945 313.825C334.908 313.736 334.854 313.655 334.786 313.587C334.718 313.519 334.637 313.465 334.548 313.428C334.46 313.391 334.364 313.372 334.268 313.372H316.683C316.488 313.372 316.302 313.449 316.165 313.587C316.027 313.724 315.95 313.911 315.95 314.105V317.803H304.959V314.105C304.959 314.009 304.94 313.914 304.903 313.825C304.867 313.736 304.813 313.655 304.745 313.587C304.677 313.519 304.596 313.465 304.507 313.428C304.418 313.391 304.323 313.372 304.226 313.372H286.641C286.447 313.372 286.26 313.449 286.123 313.587C285.986 313.724 285.908 313.911 285.908 314.105V317.803H252.203C247.539 317.803 243.066 319.657 239.769 322.956C236.471 326.256 234.618 330.731 234.618 335.398V343.354C234.618 348.02 236.471 352.496 239.769 355.795C243.066 359.095 247.539 360.949 252.203 360.949H836.915C841.579 360.949 846.051 359.095 849.349 355.795C852.647 352.496 854.5 348.02 854.5 343.354V335.398C854.5 333.087 854.045 330.799 853.161 328.664C852.278 326.53 850.982 324.59 849.349 322.956C847.716 321.322 845.778 320.026 843.644 319.142C841.511 318.258 839.224 317.803 836.915 317.803V317.803Z" fill="#3F3D56"/>
</g>
<defs>
<clipPath id="clip0_11_2">
<rect width="854" height="366" fill="white" transform="translate(0.5 0.5)"/>
</clipPath>
</defs>
</svg>
