<svg width="707" height="524" viewBox="0 0 707 524" fill="none" xmlns="http://www.w3.org/2000/svg">
<g clip-path="url(#clip0_24_1080)">
<path d="M707 0.463379H0.301758V524H707V0.463379Z" fill="#E6E6E6"/>
<path d="M686.792 66.1279H20.5096V493.027H686.792V66.1279Z" fill="white"/>
<path d="M706.698 0H0V34.7286H706.698V0Z" fill="#63BEFF"/>
<path d="M22.3108 24.1917C25.384 24.1917 27.8753 21.3099 27.8753 17.755C27.8753 14.2002 25.384 11.3184 22.3108 11.3184C19.2376 11.3184 16.7462 14.2002 16.7462 17.755C16.7462 21.3099 19.2376 24.1917 22.3108 24.1917Z" fill="white"/>
<path d="M43.4324 24.1917C46.5056 24.1917 48.997 21.3099 48.997 17.755C48.997 14.2002 46.5056 11.3184 43.4324 11.3184C40.3592 11.3184 37.8679 14.2002 37.8679 17.755C37.8679 21.3099 40.3592 24.1917 43.4324 24.1917Z" fill="white"/>
<path d="M64.5541 24.1917C67.6273 24.1917 70.1187 21.3099 70.1187 17.755C70.1187 14.2002 67.6273 11.3184 64.5541 11.3184C61.4809 11.3184 58.9896 14.2002 58.9896 17.755C58.9896 21.3099 61.4809 24.1917 64.5541 24.1917Z" fill="white"/>
<path d="M232.803 101.24H102.488V264.779H232.803V101.24Z" fill="#E6E6E6"/>
<path d="M418.807 101.24H288.492V264.779H418.807V101.24Z" fill="#E6E6E6"/>
<path d="M604.81 101.24H474.495V264.779H604.81V101.24Z" fill="#E6E6E6"/>
<path d="M232.803 294.38H102.488V457.918H232.803V294.38Z" fill="#E6E6E6"/>
<path d="M418.807 294.38H288.492V457.918H418.807V294.38Z" fill="#E6E6E6"/>
<path d="M604.81 294.38H474.495V457.918H604.81V294.38Z" fill="#E6E6E6"/>
<path d="M153.107 200.127C165.273 200.127 175.135 188.719 175.135 174.646C175.135 160.574 165.273 149.166 153.107 149.166C140.941 149.166 131.078 160.574 131.078 174.646C131.078 188.719 140.941 200.127 153.107 200.127Z" fill="#FFB9B9"/>
<path d="M144.502 194.155C144.502 194.155 147.255 209.284 147.255 210.877C147.255 212.469 160.335 219.636 160.335 219.636L172.037 217.247L176.168 202.914C176.168 202.914 169.284 190.97 169.284 186.192L144.502 194.155Z" fill="#FFB9B9"/>
<path d="M134.004 154.117C134.004 154.117 140.998 136.589 154.403 140.634C167.808 144.679 175.384 150.746 175.967 156.814C176.55 162.881 175.676 171.983 175.676 171.983C175.676 171.983 174.219 159.511 164.894 162.207C155.568 164.904 140.998 162.881 140.998 162.881L138.666 187.152C138.666 187.152 136.044 182.769 133.13 185.466C130.215 188.163 124.679 159.511 134.004 154.117Z" fill="#2F2E41"/>
<path d="M222.975 258.654L217.473 229.984C214.713 220.427 207.835 212.471 207.835 212.471L173.888 198.661H173.879C173.813 202.132 172.801 205.49 170.988 208.258C169.176 211.025 166.654 213.06 163.783 214.072C153.453 218.045 146.342 204.655 146.342 204.655L117.645 229.984C117.645 229.984 108.7 238.75 109.392 255.472L108.44 264.779H225.623L222.975 258.654Z" fill="#63BEFF"/>
<path d="M338.613 212.825C355.126 212.825 368.512 196.388 368.512 176.112C368.512 155.835 355.126 139.398 338.613 139.398C322.1 139.398 308.714 155.835 308.714 176.112C308.714 196.388 322.1 212.825 338.613 212.825Z" fill="#2F2E41"/>
<path d="M365.141 231.669C373.828 231.669 380.871 223.523 380.871 213.475C380.871 203.426 373.828 195.281 365.141 195.281C356.455 195.281 349.412 203.426 349.412 213.475C349.412 223.523 356.455 231.669 365.141 231.669Z" fill="#2F2E41"/>
<path d="M354.187 189.108L362.614 214.449L341.267 224.847L339.393 219.932L332.84 202.754L354.187 189.108Z" fill="#9F616A"/>
<path d="M337.335 205.677C347.728 205.677 356.153 195.931 356.153 183.909C356.153 171.887 347.728 162.141 337.335 162.141C326.941 162.141 318.516 171.887 318.516 183.909C318.516 195.931 326.941 205.677 337.335 205.677Z" fill="#9F616A"/>
<path d="M321.953 181.521C333.781 172.392 337.317 170.209 350.875 173.736L351.688 150.856L316.652 159.358L321.953 181.521Z" fill="#2F2E41"/>
<path d="M398 233.286L397.481 233.356C397.469 233.334 397.454 233.314 397.438 233.296C395.379 230.914 385.551 226.581 378.223 223.579H378.215C373.56 221.667 369.918 220.296 369.918 220.296L361.059 209.759C358.827 212.661 354.112 214.903 349.631 216.484C346.2 217.685 342.71 218.647 339.18 219.366H339.171L337.337 226.141C337.337 226.141 316.548 244.344 314.87 246.285H314.861V246.305C314.727 246.526 314.671 246.799 314.705 247.066V247.116C313.657 252.926 313.118 258.843 313.096 264.779H403.624V258.634C403.624 250.188 398 233.286 398 233.286Z" fill="#575A89"/>
<path d="M564.469 264.779H519.707L517.242 236.648L517.095 234.937L516.792 231.545L515.555 217.364L514.006 232.595L510.736 264.779H502.604L502.907 254.761L503.209 244.604L503.339 240.511L505.009 184.831C504.881 176.007 507.294 167.385 511.869 160.323C514.409 156.498 517.687 153.412 521.44 151.312C525.194 149.211 529.32 148.154 533.489 148.224C537.743 148.208 541.942 149.332 545.757 151.507C549.573 153.683 552.901 156.851 555.481 160.763C560.209 167.896 562.74 176.653 562.67 185.641L563.44 219.346L564.469 264.779Z" fill="#2F2E41"/>
<path d="M533.489 204.756C544.363 204.756 553.178 194.559 553.178 181.981C553.178 169.403 544.363 159.207 533.489 159.207C522.616 159.207 513.801 169.403 513.801 181.981C513.801 194.559 522.616 204.756 533.489 204.756Z" fill="#FBBEBE"/>
<path d="M523.645 198.249C523.645 198.249 529.27 220.21 523.645 226.717C518.02 233.224 516.613 235.664 516.613 235.664L532.786 260.879L560.913 221.023C560.913 221.023 541.224 214.516 546.146 196.622L523.645 198.249Z" fill="#FBBEBE"/>
<path d="M584.384 264.779H567.774L567.497 261.486L567.246 258.444L574.894 257.333L584.116 256.002L584.22 259.415L584.384 264.779Z" fill="#FBBEBE"/>
<path d="M585.524 259.252C585.524 259.252 582.711 238.918 580.601 230.784C578.492 222.65 576.382 222.65 576.382 222.65H576.382L576.382 222.648C573.899 219.776 567.93 219.266 563.44 219.346C560.291 219.386 557.868 219.706 557.868 219.706L532.788 250.308L520.157 230.884V230.874C519.02 230.976 517.893 231.201 516.792 231.545C515.844 231.824 514.914 232.175 514.006 232.595C510.094 234.529 506.489 237.204 503.339 240.511H503.33C501.514 242.402 500.441 243.793 500.441 243.793C497.659 250.483 495.563 257.526 494.195 264.779H574.565L574.747 260.596V260.588L585.524 259.252Z" fill="#63BEFF"/>
<path d="M516.965 178.321C529.681 170.391 534.905 170.727 550.717 178.321L554.936 166.431C554.934 164.192 554.164 162.046 552.795 160.463C551.427 158.88 549.571 157.989 547.636 157.987H519.343C517.407 157.989 515.552 158.88 514.183 160.463C512.815 162.046 512.045 164.192 512.043 166.431L516.965 178.321Z" fill="#2F2E41"/>
<path d="M165.922 333.963C164.875 333.864 163.826 334.135 162.914 334.74C162.05 335.593 161.355 336.653 160.88 337.847C158.678 342.318 155.698 346.212 152.128 349.282C149.527 351.486 146.221 354.233 146.666 358.296C146.901 359.638 147.33 360.924 147.934 362.101C150.333 367.703 156.879 372.032 156.235 378.424C158.619 373.808 155.431 371.526 157.814 366.911C158.949 364.713 160.921 362.231 162.635 363.612C163.208 364.074 163.585 364.903 164.183 365.308C165.608 366.276 167.125 364.426 168.387 363.116C172.738 358.597 178.926 359.781 184.341 361.189C186.898 361.854 189.706 362.726 191.217 365.552C193.204 369.268 189.329 373.281 188.35 377.482C188.27 377.84 188.266 378.215 188.339 378.575C188.412 378.935 188.559 379.27 188.768 379.55C188.976 379.83 189.241 380.047 189.538 380.183C189.835 380.319 190.156 380.37 190.474 380.331C192.099 380.146 194.024 379.994 194.12 379.169C196.164 379.253 198.669 378.985 199.545 376.523C199.812 375.549 199.954 374.534 199.964 373.512C200.286 369.376 201.804 365.603 202.809 361.667C203.814 357.73 204.251 353.117 202.555 349.627C201.949 348.465 201.2 347.413 200.332 346.502C190.704 335.724 178.046 333.947 165.922 333.963Z" fill="#2F2E41"/>
<path d="M158.329 386.497C158.329 386.497 160.423 406.681 152.745 408.296C145.068 409.91 159.725 437.36 159.725 437.36L194.623 442.204L186.247 409.91C186.247 409.91 180.664 407.488 184.153 391.341C187.643 375.194 158.329 386.497 158.329 386.497Z" fill="#9F616A"/>
<path d="M174.033 399.818C185.597 399.818 194.972 388.975 194.972 375.598C194.972 362.221 185.597 351.378 174.033 351.378C162.469 351.378 153.094 362.221 153.094 375.598C153.094 388.975 162.469 399.818 174.033 399.818Z" fill="#9F616A"/>
<path d="M137.993 457.918C141.696 441.076 146.809 418.39 146.809 418.39C146.809 418.39 148.799 418.86 151.931 419.39C156.505 420.178 161.115 420.663 165.738 420.842C171.656 421.032 177.885 420.581 182.703 418.65C184.52 417.976 186.217 416.928 187.712 415.558C188.343 414.971 188.906 414.295 189.391 413.546C197.765 400.627 201.252 449.873 201.252 449.873L201.901 457.918L137.993 457.918Z" fill="#63BEFF"/>
<path d="M204.894 509.956C204.617 509.956 204.34 509.966 204.063 509.986L204.461 509.125C204.6 509.396 204.738 509.676 204.894 509.956Z" fill="#FFB8B8"/>
<path d="M166.943 340.3C166.099 340.228 165.253 340.418 164.494 340.85C163.807 341.43 163.241 342.18 162.837 343.045C160.976 346.284 158.549 349.038 155.713 351.128C153.596 352.685 150.905 354.627 151.267 357.499C151.464 358.462 151.814 359.374 152.299 360.188C154.259 364.187 155.039 368.816 154.521 373.374L160.342 363.587C161.266 362.034 162.871 360.28 164.266 361.256C164.733 361.583 165.04 362.168 165.526 362.455C166.687 363.139 167.921 361.831 168.949 360.905C172.491 357.712 177.528 358.548 181.936 359.543C184.017 360.013 186.303 360.629 187.533 362.627C189.578 365.947 187.443 370.743 188.636 374.578C188.97 374.307 189.254 373.962 189.47 373.563C189.687 373.163 189.831 372.717 189.896 372.251C191.56 372.311 193.599 372.122 194.312 370.381C194.529 369.699 194.645 368.98 194.654 368.253C194.916 365.33 196.151 362.663 196.97 359.881C197.788 357.099 198.144 353.838 196.763 351.371C196.257 350.535 195.648 349.791 194.953 349.162C187.116 341.545 176.811 340.289 166.943 340.3Z" fill="#2F2E41"/>
<path d="M164.96 419.19C160.184 412.876 157.346 403.669 157.217 403.259V403.249C157.217 403.249 149.603 398.205 147.51 403.049C145.416 407.892 125.873 420.001 123.779 420.001C123.762 420.01 123.745 420.016 123.727 420.021C122.897 420.341 112.498 424.714 109.825 440.996C109.099 446.599 108.711 452.253 108.665 457.918H165.582C166.171 450.783 166.612 444.108 166.785 438.344C167.036 430.309 166.794 424.064 165.738 420.842C165.569 420.24 165.305 419.68 164.96 419.19V419.19Z" fill="#2F2E41"/>
<path d="M213.9 423.734C213.865 423.544 213.84 423.383 213.814 423.233C213.721 422.804 213.563 422.398 213.346 422.033C213.342 422.023 213.339 422.013 213.338 422.002C209.306 414.777 183.378 404.83 183.378 404.83L182.409 408.703C182.409 408.703 182.53 412.526 182.703 418.65C182.876 424.384 183.084 432.13 183.283 440.636C183.421 446.19 183.543 452.074 183.655 457.918H222.439C220.266 446.313 217.413 434.892 213.9 423.734Z" fill="#2F2E41"/>
<path d="M576.771 457.919L579.739 441.146L582.499 439.795L582.516 439.805C582.767 439.916 585.769 441.387 585.769 446.961C585.769 448.081 585.622 452.114 585.38 457.919H576.771Z" fill="#575A89"/>
<path d="M545.603 399.336C558.912 399.336 569.702 386.855 569.702 371.46C569.702 356.064 558.912 343.584 545.603 343.584C532.294 343.584 521.504 356.064 521.504 371.46C521.504 386.855 532.294 399.336 545.603 399.336Z" fill="#FFB8B8"/>
<path d="M560.665 387.721L558.656 435.341L527.529 414.435L531.545 387.721H560.665Z" fill="#FFB8B8"/>
<path d="M569.703 437.664L567.661 457.919H551.319L533.584 418.5L528.583 407.402L526.187 405.591L528.964 404.86L531.153 406.691L555.645 427.216L559.572 413.576L559.676 413.226L560.663 409.794L569.703 437.664Z" fill="#63BEFF"/>
<path d="M531.043 344.165C531.043 344.165 534.056 326.742 551.126 330.227L549.117 331.388C549.117 331.388 565.183 329.065 563.175 339.519C563.175 339.519 576.229 348.811 573.216 359.264C571.445 365.323 570.102 371.538 569.2 377.848L566.187 374.363C566.187 374.363 563.175 351.133 545.101 353.456C531.545 355.199 526.023 362.603 524.611 367.939C523.961 370.448 523.131 372.889 522.13 375.239L521.002 375.525C521.002 375.525 514.977 349.972 531.043 344.165Z" fill="#2F2E41"/>
<path d="M582.516 439.805L582.499 439.795L569.703 426.045V416.759L559.824 407.752L559.677 413.226L558.656 450.443L542.227 424.304L531.153 406.691L529.163 403.539L529.648 400.587L523.514 408.623L501.315 427.887L499.411 429.538C497.228 432.065 495.215 434.781 493.39 437.664C492.793 438.695 490.077 446.9 486.538 457.918H585.38C585.622 452.114 585.769 448.081 585.769 446.961C585.769 441.386 582.767 439.915 582.516 439.805Z" fill="#2F2E41"/>
<path d="M351.666 340.84C335.336 340.84 322.098 357.834 322.098 378.797V405.431H329.179L333.279 395.563L332.254 405.431H377.771L381.499 396.46L380.567 405.431H385.692V384.519C385.692 360.396 370.458 340.84 351.666 340.84Z" fill="#2F2E41"/>
<path d="M327.804 457.919H308.572L308.39 439.775C308.381 439.585 308.381 439.405 308.381 439.215L312.231 434.201L312.3 434.111L326.999 444.879L327.804 457.919Z" fill="#D0CDE1"/>
<path d="M349.05 401.709C360.675 401.709 370.1 390.808 370.1 377.361C370.1 363.913 360.675 353.012 349.05 353.012C337.425 353.012 328 363.913 328 377.361C328 390.808 337.425 401.709 349.05 401.709Z" fill="#FBBEBE"/>
<path d="M336.982 391.97C336.982 391.97 343.156 428.98 340.35 432.876C337.543 436.772 370.1 425.733 370.1 425.733C370.1 425.733 359.435 400.411 365.048 386.126L336.982 391.97Z" fill="#FBBEBE"/>
<path d="M394.09 416.999H394.081C393.585 415.786 392.729 414.82 391.668 414.277C387.541 412.265 383.985 410.724 381.061 409.553C375.889 407.5 370.246 407.703 365.195 410.124C364.701 410.354 364.217 410.604 363.741 410.884C363.741 410.884 343.16 415.418 340.711 414.847C340.53 414.807 340.339 414.777 340.158 414.757C339.788 414.696 339.415 414.659 339.042 414.647C334.252 414.39 329.502 415.753 325.372 418.57C318.616 423.103 308.598 431.139 308.39 438.965L308.2 439.215L308.39 457.918H398.727C398.909 439.995 399.013 426.526 399.013 425.615C399.013 422.783 394.09 416.999 394.09 416.999Z" fill="#63BEFF"/>
<path d="M360.072 351.296C358.649 349.086 356.805 347.284 354.683 346.032C352.561 344.779 350.218 344.109 347.836 344.073H347.256C336.063 344.073 326.99 355.789 326.99 370.24V370.241H330.74L331.346 364.908L332.234 370.241H354.477L356.341 365.729L355.875 370.241H360.251C362.293 381.971 359.359 393.701 351.449 405.431H358.903L362.63 396.408L361.698 405.431H375.908L378.703 384.678C378.703 369.135 370.896 355.956 360.072 351.296Z" fill="#2F2E41"/>
<path d="M364.157 353.481C370.274 353.481 375.232 347.746 375.232 340.671C375.232 333.596 370.274 327.86 364.157 327.86C358.041 327.86 353.083 333.596 353.083 340.671C353.083 347.746 358.041 353.481 364.157 353.481Z" fill="#2F2E41"/>
</g>
<defs>
<clipPath id="clip0_24_1080">
<rect width="707" height="524" fill="white"/>
</clipPath>
</defs>
</svg>
